<svg width="865" height="167" viewBox="0 0 865 167" fill="none" xmlns="http://www.w3.org/2000/svg">
<rect y="17" width="861" height="149" rx="24" fill="#6161A8"/>
<path d="M832.471 166.065C832.381 166.237 832.291 166.409 832.201 166.581L557.359 166.498C557.359 166.498 557.227 166.357 556.983 166.081L556.968 166.065C549.84 157.888 543.372 145.796 540.623 133.841C536.615 116.532 539.998 99.552 551.137 83.8967C563.393 66.6663 580.131 52.9805 601.354 53.2529H601.374C612.693 53.4035 623.529 57.5391 633.015 63.8644C642.028 69.8762 657.652 63.5944 667.073 57.1459C678.106 49.6299 687.447 38.6303 694.629 27.4105C719.995 -12.1315 779.607 -5.14678 807.766 24.6136C822.717 40.3858 828.595 61.7904 822.266 86.4484C821.078 91.0767 820.412 95.9041 820.694 100.688C822.192 126.777 849.882 132.57 832.471 166.065Z" fill="#F0F7FF"/>
<g opacity="0.5">
<path d="M822.264 86.4451C821.789 88.28 821.408 90.1379 821.125 92.0115C820.927 93.3444 820.789 94.6301 820.712 95.8684V95.9493H712.865V24.614H807.764C809.026 25.9411 810.229 27.3226 811.375 28.7583C822.93 43.2105 828.352 62.7351 822.264 86.4451Z" fill="#D8E8FC"/>
<path d="M822.264 86.4451C821.789 88.28 821.408 90.1379 821.125 92.0115H717.345V28.7583H811.375C822.93 43.2105 828.352 62.7351 822.264 86.4451Z" fill="#B1D2F9"/>
<path d="M820.691 100.684C820.6 99.1091 820.606 97.5302 820.707 95.9561V95.8752H710.238C709.153 95.8807 708.114 96.306 707.339 97.0611C706.565 97.8162 706.117 98.8416 706.089 99.92C706.089 99.9623 706.089 100.003 706.089 100.044V100.686L820.691 100.684Z" fill="#B1D2F9"/>
</g>
<path d="M722.71 88.4289C722.71 88.4289 719.289 87.125 717.315 88.7685C715.342 90.4121 713.99 98.8699 714.666 100.447C715.343 102.025 717.315 102.964 717.315 102.964C717.315 102.964 716.902 102.035 717.052 101.312C717.052 101.312 717.616 103.14 719.12 103.488C720.623 103.837 725.977 103.406 727.012 102.964C728.209 102.456 728.888 101.928 729.192 100.447C729.496 98.9669 730.699 85.8223 722.71 88.4289Z" fill="#B5493F"/>
<path d="M739.265 166.05C739.239 166.052 739.212 166.052 739.186 166.05C739.088 166.054 738.991 166.025 738.911 165.968C738.831 165.911 738.772 165.829 738.745 165.735L733.732 144.176L733.368 142.606L735.081 142.531L735.642 145.47L739.506 165.75C739.511 165.786 739.509 165.822 739.499 165.857C739.49 165.891 739.473 165.924 739.451 165.952C739.428 165.98 739.4 166.003 739.368 166.02C739.336 166.037 739.301 166.047 739.265 166.05Z" fill="#E5BD9E"/>
<path d="M713.793 142.61L712.968 146.158L708.415 165.74C708.388 165.834 708.329 165.916 708.249 165.974C708.168 166.031 708.071 166.059 707.973 166.055C707.946 166.057 707.92 166.057 707.894 166.055C707.858 166.052 707.824 166.041 707.792 166.024C707.761 166.008 707.733 165.985 707.711 165.957C707.689 165.93 707.672 165.898 707.663 165.864C707.653 165.829 707.65 165.794 707.655 165.759L711.773 144.138L712.08 142.54L713.793 142.61Z" fill="#E5BD9E"/>
<path d="M713.793 142.61L712.968 146.159C712.943 145.751 712.822 145.356 712.614 145.004C712.407 144.652 712.119 144.353 711.773 144.133L712.08 142.536L713.793 142.61Z" fill="#CC9E7F"/>
<path d="M735.638 145.474C734.79 144.23 733.762 144.23 733.729 144.182L733.365 142.611L735.079 142.537L735.638 145.474Z" fill="#CC9E7F"/>
<path d="M710.385 142.766H735.208C735.797 142.766 736.362 142.533 736.778 142.118C737.195 141.704 737.429 141.142 737.429 140.556V138.782C737.429 138.196 737.195 137.633 736.778 137.219C736.361 136.804 735.796 136.571 735.206 136.571H710.385C709.796 136.571 709.231 136.804 708.814 137.219C708.397 137.633 708.163 138.196 708.163 138.782V140.557C708.163 140.847 708.221 141.135 708.333 141.403C708.444 141.671 708.608 141.914 708.815 142.119C709.021 142.324 709.266 142.487 709.535 142.598C709.805 142.709 710.094 142.766 710.385 142.766Z" fill="#C65447"/>
<path d="M731.482 129.279C730.747 125.205 728.606 120.57 728.606 120.57C730.164 114.075 728.573 106.772 728.573 106.772C727.716 106.543 726.843 106.377 725.962 106.274C725.852 105.694 725.537 103.951 725.403 102.451C725.389 102.276 725.376 102.105 725.365 101.939C725.338 101.562 725.336 101.183 725.359 100.805L724.262 100.877L719.744 101.177L719.553 101.189C719.553 101.189 719.58 101.592 719.586 102.201C719.601 103.292 719.548 105.04 719.154 106.293C717.21 106.493 715.893 106.775 715.893 106.775C714.621 106.991 714.893 114.87 717.269 120.995C718.363 123.814 715.268 128.178 715.268 129.281C715.268 130.385 731.749 130.75 731.482 129.279Z" fill="#FFB27D"/>
<path d="M725.398 102.448C724.974 102.946 723.898 104.012 722.542 104.036C720.767 104.067 719.582 102.198 719.582 102.198C719.611 101.854 719.663 101.512 719.739 101.174L724.258 100.874C724.643 101.21 725.011 101.565 725.361 101.937C725.372 102.102 725.384 102.272 725.398 102.448Z" fill="#EF9E67"/>
<path d="M722.511 102.98C720.052 102.98 718.04 100.958 718.04 98.4871V94.7434C718.038 93.9455 718.354 93.1795 718.918 92.6125C719.483 92.0455 720.25 91.7238 721.052 91.7176H723.763C724.565 91.7238 725.332 92.0455 725.896 92.6125C726.46 93.1795 726.776 93.9455 726.774 94.7434V98.6948C726.777 99.8244 726.33 100.909 725.531 101.712C724.732 102.515 723.646 102.971 722.511 102.98Z" fill="#FFB27D"/>
<path d="M721.034 100.189C721.034 100.189 721.127 100.784 722.577 100.804C722.577 100.804 723.795 100.82 723.807 100.182C723.807 100.177 722.666 99.6306 721.034 100.189Z" fill="white"/>
<path d="M710.357 136.57C710.357 136.57 713.358 129.574 716.118 128.207C718.879 126.839 729.838 128.053 731.484 129.279C733.129 130.504 735.235 136.57 735.235 136.57H710.357Z" fill="#22356B"/>
<path d="M713.1 136.569C713.1 136.569 714.173 132.373 716.559 132.19C718.945 132.007 722.13 134.226 723.262 133.628C724.394 133.029 726.556 131.533 728.562 131.915C730.568 132.297 733.586 136.569 733.586 136.569H713.1Z" fill="#1B2E59"/>
<path d="M726.183 162.725L723.344 162.927C723.344 162.927 721.75 158.448 719.967 153.222C719.802 152.733 719.632 152.238 719.467 151.738C717.995 147.384 716.488 142.75 715.715 139.884C715.53 139.197 715.391 138.574 715.295 138.006C714.436 133.052 716.648 132.507 717.171 132.378C717.76 132.235 721.313 130.337 723.726 136.732C724.542 138.885 725.867 144.873 725.825 150.542C725.796 155.991 726.183 162.725 726.183 162.725Z" fill="#FFB27D"/>
<path d="M719.973 153.225C719.807 152.736 719.637 152.241 719.472 151.741C718 147.386 716.493 142.753 715.72 139.886C715.535 139.199 715.396 138.576 715.3 138.009C715.374 138.21 720.135 151.05 724.201 151.788C726.81 152.262 723.048 152.857 719.973 153.225Z" fill="#EF9E67"/>
<path d="M726.183 162.726L723.336 163.348L722.611 163.508C722.611 163.508 721.438 157.575 719.469 151.74C720.723 151.807 721.98 151.685 723.197 151.38C724.013 151.183 724.806 150.905 725.566 150.551C726.148 156.589 726.183 162.726 726.183 162.726Z" fill="#E9F3FE"/>
<path d="M723.338 163.349L722.613 163.51C722.613 163.51 721.439 157.576 719.471 151.741C720.725 151.808 721.982 151.687 723.199 151.382C723.199 151.382 722.246 160.134 723.338 163.349Z" fill="#C7DCF2"/>
<path d="M726.818 164.297C726.855 164.431 726.888 164.556 726.915 164.67C726.931 164.73 726.934 164.792 726.925 164.853C726.915 164.914 726.894 164.973 726.861 165.025C726.829 165.078 726.786 165.123 726.736 165.159C726.685 165.195 726.628 165.22 726.568 165.234L723.26 165.947C723.142 165.972 723.019 165.95 722.918 165.886C722.817 165.821 722.745 165.72 722.718 165.603C722.672 165.393 722.636 165.181 722.612 164.968C722.554 164.484 722.554 163.995 722.612 163.512C722.62 163.443 722.644 163.377 722.682 163.319C722.719 163.261 722.77 163.213 722.829 163.177C724.36 162.281 725.492 162.431 725.913 162.531C725.969 162.545 726.022 162.569 726.069 162.603C726.115 162.637 726.154 162.68 726.184 162.729C726.458 163.224 726.671 163.751 726.818 164.297Z" fill="#22356B"/>
<path d="M726.029 162.645C726.029 162.645 725.484 162.069 724.348 162.189C724.019 162.222 723.703 162.336 723.429 162.52C723.154 162.704 722.93 162.953 722.775 163.244L722.626 163.448C722.646 163.403 723.091 162.137 724.329 162.006C724.675 161.959 725.027 162 725.352 162.126C725.677 162.252 725.964 162.458 726.187 162.725L726.029 162.645Z" fill="#22356B"/>
<path d="M726.818 164.297C726.855 164.431 726.888 164.556 726.915 164.67C726.931 164.73 726.934 164.792 726.925 164.853C726.915 164.914 726.894 164.973 726.861 165.025C726.829 165.078 726.786 165.123 726.736 165.159C726.685 165.195 726.628 165.22 726.568 165.234L723.26 165.947C723.142 165.972 723.019 165.95 722.918 165.886C722.817 165.821 722.745 165.72 722.718 165.603C722.672 165.393 722.636 165.181 722.612 164.967C722.612 164.967 722.987 165.67 724.999 165.209C726.211 164.926 726.656 164.549 726.818 164.297Z" fill="#22356B"/>
<path d="M736.439 123.95L731.855 124.025C731.503 123.224 730.892 120.552 730.286 118.94C730.512 119.925 730.733 120.942 730.939 121.941C731.748 125.82 732.361 129.468 732.266 130.249C732.049 132.029 725.13 131.227 723.347 130.799C721.563 130.371 717.509 131.351 714.265 131.288C712.4 131.253 712.972 126.033 713.793 121.611C713.988 120.55 714.201 119.533 714.397 118.648C713.349 120.743 712.873 123.327 712.619 124.025C712.619 124.025 708.14 123.735 708.139 123.724C707.987 122.928 709.674 110.334 713.104 107.761C713.792 107.214 714.585 106.813 715.434 106.583C716.284 106.352 717.171 106.297 718.043 106.421C718.043 106.421 719.168 108.436 722.42 108.587C723.356 108.64 724.292 108.479 725.156 108.117C726.02 107.755 726.79 107.201 727.406 106.498C727.406 106.498 730.124 106.566 731.222 107.761C732.32 108.957 734.754 113.243 736.439 123.95Z" fill="#2B478B"/>
<path d="M732.263 130.249C732.045 132.028 725.127 131.227 723.343 130.799C721.56 130.371 717.505 131.35 714.261 131.288C712.397 131.253 712.968 126.032 713.79 121.611C713.79 121.611 717.305 127.795 721.687 127.753C726.07 127.711 730.942 121.94 730.942 121.94C731.749 125.82 732.358 129.467 732.263 130.249Z" fill="#233F77"/>
<path d="M719.412 105.108C719.412 105.108 720.936 108.118 722.422 108.592C722.422 108.592 720.31 109.394 717.231 106.364C717.452 105.983 717.77 105.666 718.152 105.446C718.535 105.226 718.969 105.109 719.412 105.108Z" fill="#E6F1FF"/>
<path d="M725.814 105.108C725.814 105.108 723.907 108.118 722.422 108.592C722.422 108.592 724.855 109.57 727.934 106.539C727.934 106.535 727.382 105.142 725.814 105.108Z" fill="#E6F1FF"/>
<path d="M722.207 108.579C722.209 108.531 722.224 108.485 722.252 108.447C722.279 108.408 722.318 108.378 722.362 108.361C722.407 108.344 722.455 108.34 722.502 108.35C722.548 108.361 722.591 108.384 722.624 108.418C722.657 108.452 722.679 108.495 722.688 108.542C722.697 108.588 722.692 108.636 722.673 108.68C722.655 108.724 722.624 108.761 722.584 108.787C722.544 108.814 722.498 108.827 722.45 108.828C722.385 108.826 722.323 108.799 722.278 108.752C722.233 108.706 722.207 108.643 722.207 108.579Z" fill="#35488B"/>
<path d="M721.961 114.767C721.962 114.676 721.989 114.587 722.04 114.512C722.092 114.437 722.164 114.378 722.249 114.344C722.333 114.309 722.426 114.3 722.516 114.318C722.605 114.336 722.688 114.381 722.752 114.445C722.817 114.509 722.86 114.592 722.878 114.681C722.896 114.77 722.886 114.862 722.851 114.946C722.816 115.03 722.757 115.102 722.681 115.153C722.605 115.203 722.515 115.23 722.424 115.23C722.301 115.229 722.183 115.18 722.097 115.094C722.01 115.007 721.961 114.889 721.961 114.767Z" fill="#233F77"/>
<path d="M721.961 122.204C721.962 122.113 721.99 122.025 722.041 121.949C722.092 121.874 722.165 121.816 722.25 121.782C722.334 121.747 722.427 121.739 722.517 121.757C722.606 121.775 722.688 121.819 722.753 121.884C722.817 121.948 722.861 122.03 722.878 122.119C722.896 122.209 722.886 122.301 722.851 122.385C722.816 122.469 722.757 122.541 722.681 122.591C722.605 122.641 722.515 122.668 722.424 122.668C722.301 122.668 722.183 122.618 722.096 122.531C722.009 122.444 721.961 122.327 721.961 122.204Z" fill="#233F77"/>
<path d="M735.627 136.121L735.639 134.827C735.639 134.827 737.417 123.838 736.186 123.498C734.954 123.158 732.635 124.327 732.635 124.327L733.365 134.827C733.353 135.069 733.318 135.308 733.259 135.543C733.228 135.55 733.197 135.555 733.167 135.564C731.957 135.91 732.684 138.409 733.586 138.454C734.247 138.487 735.103 137.489 735.683 137.147C735.935 136.992 735.862 136.297 735.627 136.121Z" fill="#EF9E67"/>
<path d="M731.851 124.024C731.851 124.024 731.564 125.573 732.271 125.8C732.978 126.026 736.587 126.141 736.812 125.8C737.037 125.459 736.724 122.86 736.187 122.668C735.649 122.477 732.187 123.182 731.851 124.024Z" fill="#233F77"/>
<path d="M711.834 124.326L711.105 134.826H708.831C708.831 134.826 707.052 123.837 708.283 123.497C709.515 123.157 711.834 124.326 711.834 124.326Z" fill="#FFB27D"/>
<path d="M708.788 137.146C708.538 136.998 708.609 136.297 708.844 136.12C709.404 135.697 710.431 135.314 711.303 135.563C712.512 135.909 711.786 138.408 710.884 138.453C710.222 138.486 709.366 137.49 708.788 137.146Z" fill="#FFB27D"/>
<path d="M708.828 134.826L708.844 136.608C709.136 136.58 710.781 137.197 711.293 136.519C711.492 136.254 711.123 135.556 711.102 134.826C711.035 132.638 708.828 134.826 708.828 134.826Z" fill="#FFB27D"/>
<path d="M712.616 124.024C712.616 124.024 712.903 125.573 712.196 125.8C711.49 126.026 707.88 126.141 707.655 125.8C707.43 125.459 707.744 122.86 708.281 122.668C708.817 122.477 712.283 123.182 712.616 124.024Z" fill="#233F77"/>
<path d="M722.995 92.3095C722.995 92.3095 723.667 94.717 725.402 95.3963C725.402 95.3963 724.602 94.009 724.883 93.3285C724.883 93.3285 725.653 96.0482 726.777 96.9826C726.777 96.9826 728.378 91.3465 723.812 91.0629C719.246 90.7792 717.414 93.1879 717.386 94.9198C717.374 95.9754 717.599 97.0204 718.043 97.9792C718.043 97.9792 718.543 94.7779 720.544 93.8436C722.545 92.9092 722.995 92.3095 722.995 92.3095Z" fill="#B5493F"/>
<path d="M727.732 151.748C725.91 157.774 723.98 163.46 723.98 163.46L720.728 162.788C720.728 162.788 721.065 157.541 721.164 151.726C721.172 151.264 721.224 150.8 721.256 150.334C721.554 145.943 721.913 141.408 722.274 138.606C723.166 131.72 725.891 132.137 726.49 132.237C727.089 132.338 731.094 131.951 730.885 138.78C730.817 140.999 729.315 146.503 727.732 151.748Z" fill="#FFB27D"/>
<path d="M721.166 151.726C721.196 151.264 721.226 150.8 721.259 150.333C721.556 145.943 721.915 141.408 722.277 138.606C722.277 138.606 721.848 150.608 725.816 151.952C728.44 152.842 724.283 152.236 721.166 151.726Z" fill="#EF9E67"/>
<path d="M727.734 151.748C726.699 155.17 725.63 158.479 724.899 160.706C724.343 162.399 723.981 163.463 723.981 163.463L720.525 162.826C720.525 162.826 720.775 157.511 721.5 150.77C721.945 151.035 722.986 151.377 725.127 151.588C725.86 151.657 726.723 151.716 727.734 151.748Z" fill="#E9F3FE"/>
<path d="M723.998 165.374C723.984 165.513 723.969 165.64 723.953 165.754C723.945 165.815 723.925 165.873 723.894 165.927C723.863 165.98 723.821 166.026 723.772 166.063C723.722 166.099 723.666 166.126 723.606 166.14C723.546 166.155 723.483 166.157 723.422 166.147L720.087 165.574C719.968 165.554 719.863 165.488 719.792 165.391C719.722 165.293 719.693 165.173 719.712 165.054C719.745 164.842 719.79 164.631 719.847 164.423C719.971 163.953 720.152 163.5 720.385 163.072C720.417 163.012 720.464 162.959 720.52 162.919C720.576 162.879 720.641 162.853 720.71 162.842C722.461 162.582 723.461 163.136 723.811 163.393C723.859 163.427 723.899 163.469 723.93 163.518C723.96 163.567 723.981 163.621 723.99 163.678C724.062 164.241 724.064 164.811 723.998 165.374Z" fill="#35488B"/>
<path d="M723.872 163.545C723.872 163.538 723.578 162.808 722.48 162.495C722.163 162.404 721.828 162.391 721.505 162.46C721.182 162.528 720.881 162.675 720.629 162.887L720.415 163.02C720.452 162.987 721.333 161.976 722.53 162.319C722.869 162.404 723.181 162.573 723.436 162.811C723.691 163.049 723.881 163.347 723.988 163.678L723.872 163.545Z" fill="#35488B"/>
<path d="M723.997 165.375C723.983 165.514 723.968 165.641 723.952 165.754C723.944 165.815 723.925 165.874 723.893 165.927C723.862 165.98 723.821 166.027 723.771 166.063C723.722 166.1 723.665 166.127 723.605 166.141C723.545 166.155 723.483 166.158 723.422 166.147L720.086 165.575C719.968 165.555 719.862 165.489 719.792 165.391C719.722 165.294 719.693 165.173 719.711 165.055C719.745 164.842 719.79 164.632 719.846 164.424C719.846 164.424 719.94 165.219 721.972 165.544C723.2 165.733 723.747 165.549 723.997 165.375Z" fill="#35488B"/>
<path d="M643.967 166.153C643.967 166.153 643.939 162.794 645.419 162.533C646.898 162.273 649.046 161.464 649.341 166.153H643.967Z" fill="#22356B"/>
<path d="M654.904 166.153C654.904 166.153 654.878 162.794 656.356 162.533C657.834 162.273 659.983 161.464 660.279 166.153H654.904Z" fill="#22356B"/>
<path d="M641.506 130.347C640.64 132.362 640.069 134.491 639.813 136.667H660.69C660.69 136.667 658.778 130.522 657.064 129.843C655.349 129.164 641.506 130.347 641.506 130.347Z" fill="#1B2E59"/>
<path d="M645.733 100.165C645.733 100.165 643.79 97.5079 642.507 95.3742C640.975 92.8286 641.831 88.7329 647.408 87.8644C647.408 87.8644 649.2 87.4825 649.71 87.0072C649.71 87.0072 649.684 87.6716 649.524 87.8483C649.524 87.8483 653.966 87.2672 654.285 89.2517C655.26 95.3232 654.121 97.539 654.121 97.539L645.733 100.165Z" fill="#B5493F"/>
<path d="M666.987 166.148C666.962 166.15 666.936 166.15 666.91 166.148C666.811 166.153 666.714 166.124 666.634 166.067C666.554 166.01 666.495 165.928 666.467 165.833L661.455 144.275L661.091 142.704L662.804 142.63L663.364 145.569L667.229 165.848C667.234 165.884 667.232 165.92 667.222 165.955C667.212 165.99 667.196 166.022 667.173 166.05C667.151 166.078 667.123 166.101 667.091 166.118C667.059 166.135 667.024 166.145 666.987 166.148Z" fill="#E5BD9E"/>
<path d="M641.512 142.708L640.686 146.257L636.134 165.838C636.106 165.933 636.048 166.015 635.967 166.072C635.887 166.129 635.79 166.158 635.691 166.153C635.665 166.155 635.639 166.155 635.613 166.153C635.577 166.15 635.543 166.14 635.511 166.123C635.48 166.106 635.452 166.083 635.43 166.056C635.408 166.028 635.391 165.996 635.381 165.962C635.372 165.928 635.369 165.892 635.374 165.857L639.492 144.236L639.798 142.639L641.512 142.708Z" fill="#E5BD9E"/>
<path d="M641.512 142.708L640.686 146.256C640.662 145.849 640.541 145.453 640.333 145.101C640.125 144.749 639.837 144.451 639.492 144.231L639.798 142.633L641.512 142.708Z" fill="#CC9E7F"/>
<path d="M663.361 145.577C662.513 144.333 661.485 144.333 661.453 144.284L661.089 142.714L662.802 142.64L663.361 145.577Z" fill="#CC9E7F"/>
<path d="M662.929 142.864H638.108C636.881 142.864 635.886 141.874 635.886 140.653V138.879C635.886 137.658 636.881 136.668 638.108 136.668H662.929C664.156 136.668 665.151 137.658 665.151 138.879V140.653C665.151 141.874 664.156 142.864 662.929 142.864Z" fill="#A03530"/>
<path d="M659.206 129.377C658.47 125.304 656.329 120.668 656.329 120.668C657.888 114.173 656.297 106.87 656.297 106.87C655.44 106.641 654.566 106.474 653.684 106.372C653.576 105.793 653.26 104.049 653.127 102.548C653.113 102.374 653.1 102.203 653.089 102.038C653.064 101.66 653.064 101.281 653.089 100.903L651.992 100.975L647.474 101.275L647.282 101.287C647.282 101.287 647.31 101.691 647.317 102.298C647.33 103.39 647.277 105.137 646.883 106.391C644.94 106.591 643.623 106.874 643.623 106.874C642.351 107.089 642.623 114.968 644.999 121.093C646.093 123.913 642.998 128.276 642.998 129.379C642.998 130.483 659.471 130.849 659.206 129.377Z" fill="#FFB27D"/>
<path d="M653.123 102.545C652.699 103.043 651.622 104.111 650.267 104.134C648.492 104.165 647.308 102.295 647.308 102.295C647.336 101.951 647.388 101.61 647.464 101.273L651.982 100.973C652.368 101.307 652.737 101.661 653.087 102.032C653.097 102.201 653.109 102.371 653.123 102.545Z" fill="#EF9E67"/>
<path d="M650.822 102.892C650.243 103.002 649.648 102.998 649.071 102.88C648.494 102.762 647.946 102.531 647.458 102.202C646.97 101.873 646.552 101.452 646.228 100.962C645.904 100.472 645.68 99.9241 645.569 99.3483L644.853 95.6743C644.699 94.8903 644.862 94.0776 645.307 93.4126C645.752 92.7476 646.442 92.284 647.229 92.1222L649.89 91.5972C650.677 91.4481 651.491 91.6157 652.154 92.0634C652.816 92.5111 653.273 93.2021 653.424 93.9847L654.175 97.8628C654.392 98.9712 654.163 100.12 653.535 101.061C652.908 102.003 651.933 102.66 650.822 102.892Z" fill="#FFB27D"/>
<path d="M648.833 100.439C648.833 100.439 649.038 101.003 650.459 100.742C650.459 100.742 651.658 100.523 651.545 99.8887C651.557 99.8887 650.333 99.5739 648.833 100.439Z" fill="white"/>
<path d="M665.401 126.355L661.463 124.378L660.278 123.782C659.926 122.981 658.742 120.474 658.008 119.038C658.172 119.756 658.334 120.491 658.49 121.224C658.548 121.497 658.604 121.768 658.662 122.039C659.47 125.917 660.083 129.566 659.987 130.348C659.77 132.127 652.851 131.325 651.068 130.897C649.285 130.469 645.23 131.449 641.986 131.385C640.121 131.352 640.693 126.131 641.515 121.708C641.71 120.648 641.924 119.632 642.119 118.746C641.071 120.842 639.993 123.054 639.734 123.752L637.5 124.933L635.03 126.238L634.966 126.273C634.961 126.263 634.957 126.251 634.956 126.239C634.806 125.433 637.528 110.514 640.959 107.943C640.959 107.876 640.977 107.811 641.009 107.754C641.042 107.696 641.09 107.648 641.147 107.614C642.495 106.688 644.143 106.297 645.767 106.519C645.767 106.519 646.892 108.535 650.144 108.688C651.08 108.74 652.016 108.579 652.88 108.216C653.744 107.854 654.514 107.3 655.13 106.596C655.13 106.596 656.722 106.636 657.96 107.191C658.331 107.346 658.666 107.574 658.946 107.861C660.029 109.038 665.291 119.143 665.401 126.355Z" fill="#A53A35"/>
<path d="M660.445 123.601C660.445 123.601 654.86 129.598 652.14 131.617L653.007 133.409C653.007 133.409 661.636 130.128 665.276 125.523L660.445 123.601Z" fill="#0052B4"/>
<path d="M652.844 131.196C652.844 131.196 650.546 131.842 650.172 132.565C649.798 133.288 649.955 135.333 650.536 134.992C651.116 134.651 654.312 132.54 654.312 132.54L652.844 131.196Z" fill="#0052B4"/>
<path d="M647.138 105.207C647.138 105.207 648.662 108.216 650.146 108.69C650.146 108.69 648.035 109.493 644.956 106.462C645.178 106.081 645.495 105.764 645.878 105.544C646.261 105.324 646.695 105.207 647.138 105.207Z" fill="#E6F1FF"/>
<path d="M653.539 105.207C653.539 105.207 651.631 108.216 650.146 108.69C650.146 108.69 652.647 109.493 655.72 106.462C655.498 106.081 655.18 105.765 654.798 105.544C654.415 105.324 653.981 105.208 653.539 105.207Z" fill="#E6F1FF"/>
<path d="M639.75 123.601C639.75 123.601 645.563 129.375 648.359 131.286L647.561 133.111C647.561 133.111 639.316 130.295 635.499 125.835L639.75 123.601Z" fill="#FFB27D"/>
<path d="M646.283 130.772C646.283 130.772 648.659 130.936 649.175 131.56C649.69 132.185 649.946 134.228 649.311 134.013C648.676 133.797 645.116 132.384 645.116 132.384L646.283 130.772Z" fill="#FFB27D"/>
<path d="M649.685 114.865C649.686 114.774 649.713 114.686 649.765 114.61C649.816 114.535 649.889 114.477 649.973 114.443C650.058 114.408 650.151 114.4 650.241 114.418C650.33 114.436 650.412 114.481 650.477 114.545C650.541 114.61 650.584 114.692 650.602 114.781C650.619 114.871 650.61 114.963 650.574 115.047C650.539 115.131 650.48 115.202 650.403 115.253C650.327 115.303 650.238 115.33 650.146 115.329C650.023 115.328 649.906 115.279 649.819 115.192C649.733 115.105 649.685 114.988 649.685 114.865Z" fill="#C65447"/>
<path d="M649.685 122.303C649.686 122.212 649.713 122.123 649.765 122.048C649.816 121.973 649.889 121.914 649.973 121.88C650.058 121.846 650.151 121.837 650.241 121.855C650.33 121.874 650.412 121.918 650.477 121.983C650.541 122.047 650.584 122.129 650.602 122.219C650.619 122.308 650.61 122.4 650.574 122.484C650.539 122.568 650.48 122.64 650.403 122.69C650.327 122.74 650.238 122.767 650.146 122.767C650.023 122.766 649.906 122.716 649.819 122.629C649.733 122.542 649.685 122.425 649.685 122.303Z" fill="#C65447"/>
<path d="M644.854 95.6743C644.854 95.6743 644.99 94.1813 645.94 93.9425C646.89 93.7036 650.431 94.9714 651.193 93.9425C651.954 92.9135 652.532 92.4793 653.046 92.9969C653.56 93.5145 653.197 89.8865 653.072 89.8392C652.947 89.7919 645.068 90.2237 645.068 90.2237L643.192 92.2143L643.289 94.4762L644.854 95.6743Z" fill="#B5493F"/>
<path d="M650.381 163.029C650.381 163.029 649.049 163.585 647.024 163.6C645.589 163.609 644.164 163.347 642.827 162.827C642.827 162.827 641.659 154.609 640.961 147.58C640.566 143.582 640.321 139.969 640.53 138.471C641.105 134.34 642.976 131.952 645.337 132.151C647.698 132.35 649.906 133.994 650.069 135.988C650.233 137.982 650.381 163.029 650.381 163.029Z" fill="#2B478B"/>
<path d="M642.989 115.624L642.114 118.746C641.16 121.551 639.988 123.054 639.729 123.752L637.495 124.933L635.025 126.238H634.951C634.614 124.59 637.393 110.437 640.821 107.859C640.922 107.771 641.028 107.688 641.138 107.611C642.249 109.71 644.282 114.069 642.989 115.624Z" fill="#E6F1FF"/>
<path d="M641.504 124.898L640.401 125.865L637.554 128.353C635.98 128.229 634.843 126.353 634.843 126.353C635.4 125.458 636.249 124.808 637.094 124.344C637.98 123.865 638.932 123.518 639.919 123.313L641.504 124.898Z" fill="#E6F1FF"/>
<path d="M641.504 124.898L640.401 125.865C638.489 125.85 637.093 124.346 637.093 124.346C637.979 123.867 638.931 123.52 639.918 123.316L641.504 124.898Z" fill="#C7DCF2"/>
<path d="M657.963 107.19C658.338 107.36 658.789 107.554 659.048 107.835C659.397 108.216 660.131 109.559 661.038 111.406C662.939 115.272 665.328 121.483 665.401 126.355L663.1 125.2L661.463 124.378L660.278 123.783C659.58 122.64 658.621 120.535 658.008 119.039C658.172 119.756 658.334 120.492 658.49 121.225L656.782 114.866C656.022 113.741 657.625 108.294 657.963 107.19Z" fill="#E6F1FF"/>
<path d="M665.401 126.355C665.401 126.355 664.263 128.233 662.69 128.356L659.455 125.523L658.742 124.901L660.09 123.363C660.836 123.498 661.567 123.71 662.27 123.994C663.39 124.445 664.675 125.187 665.401 126.355Z" fill="#E6F1FF"/>
<path d="M662.27 123.994C662.27 123.994 660.75 125.331 659.454 125.523L658.742 124.901L660.09 123.363C660.836 123.498 661.567 123.71 662.27 123.994Z" fill="#C7DCF2"/>
<path d="M660.128 156.095C660.371 159.518 660.514 162.021 660.514 162.021C656.742 164.429 653.148 163.717 653.148 163.717C653.148 163.717 649.457 144.721 648.408 138.777C648.263 137.958 648.169 137.387 648.141 137.147C647.91 135.156 649.752 133.11 652.027 132.446C654.302 131.783 656.605 133.751 657.981 137.689C658.875 140.249 659.676 149.75 660.128 156.095Z" fill="#2B478B"/>
<path d="M660.128 156.095C660.371 159.518 660.514 162.021 660.514 162.021C656.742 164.429 653.148 163.717 653.148 163.717C653.148 163.717 649.457 144.721 648.408 138.776C648.425 138.174 648.436 137.817 648.438 137.771C648.485 138.147 650.718 155.479 660.128 156.095Z" fill="#233F77"/>
<path d="M647.023 163.6C645.588 163.61 644.163 163.348 642.826 162.827C642.826 162.827 641.658 154.61 640.96 147.58C641 147.774 643.422 159.589 647.023 163.6Z" fill="#233F77"/>
<path d="M661.036 111.406C662.937 115.272 665.601 121.272 665.399 126.355L663.098 125.2C663.151 125.153 663.206 125.109 663.263 125.068C665.611 123.379 661.15 111.695 661.036 111.406Z" fill="#C7DCF2"/>
<path d="M604.079 99.4185C603.264 98.2784 602.713 96.9726 602.467 95.5952C602.073 93.3296 602.377 87.7818 606.583 88.0319C609.574 88.2098 611.21 87.4857 612.531 88.2584C613.743 88.9663 615.478 91.0179 615.14 93.1591C614.801 95.3003 612.763 99.4185 612.763 99.4185H604.079Z" fill="#1B2E59"/>
<path d="M602.28 166.153C602.28 166.153 602.254 162.794 603.732 162.533C605.211 162.273 607.359 161.464 607.654 166.153H602.28Z" fill="#22356B"/>
<path d="M609.908 166.153C609.908 166.153 609.882 162.794 611.361 162.533C612.841 162.273 614.982 161.464 615.283 166.153H609.908Z" fill="#22356B"/>
<path d="M599.819 130.347C598.954 132.362 598.383 134.491 598.126 136.667H619.004C619.004 136.667 617.092 130.522 615.377 129.843C613.663 129.164 599.819 130.347 599.819 130.347Z" fill="#993530"/>
<path d="M625.302 166.148C625.276 166.15 625.25 166.15 625.223 166.148C625.125 166.153 625.028 166.124 624.947 166.067C624.867 166.01 624.808 165.928 624.781 165.833L619.768 144.275L619.404 142.704L621.118 142.63L621.678 145.569L625.542 165.848C625.547 165.884 625.545 165.92 625.536 165.955C625.526 165.989 625.51 166.022 625.487 166.05C625.465 166.078 625.437 166.101 625.405 166.118C625.373 166.135 625.338 166.145 625.302 166.148Z" fill="#E5BD9E"/>
<path d="M599.83 142.708L599.006 146.256L594.452 165.838C594.425 165.932 594.366 166.014 594.286 166.072C594.206 166.129 594.108 166.157 594.01 166.153C593.983 166.154 593.957 166.154 593.931 166.153C593.895 166.149 593.861 166.139 593.83 166.122C593.798 166.106 593.771 166.083 593.748 166.055C593.726 166.027 593.71 165.996 593.7 165.962C593.69 165.927 593.688 165.892 593.692 165.857L597.81 144.231L598.115 142.633L599.83 142.708Z" fill="#E5BD9E"/>
<path d="M599.83 142.708L599.006 146.256C598.981 145.849 598.86 145.453 598.653 145.101C598.445 144.749 598.157 144.451 597.812 144.231L598.117 142.633L599.83 142.708Z" fill="#CC9E7F"/>
<path d="M621.68 145.577C620.833 144.333 619.804 144.333 619.771 144.284L619.407 142.714L621.121 142.64L621.68 145.577Z" fill="#CC9E7F"/>
<path d="M596.42 142.864H621.243C621.832 142.864 622.397 142.631 622.814 142.217C623.231 141.802 623.465 141.24 623.465 140.653V138.879C623.465 138.293 623.231 137.73 622.814 137.316C622.397 136.901 621.832 136.668 621.243 136.668H596.42C595.831 136.668 595.266 136.901 594.85 137.315C594.433 137.73 594.199 138.292 594.199 138.878V140.653C594.199 140.944 594.256 141.231 594.368 141.499C594.479 141.767 594.643 142.011 594.849 142.217C595.056 142.422 595.3 142.585 595.57 142.696C595.84 142.807 596.129 142.864 596.42 142.864Z" fill="#FF9924"/>
<path d="M617.519 129.377C616.784 125.304 614.643 120.668 614.643 120.668C616.2 114.173 614.609 106.87 614.609 106.87C613.752 106.641 612.879 106.474 611.998 106.372C611.888 105.793 611.573 104.049 611.44 102.548C611.425 102.374 611.412 102.203 611.401 102.038C611.375 101.66 611.375 101.281 611.401 100.903L610.303 100.975L605.785 101.275L605.593 101.287C605.593 101.287 605.621 101.691 605.628 102.298C605.642 103.39 605.588 105.137 605.196 106.391C603.251 106.591 601.934 106.874 601.934 106.874C600.662 107.089 600.934 114.968 603.31 121.093C604.405 123.913 601.309 128.276 601.309 129.379C601.309 130.483 617.786 130.849 617.519 129.377Z" fill="#FFB27D"/>
<path d="M611.44 102.545C611.015 103.043 609.946 104.111 608.583 104.134C606.808 104.165 605.624 102.295 605.624 102.295C605.652 101.951 605.704 101.61 605.78 101.273L610.299 100.973C610.684 101.308 611.052 101.663 611.402 102.035C611.41 102.201 611.423 102.371 611.44 102.545Z" fill="#EF9E67"/>
<path d="M608.548 103.077C607.357 103.069 606.218 102.591 605.38 101.75C604.542 100.908 604.074 99.7702 604.077 98.5855V94.8418C604.076 94.044 604.391 93.2779 604.956 92.7109C605.52 92.144 606.287 91.8223 607.089 91.816H609.8C610.602 91.8223 611.369 92.144 611.933 92.7109C612.497 93.2779 612.813 94.044 612.812 94.8418V98.797C612.813 99.9259 612.365 101.009 611.567 101.811C610.768 102.613 609.683 103.068 608.548 103.077Z" fill="#FFB27D"/>
<path d="M607.074 100.289C607.074 100.289 607.166 100.883 608.617 100.904C608.617 100.904 609.836 100.92 609.848 100.282C609.848 100.274 608.706 99.728 607.074 100.289Z" fill="white"/>
<path d="M623.714 126.355L619.776 124.378L618.591 123.783C618.239 122.981 617.054 120.474 616.32 119.039C616.485 119.756 616.647 120.492 616.803 121.225C616.862 121.497 616.918 121.768 616.974 122.039C617.782 125.918 618.395 129.567 618.3 130.348C618.082 132.127 611.164 131.326 609.381 130.898C607.597 130.47 603.543 131.449 600.299 131.386C598.434 131.352 599.005 126.132 599.827 121.709C600.022 120.648 600.236 119.632 600.431 118.746C599.383 120.843 598.305 123.055 598.046 123.753L595.813 124.933L593.343 126.239L593.279 126.273C593.273 126.263 593.27 126.251 593.269 126.24C593.119 125.434 595.71 110.439 599.138 107.861C599.24 107.772 599.346 107.689 599.457 107.612C600.805 106.685 602.453 106.295 604.077 106.517C604.077 106.517 605.202 108.533 608.454 108.686C609.39 108.738 610.326 108.577 611.19 108.214C612.054 107.852 612.824 107.298 613.44 106.594C613.44 106.594 615.032 106.634 616.27 107.189C616.641 107.344 616.976 107.571 617.256 107.858C618.341 109.038 623.604 119.143 623.714 126.355Z" fill="#0052B4"/>
<path d="M618.765 123.601C618.765 123.601 613.18 129.598 610.458 131.617L611.326 133.409C611.326 133.409 619.955 130.128 623.595 125.523L618.765 123.601Z" fill="#0052B4"/>
<path d="M611.162 131.196C611.162 131.196 608.864 131.842 608.49 132.565C608.116 133.288 608.274 135.333 608.853 134.992C609.432 134.651 612.63 132.54 612.63 132.54L611.162 131.196Z" fill="#0052B4"/>
<path d="M605.45 105.207C605.45 105.207 606.974 108.216 608.46 108.69C608.46 108.69 606.348 109.493 603.269 106.462C603.49 106.081 603.808 105.764 604.19 105.544C604.573 105.324 605.008 105.207 605.45 105.207Z" fill="#233F77"/>
<path d="M611.851 105.207C611.851 105.207 609.944 108.216 608.459 108.69C608.459 108.69 610.953 109.493 614.032 106.462C613.811 106.081 613.493 105.764 613.11 105.544C612.728 105.324 612.293 105.207 611.851 105.207Z" fill="#233F77"/>
<path d="M598.059 123.601C598.059 123.601 603.872 129.375 606.668 131.286L605.871 133.111C605.871 133.111 597.625 130.295 593.808 125.835L598.059 123.601Z" fill="#FFB27D"/>
<path d="M604.595 130.772C604.595 130.772 606.971 130.936 607.487 131.56C608.002 132.185 608.26 134.228 607.623 134.013C606.986 133.797 603.428 132.384 603.428 132.384L604.595 130.772Z" fill="#FFB27D"/>
<path d="M608 114.865C608.001 114.775 608.029 114.686 608.08 114.612C608.131 114.537 608.204 114.479 608.288 114.445C608.373 114.411 608.465 114.402 608.554 114.421C608.644 114.439 608.725 114.483 608.789 114.547C608.853 114.612 608.897 114.694 608.914 114.782C608.932 114.871 608.922 114.963 608.887 115.047C608.852 115.131 608.793 115.202 608.717 115.252C608.641 115.302 608.552 115.329 608.461 115.329C608.4 115.329 608.34 115.317 608.284 115.293C608.228 115.27 608.177 115.235 608.134 115.192C608.091 115.149 608.057 115.098 608.034 115.042C608.011 114.986 608 114.926 608 114.865Z" fill="#C65447"/>
<path d="M608 122.302C608.001 122.212 608.029 122.124 608.08 122.049C608.131 121.974 608.204 121.916 608.288 121.882C608.373 121.848 608.465 121.839 608.554 121.858C608.644 121.876 608.725 121.92 608.789 121.984C608.853 122.049 608.897 122.131 608.914 122.22C608.932 122.309 608.922 122.401 608.887 122.484C608.852 122.568 608.793 122.639 608.717 122.689C608.641 122.74 608.552 122.766 608.461 122.766C608.4 122.766 608.34 122.754 608.284 122.73C608.228 122.707 608.177 122.673 608.134 122.63C608.091 122.586 608.057 122.535 608.034 122.479C608.011 122.423 608 122.363 608 122.302Z" fill="#C65447"/>
<path d="M604.076 94.8413C604.076 94.8413 604.496 93.3993 605.473 93.3483C606.449 93.2973 609.682 95.227 610.621 94.3586C611.561 93.4902 612.216 93.1804 612.622 93.7888C613.029 94.3972 613.365 90.7704 613.248 90.6945C613.13 90.6186 605.318 89.5238 605.318 89.5238L603.1 91.1101L602.763 93.3496L604.076 94.8413Z" fill="#1B2E59"/>
<path d="M608.689 163.029C608.689 163.029 607.358 163.585 605.333 163.6C603.897 163.609 602.473 163.347 601.136 162.827C601.136 162.827 599.969 154.609 599.271 147.58C598.875 143.582 598.631 139.969 598.838 138.471C599.414 134.34 601.285 131.952 603.646 132.151C606.007 132.35 608.214 133.994 608.379 135.988C608.544 137.982 608.689 163.029 608.689 163.029Z" fill="#0052B4"/>
<path d="M616.76 156.931C616.337 160.336 615.992 162.819 615.992 162.819C611.826 164.444 608.438 163.045 608.438 163.045C608.438 163.045 608.49 143.692 608.61 137.654C608.626 136.824 608.644 136.244 608.664 136.003C608.821 134.012 611.023 132.357 613.383 132.146C615.743 131.934 617.623 134.321 618.211 138.451C618.593 141.141 617.542 150.619 616.76 156.931Z" fill="#0052B4"/>
<path d="M601.303 115.624L600.428 118.746C599.38 120.842 598.301 123.054 598.043 123.752L595.809 124.933L593.339 126.238H593.265C593.115 125.432 595.706 110.437 599.134 107.859C599.236 107.771 599.342 107.688 599.453 107.611C600.56 109.71 602.596 114.069 601.303 115.624Z" fill="#35488B"/>
<path d="M599.82 124.898L598.717 125.865L595.871 128.353C594.296 128.229 593.161 126.353 593.161 126.353C593.716 125.458 594.565 124.808 595.412 124.344C596.298 123.865 597.249 123.518 598.236 123.313L599.82 124.898Z" fill="#35488B"/>
<path d="M599.82 124.898L598.717 125.865C596.806 125.85 595.411 124.346 595.411 124.346C596.296 123.867 597.248 123.52 598.235 123.316L599.82 124.898Z" fill="#233F77"/>
<path d="M623.714 126.355L621.413 125.2L619.776 124.378L618.591 123.783C618.239 122.981 617.054 120.474 616.32 119.039C616.485 119.756 616.647 120.492 616.803 121.225L615.095 114.866C614.336 113.746 615.939 108.294 616.275 107.19C616.646 107.345 616.981 107.573 617.261 107.86C617.61 108.24 618.396 109.553 619.303 111.401C621.206 115.272 623.64 121.477 623.714 126.355Z" fill="#35488B"/>
<path d="M623.714 126.355C623.714 126.355 622.576 128.232 621.004 128.356L617.767 125.523L617.054 124.901L618.403 123.365C619.149 123.501 619.879 123.712 620.582 123.996C621.704 124.445 622.987 125.187 623.714 126.355Z" fill="#35488B"/>
<path d="M620.582 123.994C620.582 123.994 619.063 125.331 617.767 125.523L617.054 124.901L618.402 123.365C619.149 123.5 619.879 123.71 620.582 123.994Z" fill="#233F77"/>
<path d="M616.757 156.93C616.334 160.336 615.989 162.819 615.989 162.819C611.823 164.444 608.435 163.044 608.435 163.044C608.435 163.044 608.487 143.691 608.607 137.653C608.74 137.067 608.819 136.719 608.83 136.674C608.804 137.052 607.644 154.489 616.757 156.93Z" fill="#4395F2"/>
<path d="M605.336 163.6C603.9 163.61 602.476 163.348 601.139 162.827C601.139 162.827 599.972 154.61 599.274 147.58C599.307 147.774 601.734 159.589 605.336 163.6Z" fill="#4395F2"/>
<path d="M619.305 111.406C621.206 115.272 623.64 121.483 623.714 126.355L621.413 125.2C621.465 125.153 621.52 125.109 621.578 125.068C623.925 123.379 619.418 111.695 619.305 111.406Z" fill="#233F77"/>
<path d="M794.052 166.148C794.025 166.15 793.999 166.15 793.973 166.148C793.874 166.153 793.777 166.124 793.697 166.067C793.616 166.01 793.558 165.928 793.53 165.833L788.519 144.275L788.155 142.704L789.87 142.63L790.426 145.577L794.29 165.857C794.294 165.892 794.291 165.927 794.281 165.961C794.271 165.994 794.254 166.025 794.232 166.052C794.21 166.079 794.183 166.102 794.152 166.118C794.121 166.135 794.087 166.145 794.052 166.148Z" fill="#E5BD9E"/>
<path d="M768.576 142.708L767.751 146.257L763.199 165.838C763.17 165.932 763.112 166.014 763.032 166.071C762.951 166.128 762.854 166.157 762.756 166.153C762.73 166.155 762.703 166.155 762.677 166.153C762.641 166.15 762.607 166.14 762.575 166.123C762.544 166.106 762.516 166.083 762.493 166.055C762.471 166.027 762.455 165.996 762.445 165.961C762.435 165.927 762.432 165.891 762.437 165.856L766.556 144.236L766.862 142.639L768.576 142.708Z" fill="#E5BD9E"/>
<path d="M768.576 142.708L767.751 146.256C767.726 145.849 767.605 145.453 767.397 145.101C767.19 144.749 766.902 144.451 766.556 144.231L766.862 142.633L768.576 142.708Z" fill="#CC9E7F"/>
<path d="M790.426 145.577C789.579 144.333 788.55 144.333 788.519 144.284L788.155 142.714L789.869 142.64L790.426 145.577Z" fill="#CC9E7F"/>
<path d="M765.171 142.862H789.994C790.583 142.862 791.148 142.629 791.565 142.214C791.982 141.8 792.216 141.237 792.216 140.651V138.877C792.216 138.291 791.982 137.728 791.565 137.314C791.148 136.899 790.583 136.666 789.994 136.666H765.171C764.582 136.666 764.017 136.899 763.601 137.313C763.184 137.728 762.95 138.29 762.95 138.876V140.651C762.95 140.941 763.007 141.229 763.119 141.497C763.23 141.765 763.394 142.009 763.6 142.214C763.807 142.42 764.051 142.583 764.321 142.694C764.591 142.805 764.88 142.862 765.171 142.862Z" fill="#C65447"/>
<path d="M777.282 87.7143C777.282 87.7143 772.71 86.7339 769.904 88.8166C767.097 90.8994 768.99 95.8623 767.892 97.1525C766.794 98.4427 765.515 98.9292 766.795 101.507C768.074 104.085 765.515 104.777 765.515 106.636C765.515 108.494 768.174 109.04 768.247 110.694C768.319 112.347 776.612 113.88 780.148 113.941C783.683 114.002 787.766 109.727 788.255 108.894C788.744 108.06 790.023 104.323 788.255 102.424C786.488 100.525 787.891 97.9513 787.221 96.4807C786.551 95.0101 783.99 94.1528 784.416 92.9273C784.842 91.7018 783.928 86.3656 777.282 87.7143Z" fill="#1B2E59"/>
<path d="M786.269 129.377C785.535 125.302 783.393 120.668 783.393 120.668C784.95 114.173 783.36 106.87 783.36 106.87C782.503 106.641 781.63 106.474 780.748 106.372C780.639 105.793 780.324 104.049 780.19 102.548C780.175 102.374 780.163 102.203 780.151 102.038C780.126 101.66 780.126 101.281 780.151 100.903L779.053 100.975L774.521 101.273L774.328 101.285C774.328 101.285 774.356 101.687 774.363 102.295C774.377 103.388 774.323 105.134 773.931 106.389C771.986 106.589 770.669 106.871 770.669 106.871C769.397 107.086 769.669 114.966 772.045 121.091C773.14 123.91 770.044 128.273 770.044 129.377C770.044 130.48 786.536 130.849 786.269 129.377Z" fill="#FFB27D"/>
<path d="M780.187 102.545C779.763 103.043 778.692 104.111 777.329 104.134C775.555 104.165 774.37 102.295 774.37 102.295C774.398 101.951 774.451 101.609 774.527 101.273L779.045 100.973C779.431 101.307 779.8 101.66 780.149 102.032C780.159 102.201 780.172 102.371 780.187 102.545Z" fill="#EF9E67"/>
<path d="M777.295 103.077C774.837 103.077 772.826 101.055 772.826 98.5857V94.842C772.824 94.0441 773.139 93.2779 773.703 92.7107C774.267 92.1436 775.034 91.8215 775.836 91.8149H778.547C779.349 91.8212 780.116 92.1431 780.681 92.7103C781.245 93.2775 781.561 94.0439 781.559 94.842V98.7972C781.56 99.926 781.112 101.01 780.314 101.811C779.515 102.613 778.43 103.068 777.295 103.077Z" fill="#FFB27D"/>
<path d="M775.821 100.289C775.821 100.289 775.913 100.883 777.365 100.904C777.365 100.904 778.583 100.92 778.595 100.282C778.595 100.274 777.453 99.728 775.821 100.289Z" fill="white"/>
<path d="M777.453 90.5849C777.453 90.5849 777.064 95.2257 772.951 96.2148C768.838 97.2039 772.425 88.3766 775.202 89.0559C777.98 89.7352 777.453 90.5849 777.453 90.5849Z" fill="#1B2E59"/>
<path d="M776.962 90.5849C776.962 90.5849 777.351 95.2257 781.465 96.2148C785.578 97.2039 781.991 88.3766 779.213 89.0559C776.436 89.7352 776.962 90.5849 776.962 90.5849Z" fill="#1B2E59"/>
<path d="M765.141 136.668C765.141 136.668 768.149 129.672 770.903 128.305C773.657 126.938 784.621 128.152 786.267 129.377C787.913 130.603 790.019 136.668 790.019 136.668H765.141Z" fill="#22356B"/>
<path d="M767.893 136.668C767.893 136.668 768.965 132.471 771.351 132.288C773.737 132.105 776.922 134.324 778.055 133.726C779.188 133.129 781.348 131.631 783.354 132.013C785.36 132.395 788.378 136.668 788.378 136.668H767.893Z" fill="#1B2E59"/>
<path d="M778.588 163.106L775.742 163.143C775.742 163.143 774.409 158.583 772.934 153.262C772.798 152.764 772.657 152.259 772.518 151.75C771.3 147.313 770.061 142.604 769.456 139.698C769.311 139.001 769.206 138.372 769.145 137.799C768.572 132.804 770.811 132.388 771.347 132.289C771.944 132.181 775.599 130.494 777.643 137.017C778.332 139.214 779.311 145.268 778.943 150.924C778.589 156.361 778.588 163.106 778.588 163.106Z" fill="#FFB27D"/>
<path d="M785.245 151.239C784.059 157.422 782.731 163.281 782.731 163.281L779.428 162.955C779.428 162.955 779.217 157.701 778.71 151.907C778.67 151.446 778.674 150.98 778.658 150.513C778.497 146.115 778.381 141.568 778.449 138.742C778.619 131.8 781.374 131.934 781.98 131.965C782.585 131.996 786.527 131.196 787.027 138.011C787.195 140.228 786.277 145.855 785.245 151.239Z" fill="#FFB27D"/>
<path d="M772.933 153.261C772.796 152.763 772.655 152.258 772.516 151.749C771.298 147.313 770.06 142.604 769.455 139.697C769.31 139.001 769.205 138.371 769.143 137.799C769.206 138.005 773.22 151.099 777.237 152.072C779.815 152.696 776.021 153.071 772.933 153.261Z" fill="#EF9E67"/>
<path d="M778.71 151.906C778.693 151.445 778.674 150.98 778.658 150.513C778.496 146.115 778.381 141.567 778.449 138.742C778.449 138.742 779.272 150.724 783.359 151.643C786.06 152.251 781.862 152.087 778.71 151.906Z" fill="#EF9E67"/>
<path d="M785.246 151.238C784.572 154.749 783.854 158.153 783.358 160.445C782.982 162.187 782.732 163.283 782.732 163.283L779.231 163.013C779.231 163.013 778.927 157.7 778.947 150.92C779.417 151.136 780.486 151.368 782.639 151.351C783.373 151.345 784.236 151.313 785.246 151.238Z" fill="#E9F3FE"/>
<path d="M783.358 160.442C782.983 162.184 782.733 163.28 782.733 163.28L779.231 163.01C779.231 163.01 778.65 157.521 778.67 150.74C779.14 150.957 780.487 151.363 782.639 151.349C782.637 151.349 781.14 158.299 783.358 160.442Z" fill="#C7DCF2"/>
<path d="M782.964 165.127C782.964 165.266 782.964 165.395 782.964 165.509C782.962 165.57 782.949 165.631 782.923 165.687C782.898 165.743 782.861 165.793 782.816 165.835C782.77 165.876 782.717 165.909 782.659 165.929C782.601 165.95 782.539 165.959 782.477 165.955L779.101 165.736C778.98 165.729 778.868 165.674 778.788 165.585C778.708 165.495 778.666 165.378 778.672 165.259C778.684 165.044 778.708 164.83 778.742 164.618C778.816 164.137 778.948 163.667 779.134 163.217C779.161 163.153 779.202 163.096 779.254 163.051C779.306 163.005 779.368 162.972 779.435 162.954C781.15 162.51 782.201 162.954 782.577 163.176C782.628 163.204 782.672 163.242 782.708 163.288C782.743 163.333 782.769 163.385 782.784 163.441C782.913 163.993 782.973 164.56 782.964 165.127Z" fill="#35488B"/>
<path d="M782.649 163.32C782.649 163.32 782.274 162.617 781.156 162.422C780.831 162.364 780.496 162.387 780.182 162.489C779.868 162.591 779.585 162.769 779.356 163.007L779.158 163.162C779.189 163.125 779.96 162.027 781.187 162.241C781.533 162.291 781.861 162.427 782.139 162.636C782.418 162.846 782.638 163.123 782.779 163.441L782.649 163.32Z" fill="#35488B"/>
<path d="M782.965 165.127C782.965 165.266 782.965 165.395 782.965 165.508C782.963 165.57 782.95 165.63 782.924 165.686C782.899 165.742 782.862 165.793 782.817 165.834C782.771 165.876 782.718 165.908 782.66 165.929C782.602 165.95 782.54 165.959 782.478 165.955L779.102 165.736C778.981 165.728 778.869 165.674 778.789 165.585C778.709 165.495 778.667 165.378 778.673 165.258C778.685 165.044 778.709 164.83 778.743 164.618C778.743 164.618 778.919 165.398 780.974 165.503C782.211 165.566 782.742 165.324 782.965 165.127Z" fill="#22356B"/>
<path d="M778.588 163.105L775.711 163.562L774.977 163.687C774.977 163.687 774.147 157.695 772.517 151.755C774.606 151.977 776.718 151.691 778.671 150.923C778.906 156.977 778.588 163.105 778.588 163.105Z" fill="#E9F3FE"/>
<path d="M775.712 163.563L774.978 163.687C774.978 163.687 774.147 157.696 772.518 151.756C773.765 151.896 775.027 151.848 776.26 151.613C776.26 151.613 774.804 160.288 775.712 163.563Z" fill="#C7DCF2"/>
<path d="M779.134 164.711C779.164 164.848 779.189 164.974 779.21 165.084C779.222 165.145 779.222 165.207 779.209 165.267C779.197 165.327 779.172 165.384 779.137 165.434C779.102 165.485 779.058 165.528 779.006 165.561C778.954 165.594 778.896 165.616 778.835 165.627L775.491 166.147C775.372 166.165 775.251 166.136 775.154 166.067C775.056 165.997 774.99 165.891 774.97 165.774C774.936 165.561 774.913 165.348 774.9 165.133C774.869 164.647 774.897 164.159 774.983 163.68C774.995 163.612 775.023 163.547 775.064 163.491C775.105 163.436 775.158 163.39 775.219 163.358C776.799 162.553 777.921 162.76 778.336 162.892C778.391 162.909 778.442 162.937 778.486 162.973C778.531 163.01 778.567 163.055 778.593 163.106C778.839 163.617 779.02 164.156 779.134 164.711Z" fill="#35488B"/>
<path d="M778.437 163.017C778.437 163.011 777.926 162.411 776.786 162.465C776.456 162.479 776.134 162.574 775.849 162.742C775.564 162.91 775.326 163.145 775.154 163.427L774.993 163.621C775.017 163.577 775.535 162.338 776.778 162.281C777.125 162.254 777.474 162.316 777.791 162.46C778.108 162.605 778.383 162.827 778.59 163.107L778.437 163.017Z" fill="#35488B"/>
<path d="M779.134 164.712C779.164 164.848 779.189 164.974 779.21 165.085C779.222 165.145 779.222 165.207 779.209 165.267C779.197 165.327 779.172 165.384 779.137 165.435C779.102 165.485 779.058 165.528 779.006 165.561C778.954 165.594 778.896 165.617 778.835 165.627L775.491 166.147C775.372 166.166 775.251 166.137 775.154 166.067C775.056 165.997 774.99 165.892 774.97 165.774C774.936 165.562 774.913 165.348 774.9 165.133C774.9 165.133 775.239 165.857 777.269 165.507C778.492 165.305 778.959 164.954 779.134 164.712Z" fill="#22356B"/>
<path d="M792.466 126.355L788.53 124.377L787.345 123.782C786.993 122.981 785.808 120.474 785.075 119.038C785.3 120.024 785.52 121.04 785.728 122.039C786.535 125.917 787.148 129.566 787.053 130.348C786.836 132.127 779.925 131.326 778.135 130.898C776.345 130.47 772.296 131.449 769.053 131.387C767.187 131.352 767.76 126.131 768.582 121.708C768.777 120.648 768.989 119.632 769.184 118.746C768.136 120.841 767.058 123.055 766.799 123.753L764.566 124.933L762.032 126.273C762.027 126.263 762.024 126.251 762.022 126.24C761.869 125.443 764.462 110.439 767.891 107.858C768.579 107.312 769.372 106.911 770.221 106.681C771.071 106.451 771.958 106.396 772.83 106.52C772.83 106.52 773.955 108.534 777.207 108.686C778.143 108.738 779.079 108.577 779.943 108.215C780.807 107.853 781.577 107.3 782.193 106.597C782.193 106.597 784.912 106.664 786.009 107.858C787.106 109.053 792.357 119.143 792.466 126.355Z" fill="#0052B4"/>
<path d="M787.05 130.347C786.832 132.126 779.921 131.325 778.132 130.897C776.342 130.469 772.293 131.448 769.05 131.386C767.184 131.351 767.757 126.131 768.578 121.708C768.578 121.708 772.094 127.894 776.476 127.851C780.858 127.809 785.731 122.039 785.731 122.039C786.527 125.919 787.145 129.566 787.05 130.347Z" fill="#B5493F"/>
<path d="M787.576 123.753C787.576 123.753 780.948 128.566 777.896 130.023L778.407 131.95C778.407 131.95 787.903 130.059 792.354 126.241L787.576 123.753Z" fill="#0052B4"/>
<path d="M777.895 130.025C777.895 130.025 775.617 129.316 774.915 129.714C774.214 130.112 773.238 131.923 773.915 131.954C774.591 131.985 778.417 131.954 778.417 131.954L777.895 130.025Z" fill="#0052B4"/>
<path d="M774.2 105.207C774.2 105.207 775.724 108.216 777.21 108.69C777.21 108.69 775.098 109.493 772.019 106.462C772.24 106.081 772.558 105.765 772.941 105.544C773.323 105.324 773.758 105.208 774.2 105.207Z" fill="#E6F1FF"/>
<path d="M769.182 118.746C768.134 120.841 767.056 123.054 766.797 123.752L764.563 124.933C764.407 124.868 764.282 124.746 764.214 124.592C763.543 123.244 769.182 118.746 769.182 118.746Z" fill="#B5493F"/>
<path d="M780.536 105.182C780.536 105.182 778.695 108.217 777.209 108.687C777.209 108.687 779.603 109.66 782.682 106.629C782.682 106.635 782.104 105.216 780.536 105.182Z" fill="#E6F1FF"/>
<path d="M789.132 124.177C788.947 124.286 788.74 124.353 788.526 124.375L787.34 123.78C786.989 122.979 785.803 120.472 785.07 119.036C785.07 119.038 790.687 123.306 789.132 124.177Z" fill="#B5493F"/>
<path d="M766.796 123.753C766.796 123.753 773.424 128.566 776.476 130.023L775.965 131.95C775.965 131.95 766.469 130.059 762.018 126.241L766.796 123.753Z" fill="#FFB27D"/>
<path d="M776.478 130.025C776.478 130.025 778.756 129.316 779.458 129.714C780.159 130.112 781.135 131.923 780.458 131.954C779.782 131.985 775.956 131.954 775.956 131.954L776.478 130.025Z" fill="#FFB27D"/>
<path d="M768.567 124.898L767.464 125.865L764.619 128.353C763.043 128.229 761.908 126.354 761.908 126.354C762.464 125.459 763.312 124.809 764.159 124.345C765.045 123.866 765.996 123.519 766.983 123.315L768.567 124.898Z" fill="#E6F1FF"/>
<path d="M792.466 126.355C792.466 126.355 791.329 128.231 789.756 128.355L786.52 125.523L785.806 124.901L787.154 123.363C787.901 123.498 788.631 123.71 789.334 123.994C790.456 124.445 791.74 125.187 792.466 126.355Z" fill="#E6F1FF"/>
<path d="M789.334 123.994C789.334 123.994 787.814 125.331 786.52 125.523L785.806 124.901L787.154 123.363C787.901 123.498 788.631 123.71 789.334 123.994Z" fill="#C7DCF2"/>
<path d="M768.567 124.898L767.464 125.865C765.553 125.85 764.158 124.346 764.158 124.346C765.043 123.867 765.995 123.52 766.982 123.316L768.567 124.898Z" fill="#C7DCF2"/>
<path d="M776.995 108.677C776.995 108.629 777.01 108.583 777.037 108.543C777.064 108.503 777.102 108.473 777.146 108.455C777.19 108.437 777.239 108.432 777.286 108.441C777.333 108.451 777.376 108.474 777.41 108.508C777.444 108.542 777.467 108.585 777.476 108.631C777.485 108.678 777.48 108.727 777.462 108.771C777.443 108.815 777.412 108.852 777.373 108.879C777.333 108.905 777.286 108.919 777.238 108.919C777.173 108.919 777.112 108.893 777.066 108.848C777.021 108.802 776.995 108.741 776.995 108.677Z" fill="#35488B"/>
<path d="M776.747 114.865C776.748 114.774 776.775 114.686 776.827 114.611C776.878 114.536 776.95 114.478 777.034 114.444C777.119 114.409 777.211 114.401 777.301 114.419C777.39 114.437 777.472 114.481 777.536 114.546C777.6 114.61 777.644 114.692 777.661 114.781C777.679 114.87 777.669 114.962 777.634 115.045C777.599 115.129 777.54 115.201 777.464 115.251C777.389 115.301 777.3 115.328 777.208 115.328C777.086 115.327 776.968 115.278 776.882 115.191C776.795 115.105 776.747 114.987 776.747 114.865Z" fill="#A53D38"/>
<path d="M776.747 122.302C776.748 122.212 776.776 122.124 776.827 122.049C776.878 121.974 776.951 121.916 777.035 121.882C777.12 121.848 777.212 121.839 777.302 121.858C777.391 121.876 777.472 121.92 777.537 121.984C777.601 122.049 777.644 122.131 777.661 122.22C777.679 122.309 777.669 122.401 777.634 122.484C777.599 122.568 777.54 122.639 777.464 122.689C777.389 122.74 777.3 122.766 777.208 122.766C777.148 122.766 777.087 122.754 777.031 122.73C776.975 122.707 776.924 122.673 776.881 122.63C776.838 122.586 776.804 122.535 776.781 122.479C776.758 122.423 776.747 122.363 776.747 122.302Z" fill="#A53D38"/>
<path d="M683.365 87.6095C683.365 87.6095 677.622 86.4176 676.541 91.342C675.646 95.4179 679.953 100.665 679.953 100.665H687.582C687.582 100.665 696.107 86.6043 683.365 87.6095Z" fill="#1B2E59"/>
<path d="M700.505 166.148C700.479 166.15 700.452 166.15 700.426 166.148C700.328 166.153 700.23 166.124 700.15 166.067C700.07 166.01 700.011 165.928 699.983 165.833L694.972 144.275L694.608 142.704L696.323 142.63L696.882 145.569L700.748 165.848C700.752 165.884 700.75 165.92 700.74 165.955C700.731 165.99 700.714 166.022 700.691 166.05C700.668 166.078 700.64 166.101 700.608 166.118C700.576 166.135 700.541 166.145 700.505 166.148Z" fill="#E5BD9E"/>
<path d="M675.029 142.708L674.204 146.257L669.652 165.838C669.624 165.933 669.565 166.015 669.485 166.072C669.405 166.129 669.307 166.157 669.209 166.153C669.183 166.155 669.156 166.155 669.13 166.153C669.095 166.15 669.06 166.14 669.028 166.123C668.997 166.106 668.969 166.083 668.947 166.055C668.924 166.027 668.908 165.996 668.898 165.961C668.888 165.927 668.886 165.891 668.89 165.856L673.01 144.236L673.315 142.639L675.029 142.708Z" fill="#E5BD9E"/>
<path d="M675.029 142.708L674.204 146.256C674.179 145.849 674.058 145.453 673.851 145.101C673.643 144.749 673.355 144.451 673.01 144.231L673.315 142.633L675.029 142.708Z" fill="#CC9E7F"/>
<path d="M696.88 145.577C696.033 144.333 695.004 144.333 694.973 144.284L694.609 142.714L696.323 142.64L696.88 145.577Z" fill="#CC9E7F"/>
<path d="M696.443 142.862H671.622C670.394 142.862 669.399 141.872 669.399 140.651V138.877C669.399 137.656 670.394 136.666 671.622 136.666H696.443C697.67 136.666 698.665 137.656 698.665 138.877V140.651C698.665 141.872 697.67 142.862 696.443 142.862Z" fill="#C65447"/>
<path d="M692.723 129.377C691.989 125.302 689.847 120.668 689.847 120.668C691.404 114.173 689.814 106.87 689.814 106.87C688.957 106.641 688.084 106.474 687.202 106.372C687.093 105.793 686.778 104.049 686.644 102.548C686.629 102.374 686.617 102.203 686.605 102.038C686.58 101.66 686.58 101.281 686.605 100.903L685.507 100.975L680.99 101.275L680.797 101.287C680.797 101.287 680.825 101.689 680.832 102.298C680.846 103.39 680.792 105.137 680.4 106.391C678.455 106.591 677.139 106.874 677.139 106.874C675.866 107.089 676.139 114.968 678.515 121.093C679.611 123.913 676.514 128.276 676.514 129.379C676.514 130.483 692.99 130.849 692.723 129.377Z" fill="#FFB27D"/>
<path d="M686.641 102.545C686.217 103.043 685.14 104.111 683.783 104.134C682.01 104.165 680.824 102.295 680.824 102.295C680.852 101.951 680.905 101.609 680.982 101.273L685.499 100.973C685.885 101.307 686.254 101.66 686.604 102.032C686.613 102.201 686.626 102.371 686.641 102.545Z" fill="#EF9E67"/>
<path d="M683.747 103.077C681.289 103.077 679.278 101.055 679.278 98.5857V94.842C679.276 94.0441 679.591 93.2779 680.155 92.7107C680.719 92.1436 681.486 91.8215 682.288 91.8149H685C685.802 91.8215 686.569 92.1436 687.133 92.7107C687.697 93.2779 688.013 94.0441 688.011 94.842V98.7972C688.012 99.926 687.565 101.01 686.766 101.811C685.967 102.613 684.882 103.068 683.747 103.077Z" fill="#FFB27D"/>
<path d="M671.595 136.668C671.595 136.668 674.597 129.672 677.357 128.305C680.117 126.938 691.075 128.152 692.721 129.377C694.367 130.603 696.473 136.668 696.473 136.668H671.595Z" fill="#22356B"/>
<path d="M674.341 136.668C674.341 136.668 675.413 132.471 677.8 132.288C680.187 132.105 683.371 134.324 684.503 133.726C685.635 133.129 687.796 131.631 689.802 132.013C691.808 132.395 694.827 136.668 694.827 136.668H674.341Z" fill="#1B2E59"/>
<path d="M685.042 163.106L682.196 163.143C682.196 163.143 680.863 158.583 679.388 153.262C679.252 152.764 679.111 152.259 678.972 151.75C677.754 147.313 676.516 142.604 675.91 139.698C675.765 139.001 675.66 138.372 675.599 137.799C675.026 132.804 677.265 132.388 677.801 132.289C678.398 132.181 682.053 130.494 684.097 137.017C684.786 139.214 685.765 145.268 685.397 150.924C685.044 156.361 685.042 163.106 685.042 163.106Z" fill="#FFB27D"/>
<path d="M691.699 151.239C690.513 157.422 689.185 163.281 689.185 163.281L685.882 162.955C685.882 162.955 685.671 157.701 685.164 151.907C685.124 151.446 685.128 150.98 685.112 150.513C684.951 146.115 684.836 141.568 684.903 138.742C685.073 131.8 687.828 131.934 688.434 131.965C689.039 131.996 692.982 131.196 693.486 138.011C693.649 140.228 692.732 145.855 691.699 151.239Z" fill="#FFB27D"/>
<path d="M679.386 153.261C679.249 152.763 679.108 152.258 678.969 151.749C677.751 147.313 676.513 142.604 675.908 139.697C675.763 139.001 675.658 138.371 675.596 137.799C675.659 138.005 679.673 151.099 683.69 152.072C686.268 152.696 682.475 153.071 679.386 153.261Z" fill="#EF9E67"/>
<path d="M685.164 151.906C685.147 151.445 685.128 150.98 685.112 150.513C684.95 146.115 684.835 141.567 684.903 138.742C684.903 138.742 685.726 150.724 689.813 151.643C692.514 152.251 688.316 152.087 685.164 151.906Z" fill="#EF9E67"/>
<path d="M691.696 151.238C691.022 154.749 690.304 158.153 689.808 160.445C689.433 162.187 689.183 163.283 689.183 163.283L685.681 163.013C685.681 163.013 685.377 157.7 685.397 150.92C685.867 151.136 686.938 151.368 689.089 151.351C689.823 151.345 690.686 151.313 691.696 151.238Z" fill="#E9F3FE"/>
<path d="M689.808 160.442C689.432 162.184 689.182 163.28 689.182 163.28L685.681 163.01C685.681 163.01 685.099 157.521 685.119 150.74C685.589 150.957 686.937 151.363 689.089 151.349C689.086 151.349 687.589 158.299 689.808 160.442Z" fill="#C7DCF2"/>
<path d="M689.417 165.127C689.417 165.266 689.417 165.395 689.417 165.509C689.416 165.57 689.402 165.631 689.376 165.687C689.351 165.743 689.314 165.793 689.269 165.835C689.224 165.876 689.17 165.909 689.112 165.929C689.054 165.95 688.992 165.959 688.93 165.955L685.554 165.736C685.434 165.729 685.321 165.675 685.241 165.585C685.161 165.496 685.12 165.378 685.126 165.259C685.165 164.557 685.322 163.867 685.589 163.217C685.615 163.153 685.656 163.096 685.708 163.051C685.759 163.005 685.821 162.972 685.888 162.954C687.604 162.51 688.654 162.954 689.031 163.176C689.081 163.204 689.125 163.242 689.161 163.288C689.196 163.333 689.222 163.385 689.237 163.441C689.366 163.993 689.427 164.56 689.417 165.127Z" fill="#35488B"/>
<path d="M689.102 163.32C689.102 163.32 688.727 162.617 687.609 162.422C687.284 162.364 686.949 162.387 686.635 162.489C686.321 162.591 686.038 162.769 685.809 163.007L685.611 163.162C685.643 163.125 686.414 162.027 687.64 162.241C687.986 162.291 688.314 162.427 688.592 162.636C688.871 162.846 689.091 163.123 689.232 163.441L689.102 163.32Z" fill="#35488B"/>
<path d="M689.413 165.127C689.413 165.266 689.413 165.395 689.413 165.508C689.412 165.57 689.398 165.63 689.372 165.686C689.347 165.742 689.311 165.793 689.265 165.834C689.22 165.876 689.166 165.908 689.108 165.929C689.05 165.95 688.988 165.959 688.927 165.955L685.55 165.736C685.43 165.729 685.317 165.674 685.237 165.585C685.157 165.495 685.116 165.378 685.122 165.258C685.134 165.044 685.157 164.83 685.191 164.618C685.191 164.618 685.367 165.398 687.423 165.503C688.66 165.566 689.19 165.324 689.413 165.127Z" fill="#22356B"/>
<path d="M685.041 163.105L682.165 163.562L681.431 163.687C681.431 163.687 680.6 157.695 678.971 151.755C681.06 151.977 683.172 151.691 685.126 150.923C685.36 156.977 685.041 163.105 685.041 163.105Z" fill="#E9F3FE"/>
<path d="M682.165 163.563L681.431 163.687C681.431 163.687 680.601 157.696 678.971 151.756C680.218 151.896 681.48 151.848 682.713 151.613C682.713 151.613 681.257 160.288 682.165 163.563Z" fill="#C7DCF2"/>
<path d="M685.586 164.711C685.616 164.848 685.641 164.974 685.662 165.084C685.674 165.145 685.674 165.207 685.661 165.267C685.649 165.327 685.624 165.384 685.589 165.434C685.554 165.485 685.51 165.528 685.458 165.561C685.406 165.594 685.348 165.616 685.287 165.627L681.943 166.147C681.824 166.165 681.703 166.136 681.606 166.067C681.508 165.997 681.443 165.891 681.423 165.774C681.388 165.561 681.365 165.348 681.353 165.133C681.321 164.647 681.349 164.159 681.435 163.68C681.447 163.612 681.475 163.547 681.516 163.492C681.557 163.436 681.61 163.39 681.671 163.358C683.251 162.553 684.373 162.76 684.788 162.892C684.843 162.909 684.895 162.937 684.939 162.973C684.983 163.01 685.02 163.055 685.047 163.106C685.291 163.618 685.472 164.157 685.586 164.711Z" fill="#35488B"/>
<path d="M684.889 163.017C684.889 163.011 684.378 162.411 683.238 162.465C682.909 162.48 682.588 162.576 682.304 162.744C682.021 162.911 681.783 163.146 681.612 163.427L681.451 163.621C681.475 163.577 681.993 162.338 683.236 162.281C683.583 162.254 683.932 162.316 684.249 162.46C684.566 162.605 684.841 162.827 685.048 163.107L684.889 163.017Z" fill="#35488B"/>
<path d="M685.586 164.712C685.616 164.848 685.641 164.974 685.662 165.085C685.674 165.145 685.674 165.207 685.661 165.267C685.649 165.327 685.624 165.384 685.589 165.435C685.554 165.485 685.51 165.528 685.458 165.561C685.406 165.594 685.348 165.617 685.287 165.627L681.943 166.147C681.824 166.166 681.703 166.137 681.606 166.067C681.508 165.997 681.443 165.892 681.423 165.774C681.388 165.562 681.365 165.348 681.353 165.133C681.353 165.133 681.691 165.857 683.721 165.507C684.944 165.305 685.411 164.954 685.586 164.712Z" fill="#22356B"/>
<path d="M698.914 126.355L694.976 124.377L693.792 123.782C693.44 122.981 692.255 120.474 691.522 119.038C691.747 120.024 691.968 121.04 692.174 122.039C692.982 125.917 693.595 129.566 693.5 130.348C693.283 132.127 686.365 131.326 684.582 130.898C682.799 130.47 678.743 131.449 675.5 131.387C673.634 131.352 674.207 126.131 675.029 121.708C675.224 120.648 675.436 119.632 675.631 118.746C674.583 120.841 673.505 123.055 673.246 123.753L671.013 124.933L668.48 126.273C668.474 126.263 668.471 126.251 668.469 126.24C668.316 125.443 670.909 110.439 674.338 107.858C675.026 107.312 675.819 106.911 676.668 106.681C677.518 106.451 678.405 106.396 679.277 106.52C679.277 106.52 680.402 108.534 683.654 108.686C684.59 108.738 685.526 108.577 686.39 108.215C687.254 107.853 688.024 107.3 688.64 106.597C688.64 106.597 691.358 106.664 692.455 107.858C693.551 109.053 698.805 119.143 698.914 126.355Z" fill="#0052B4"/>
<path d="M693.504 130.347C693.286 132.126 686.369 131.325 684.586 130.897C682.802 130.469 678.747 131.448 675.504 131.386C673.638 131.351 674.211 126.131 675.032 121.708C675.032 121.708 678.548 127.894 682.93 127.851C687.312 127.809 692.185 122.039 692.185 122.039C692.982 125.919 693.599 129.566 693.504 130.347Z" fill="#B5493F"/>
<path d="M694.03 123.753C694.03 123.753 687.402 128.566 684.35 130.023L684.861 131.95C684.861 131.95 694.357 130.059 698.808 126.241L694.03 123.753Z" fill="#FFB27D"/>
<path d="M684.351 130.025C684.351 130.025 682.072 129.316 681.371 129.714C680.669 130.112 679.694 131.923 680.364 131.954C681.034 131.985 684.866 131.954 684.866 131.954L684.351 130.025Z" fill="#0052B4"/>
<path d="M680.649 105.207C680.649 105.207 682.175 108.216 683.659 108.69C683.659 108.69 681.547 109.493 678.468 106.462C678.689 106.081 679.007 105.765 679.39 105.544C679.773 105.324 680.207 105.208 680.649 105.207Z" fill="#E6F1FF"/>
<path d="M675.632 118.746C674.584 120.841 673.506 123.054 673.247 123.752L671.013 124.933C670.857 124.868 670.732 124.746 670.664 124.592C669.993 123.244 675.632 118.746 675.632 118.746Z" fill="#B5493F"/>
<path d="M687.053 105.207C687.053 105.207 685.145 108.216 683.66 108.69C683.66 108.69 686.153 109.493 689.232 106.462C689.012 106.081 688.694 105.765 688.311 105.544C687.929 105.324 687.495 105.207 687.053 105.207Z" fill="#E6F1FF"/>
<path d="M695.586 124.177C695.401 124.286 695.193 124.354 694.979 124.375L693.794 123.78C693.443 122.979 692.257 120.472 691.524 119.036C691.524 119.038 697.141 123.306 695.586 124.177Z" fill="#B5493F"/>
<path d="M673.25 123.753C673.25 123.753 679.878 128.566 682.93 130.023L682.419 131.95C682.419 131.95 672.924 130.059 668.473 126.241L673.25 123.753Z" fill="#FFB27D"/>
<path d="M682.927 130.025C682.927 130.025 685.205 129.316 685.907 129.714C686.609 130.112 687.584 131.923 686.907 131.954C686.231 131.985 682.405 131.954 682.405 131.954L682.927 130.025Z" fill="#FFB27D"/>
<path d="M675.021 124.898L673.917 125.865L671.072 128.353C669.497 128.229 668.361 126.354 668.361 126.354C668.917 125.459 669.765 124.809 670.612 124.345C671.498 123.866 672.449 123.519 673.436 123.315L675.021 124.898Z" fill="#E6F1FF"/>
<path d="M698.914 126.355C698.914 126.355 697.777 128.231 696.204 128.355L692.969 125.523L692.255 124.901L693.604 123.363C694.351 123.498 695.082 123.71 695.785 123.994C696.904 124.445 698.189 125.187 698.914 126.355Z" fill="#E6F1FF"/>
<path d="M695.787 123.994C695.787 123.994 694.266 125.331 692.972 125.523L692.258 124.901L693.607 123.363C694.354 123.498 695.084 123.71 695.787 123.994Z" fill="#C7DCF2"/>
<path d="M675.021 124.898L673.917 125.865C672.007 125.85 670.611 124.346 670.611 124.346C671.497 123.867 672.448 123.52 673.435 123.316L675.021 124.898Z" fill="#C7DCF2"/>
<path d="M683.448 108.677C683.449 108.629 683.463 108.583 683.49 108.543C683.517 108.503 683.555 108.473 683.599 108.455C683.643 108.437 683.692 108.432 683.739 108.441C683.786 108.451 683.829 108.474 683.863 108.508C683.897 108.542 683.92 108.585 683.929 108.631C683.938 108.678 683.933 108.727 683.915 108.771C683.897 108.815 683.866 108.852 683.826 108.879C683.786 108.905 683.739 108.919 683.691 108.919C683.627 108.917 683.566 108.891 683.521 108.846C683.476 108.801 683.45 108.74 683.448 108.677Z" fill="#35488B"/>
<path d="M683.2 114.865C683.201 114.774 683.229 114.686 683.28 114.611C683.331 114.536 683.403 114.478 683.488 114.444C683.572 114.409 683.665 114.401 683.754 114.419C683.843 114.437 683.925 114.481 683.989 114.546C684.053 114.61 684.097 114.692 684.114 114.781C684.132 114.87 684.123 114.962 684.088 115.045C684.053 115.129 683.993 115.201 683.918 115.251C683.842 115.301 683.753 115.328 683.662 115.328C683.539 115.327 683.421 115.278 683.335 115.191C683.248 115.105 683.2 114.987 683.2 114.865Z" fill="#A53D38"/>
<path d="M683.2 122.302C683.201 122.212 683.229 122.124 683.28 122.049C683.332 121.974 683.404 121.916 683.488 121.882C683.573 121.848 683.665 121.839 683.755 121.858C683.844 121.876 683.926 121.92 683.99 121.984C684.054 122.049 684.097 122.131 684.115 122.22C684.132 122.309 684.123 122.401 684.087 122.484C684.052 122.568 683.993 122.639 683.917 122.689C683.842 122.74 683.753 122.766 683.662 122.766C683.601 122.766 683.54 122.754 683.484 122.73C683.428 122.707 683.377 122.673 683.334 122.63C683.291 122.586 683.257 122.535 683.234 122.479C683.211 122.423 683.2 122.363 683.2 122.302Z" fill="#A53D38"/>
<path d="M677.823 93.1639C677.823 93.1639 672.384 93.7188 673.831 99.0115C675.278 104.304 674.535 105.211 674.535 105.211C674.959 105.188 675.359 105.011 675.661 104.713C675.661 104.713 675.411 105.114 674.466 106.601C672.474 109.745 677.548 111.586 677.548 111.586C677.548 111.586 676.737 109.511 678.112 108.784C680.738 107.393 681.845 103.779 680.198 102.182C676.42 98.5163 677.823 93.1639 677.823 93.1639Z" fill="#1B2E59"/>
<path d="M689.227 93.1639C689.227 93.1639 694.667 93.7188 693.22 99.0115C691.773 104.304 692.515 105.211 692.515 105.211C692.091 105.188 691.691 105.011 691.389 104.713C691.389 104.713 691.639 105.114 692.585 106.601C694.577 109.745 689.502 111.586 689.502 111.586C689.502 111.586 690.312 109.511 688.939 108.784C686.313 107.393 685.205 103.779 686.853 102.182C690.636 98.5163 689.227 93.1639 689.227 93.1639Z" fill="#1B2E59"/>
<path d="M679.278 95.8341C679.278 95.8341 682.23 96.1464 683.216 95.4945C683.216 95.4945 683.864 93.5399 683.216 93.0298C683.216 93.0298 684.428 94.0786 684.202 95.4658C684.202 95.4658 686.042 95.4099 686.453 95.1834C686.453 95.1834 686.328 94.305 686.085 93.9393C686.085 93.9393 686.718 94.6472 686.858 95.1573C686.858 95.1573 688.211 95.2991 688.493 94.7841C688.774 94.269 686.323 88.0656 682.432 89.7987C678.542 91.5318 678.159 94.7579 679.278 95.8341Z" fill="#1B2E59"/>
<path d="M676.441 93.0412C676.441 93.0412 675.878 93.3796 675.916 93.7392C675.953 94.0987 677.281 95.3441 677.281 95.3441L676.441 93.0412Z" fill="#C65447"/>
<path d="M690.335 93.0412C690.335 93.0412 690.896 93.3796 690.859 93.7392C690.821 94.0987 689.494 95.3441 689.494 95.3441L690.335 93.0412Z" fill="#C65447"/>
<path d="M578.806 88.7196C578.806 88.7196 575.638 86.8795 573.428 88.1797C571.218 89.4798 568.522 97.6092 568.936 99.2751C569.35 100.941 571.147 102.19 571.147 102.19C571.147 102.19 570.888 101.205 571.147 100.517C571.147 100.517 571.411 102.412 572.838 103.005C574.265 103.599 579.618 104.036 580.717 103.769C581.979 103.46 582.738 103.051 583.272 101.638C583.806 100.224 587.108 87.4493 578.806 88.7196Z" fill="#1B2E59"/>
<path d="M593.75 166.148C593.723 166.15 593.697 166.15 593.671 166.148C593.572 166.153 593.475 166.124 593.395 166.067C593.314 166.01 593.256 165.928 593.228 165.833L588.216 144.275L587.852 142.704L589.565 142.63L590.125 145.569L593.99 165.848C593.995 165.884 593.992 165.92 593.983 165.955C593.973 165.989 593.957 166.021 593.934 166.049C593.912 166.077 593.884 166.101 593.852 166.118C593.82 166.135 593.786 166.145 593.75 166.148Z" fill="#E5BD9E"/>
<path d="M568.271 142.708L567.447 146.257L562.894 165.838C562.866 165.933 562.808 166.015 562.727 166.072C562.647 166.129 562.55 166.158 562.451 166.153C562.425 166.155 562.399 166.155 562.372 166.153C562.337 166.15 562.302 166.14 562.271 166.123C562.239 166.106 562.211 166.083 562.189 166.055C562.167 166.027 562.15 165.995 562.141 165.961C562.131 165.927 562.129 165.891 562.133 165.856L566.252 144.236L566.558 142.639L568.271 142.708Z" fill="#E5BD9E"/>
<path d="M568.271 142.708L567.447 146.256C567.422 145.849 567.301 145.453 567.093 145.101C566.885 144.749 566.597 144.451 566.252 144.231L566.558 142.633L568.271 142.708Z" fill="#CC9E7F"/>
<path d="M590.121 145.577C589.273 144.333 588.245 144.333 588.213 144.284L587.849 142.714L589.562 142.64L590.121 145.577Z" fill="#CC9E7F"/>
<path d="M589.689 142.862H564.868C563.64 142.862 562.646 141.872 562.646 140.651V138.877C562.646 137.656 563.64 136.666 564.868 136.666H589.689C590.916 136.666 591.911 137.656 591.911 138.877V140.651C591.911 141.872 590.916 142.862 589.689 142.862Z" fill="#C65447"/>
<path d="M585.966 129.377C585.23 125.302 583.089 120.668 583.089 120.668C584.647 114.173 583.057 106.87 583.057 106.87C582.2 106.641 581.327 106.474 580.445 106.372C580.335 105.793 580.02 104.049 579.886 102.548C579.873 102.374 579.86 102.203 579.849 102.038C579.823 101.66 579.823 101.281 579.849 100.903L578.752 100.975L574.234 101.275L574.042 101.287C574.042 101.287 574.07 101.689 574.077 102.298C574.091 103.39 574.037 105.137 573.643 106.391C571.7 106.591 570.383 106.874 570.383 106.874C569.111 107.089 569.382 114.968 571.759 121.093C572.853 123.913 569.758 128.276 569.758 129.379C569.758 130.483 586.231 130.849 585.966 129.377Z" fill="#FFB27D"/>
<path d="M579.882 102.545C579.458 103.043 578.389 104.111 577.025 104.134C575.251 104.165 574.066 102.295 574.066 102.295C574.094 101.951 574.147 101.609 574.223 101.273L578.741 100.973C579.127 101.308 579.495 101.663 579.844 102.035C579.856 102.201 579.868 102.371 579.882 102.545Z" fill="#EF9E67"/>
<path d="M576.272 103.051C573.845 102.652 572.186 100.33 572.582 97.8919L573.183 94.193C573.309 93.406 573.744 92.7011 574.392 92.2329C575.041 91.7648 575.849 91.5717 576.641 91.696L579.317 92.1352C580.108 92.2719 580.812 92.7136 581.278 93.3643C581.743 94.015 581.931 94.8221 581.802 95.6101L581.167 99.5106C580.989 100.626 580.374 101.625 579.456 102.29C578.538 102.954 577.393 103.228 576.272 103.051Z" fill="#FFB27D"/>
<path d="M575.267 100.059C575.267 100.059 575.267 100.66 576.692 100.915C576.692 100.915 577.892 101.131 578.007 100.496C578.007 100.496 576.968 99.7719 575.267 100.059Z" fill="white"/>
<path d="M564.84 136.668C564.84 136.668 567.848 129.672 570.602 128.305C573.356 126.938 584.321 128.152 585.967 129.377C587.613 130.603 589.719 136.668 589.719 136.668H564.84Z" fill="#22356B"/>
<path d="M567.583 136.668C567.583 136.668 568.656 132.471 571.042 132.288C573.428 132.105 576.614 134.324 577.745 133.726C578.877 133.129 581.04 131.631 583.046 132.013C585.052 132.395 588.069 136.668 588.069 136.668H567.583Z" fill="#1B2E59"/>
<path d="M585.586 150.744C585.541 157.04 585.296 163.043 585.296 163.043L581.991 163.326C581.991 163.326 580.83 158.2 579.283 152.594C579.158 152.15 579.079 151.691 578.978 151.234C578.024 146.939 577.086 142.489 576.641 139.698C575.551 132.84 578.284 132.468 578.884 132.389C579.485 132.309 583.219 130.801 584.947 137.409C585.509 139.555 585.624 145.261 585.586 150.744Z" fill="#FFB27D"/>
<path d="M579.283 152.593C579.181 152.143 579.079 151.69 578.978 151.233C578.024 146.938 577.086 142.488 576.64 139.697C576.64 139.697 579.621 151.329 583.805 151.484C586.572 151.589 582.414 152.195 579.283 152.593Z" fill="#EF9E67"/>
<path d="M585.588 150.743C585.563 154.317 585.472 157.796 585.399 160.137C585.344 161.919 585.298 163.042 585.298 163.042L581.804 163.416C581.804 163.416 580.543 158.249 579.334 151.577C579.834 151.702 580.929 151.737 583.042 151.329C583.766 151.189 584.609 150.999 585.588 150.743Z" fill="#E9F3FE"/>
<path d="M585.397 160.134C585.342 161.915 585.296 163.039 585.296 163.039L581.802 163.412C581.802 163.412 580.236 158.122 579.028 151.451C579.528 151.575 580.928 151.733 583.04 151.326C583.04 151.328 582.827 158.436 585.397 160.134Z" fill="#C7DCF2"/>
<path d="M585.858 164.816C585.883 164.953 585.904 165.08 585.922 165.189C585.932 165.25 585.929 165.312 585.914 165.372C585.899 165.432 585.873 165.488 585.835 165.537C585.798 165.586 585.752 165.627 585.698 165.658C585.645 165.689 585.586 165.709 585.524 165.717L582.165 166.12C582.046 166.135 581.925 166.102 581.83 166.028C581.735 165.955 581.673 165.847 581.657 165.728C581.57 165.031 581.599 164.324 581.742 163.635C581.757 163.568 581.787 163.504 581.831 163.449C581.874 163.395 581.929 163.351 581.993 163.322C583.6 162.575 584.713 162.824 585.119 162.966C585.174 162.985 585.224 163.014 585.267 163.052C585.31 163.091 585.345 163.137 585.369 163.189C585.598 163.709 585.763 164.256 585.858 164.816Z" fill="#35488B"/>
<path d="M585.227 163.098C585.227 163.098 584.736 162.476 583.595 162.487C583.264 162.49 582.94 162.574 582.649 162.732C582.359 162.889 582.113 163.116 581.932 163.392L581.764 163.581C581.789 163.538 582.348 162.318 583.594 162.304C583.942 162.289 584.289 162.363 584.601 162.518C584.913 162.674 585.179 162.906 585.376 163.192L585.227 163.098Z" fill="#35488B"/>
<path d="M585.858 164.815C585.883 164.952 585.904 165.079 585.922 165.189C585.932 165.249 585.929 165.311 585.914 165.371C585.899 165.431 585.873 165.487 585.835 165.536C585.798 165.585 585.752 165.627 585.698 165.658C585.645 165.689 585.586 165.708 585.524 165.716L582.165 166.119C582.046 166.134 581.925 166.101 581.83 166.028C581.735 165.954 581.673 165.846 581.657 165.727C581.63 165.514 581.614 165.299 581.61 165.084C581.61 165.084 581.924 165.821 583.964 165.547C585.197 165.385 585.676 165.052 585.858 164.815Z" fill="#22356B"/>
<path d="M573.011 163.679L570.26 162.942C570.26 162.942 570.201 158.19 570.21 152.666C570.21 152.149 570.21 151.626 570.21 151.098C570.229 146.495 570.3 141.625 570.498 138.663C570.545 137.952 570.616 137.318 570.708 136.75C571.498 131.785 573.765 131.991 574.308 132.041C574.911 132.098 578.885 131.465 579.103 138.296C579.177 140.597 578.493 146.692 576.621 152.039C574.823 157.185 573.011 163.679 573.011 163.679Z" fill="#FFB27D"/>
<path d="M570.207 152.669C570.207 152.153 570.207 151.629 570.207 151.102C570.225 146.498 570.297 141.628 570.494 138.666C570.542 137.956 570.613 137.321 570.704 136.754C570.704 136.969 571.059 150.666 574.666 152.692C576.985 153.988 573.234 153.322 570.207 152.669Z" fill="#EF9E67"/>
<path d="M573.01 163.679L570.116 163.339L569.379 163.253C569.379 163.253 570.188 157.257 570.214 151.098C571.377 151.57 572.604 151.866 573.856 151.975C574.794 152.033 575.736 152.01 576.671 151.904C575.269 157.804 573.01 163.679 573.01 163.679Z" fill="#E9F3FE"/>
<path d="M570.114 163.339L569.376 163.253C569.376 163.253 570.185 157.257 570.212 151.098C571.375 151.57 572.602 151.866 573.854 151.975C573.854 151.975 570.12 159.939 570.114 163.339Z" fill="#C7DCF2"/>
<path d="M573.228 165.289C573.238 165.429 573.244 165.557 573.248 165.671C573.25 165.733 573.24 165.794 573.219 165.851C573.197 165.909 573.164 165.962 573.121 166.006C573.078 166.051 573.027 166.086 572.971 166.111C572.914 166.135 572.853 166.148 572.791 166.149H569.407C569.287 166.149 569.172 166.102 569.086 166.018C569 165.934 568.951 165.821 568.949 165.701C568.947 165.486 568.956 165.27 568.977 165.055C569.02 164.571 569.121 164.093 569.278 163.632C569.3 163.567 569.337 163.508 569.386 163.459C569.435 163.41 569.494 163.373 569.56 163.351C571.243 162.795 572.32 163.172 572.71 163.365C572.762 163.389 572.808 163.424 572.847 163.467C572.885 163.509 572.915 163.559 572.934 163.613C573.1 164.158 573.199 164.721 573.228 165.289Z" fill="#35488B"/>
<path d="M572.796 163.508C572.796 163.508 572.381 162.831 571.247 162.71C570.918 162.674 570.586 162.718 570.279 162.841C569.972 162.963 569.7 163.16 569.488 163.412L569.301 163.58C569.331 163.54 570.029 162.394 571.267 162.527C571.615 162.554 571.95 162.668 572.242 162.859C572.533 163.05 572.771 163.312 572.933 163.62L572.796 163.508Z" fill="#35488B"/>
<path d="M573.228 165.289C573.238 165.429 573.244 165.557 573.248 165.671C573.25 165.733 573.24 165.794 573.219 165.852C573.197 165.909 573.164 165.962 573.121 166.006C573.078 166.051 573.027 166.086 572.971 166.111C572.914 166.136 572.853 166.148 572.791 166.149H569.407C569.287 166.149 569.172 166.102 569.086 166.018C569 165.935 568.951 165.821 568.949 165.701C568.947 165.486 568.956 165.27 568.977 165.055C568.977 165.055 569.203 165.824 571.262 165.793C572.505 165.777 573.019 165.502 573.228 165.289Z" fill="#22356B"/>
<path d="M590.918 124.053L586.333 124.128C585.983 123.327 585.37 120.655 584.765 119.043C584.99 120.028 585.211 121.045 585.418 122.044C586.227 125.922 586.84 129.571 586.745 130.352C586.527 132.132 579.609 131.33 577.825 130.902C576.042 130.474 571.987 131.453 568.743 131.391C566.879 131.356 567.45 126.136 568.272 121.713C568.468 120.653 568.679 119.636 568.876 118.751C567.828 120.846 567.351 123.43 567.097 124.128C567.097 124.128 562.619 123.837 562.618 123.825C562.466 123.03 564.152 110.437 567.583 107.863C568.271 107.316 569.063 106.915 569.913 106.685C570.762 106.455 571.65 106.4 572.521 106.524C572.521 106.524 573.647 108.538 576.899 108.69C577.835 108.743 578.771 108.582 579.635 108.22C580.499 107.858 581.268 107.304 581.885 106.601C581.885 106.601 584.602 106.668 585.7 107.863C586.798 109.057 589.227 113.341 590.918 124.053Z" fill="#C65447"/>
<path d="M586.745 130.347C586.528 132.126 579.609 131.325 577.826 130.897C576.042 130.469 571.988 131.448 568.744 131.386C566.879 131.351 567.451 126.131 568.272 121.708C568.272 121.708 571.788 127.894 576.17 127.851C580.552 127.809 585.418 122.039 585.418 122.039C586.227 125.919 586.84 129.566 586.745 130.347Z" fill="#B5493F"/>
<path d="M573.895 105.207C573.895 105.207 575.42 108.216 576.905 108.69C576.905 108.69 574.793 109.493 571.714 106.462C571.935 106.081 572.253 105.764 572.636 105.544C573.019 105.324 573.453 105.207 573.895 105.207Z" fill="#E6F1FF"/>
<path d="M580.301 105.207C580.301 105.207 578.394 108.216 576.91 108.69C576.91 108.69 579.403 109.493 582.482 106.462C582.261 106.081 581.943 105.765 581.56 105.544C581.178 105.324 580.744 105.208 580.301 105.207Z" fill="#E6F1FF"/>
<path d="M576.691 108.677C576.691 108.629 576.705 108.582 576.732 108.543C576.759 108.503 576.797 108.473 576.841 108.455C576.886 108.437 576.935 108.432 576.982 108.442C577.029 108.451 577.072 108.474 577.106 108.508C577.139 108.542 577.162 108.585 577.171 108.632C577.18 108.679 577.175 108.728 577.157 108.772C577.138 108.816 577.107 108.853 577.067 108.879C577.027 108.906 576.98 108.92 576.932 108.919C576.9 108.919 576.869 108.913 576.839 108.901C576.81 108.888 576.783 108.87 576.761 108.848C576.738 108.825 576.721 108.799 576.709 108.769C576.697 108.74 576.69 108.708 576.691 108.677Z" fill="#35488B"/>
<path d="M576.443 114.865C576.444 114.774 576.472 114.686 576.523 114.611C576.574 114.536 576.646 114.478 576.731 114.444C576.815 114.409 576.908 114.401 576.997 114.419C577.086 114.437 577.168 114.481 577.232 114.546C577.297 114.61 577.34 114.692 577.358 114.781C577.375 114.87 577.366 114.962 577.331 115.045C577.296 115.129 577.237 115.201 577.161 115.251C577.085 115.301 576.996 115.328 576.905 115.328C576.782 115.327 576.664 115.278 576.578 115.191C576.491 115.105 576.443 114.987 576.443 114.865Z" fill="#A53D38"/>
<path d="M576.443 122.302C576.444 122.212 576.472 122.124 576.523 122.049C576.575 121.974 576.647 121.916 576.732 121.882C576.816 121.848 576.909 121.839 576.998 121.858C577.087 121.876 577.169 121.92 577.233 121.984C577.297 122.049 577.34 122.131 577.358 122.22C577.375 122.309 577.366 122.401 577.331 122.484C577.296 122.568 577.236 122.639 577.161 122.689C577.085 122.74 576.996 122.766 576.905 122.766C576.844 122.766 576.784 122.754 576.727 122.73C576.671 122.707 576.62 122.673 576.577 122.63C576.535 122.586 576.501 122.535 576.478 122.479C576.455 122.423 576.443 122.363 576.443 122.302Z" fill="#A53D38"/>
<path d="M590.11 136.219L590.122 134.925C590.122 134.925 591.901 123.935 590.669 123.594C589.437 123.254 587.12 124.424 587.12 124.424L587.849 134.925C587.837 135.166 587.801 135.406 587.743 135.64C587.711 135.64 587.68 135.653 587.65 135.662C586.441 136.007 587.167 138.507 588.069 138.551C588.731 138.583 589.586 137.586 590.166 137.244C590.418 137.095 590.344 136.396 590.11 136.219Z" fill="#FFB27D"/>
<path d="M586.333 124.123C586.333 124.123 586.047 125.672 586.753 125.898C587.46 126.125 591.069 126.238 591.294 125.898C591.519 125.558 591.207 122.958 590.669 122.767C590.131 122.575 586.67 123.285 586.333 124.123Z" fill="#B5493F"/>
<path d="M565.781 135.661C565.751 135.653 565.72 135.646 565.69 135.64C565.632 135.406 565.596 135.166 565.584 134.925L566.313 124.424C566.313 124.424 563.994 123.254 562.762 123.594C561.53 123.934 563.31 134.925 563.31 134.925L563.321 136.219C563.087 136.395 563.014 137.09 563.266 137.244C563.845 137.586 564.701 138.583 565.362 138.55C566.264 138.507 566.991 136.007 565.781 135.661Z" fill="#FFB27D"/>
<path d="M567.1 124.123C567.1 124.123 567.386 125.672 566.68 125.898C565.973 126.125 562.364 126.238 562.139 125.898C561.914 125.558 562.227 122.958 562.764 122.767C563.3 122.575 566.765 123.285 567.1 124.123Z" fill="#B5493F"/>
<path d="M578.461 92.6008C578.461 92.6008 578.737 95.0892 580.337 96.0385C580.337 96.0385 579.771 94.538 580.157 93.9134C580.157 93.9134 580.48 96.7215 581.438 97.8263C581.438 97.8263 583.924 92.5237 579.464 91.5035C575.005 90.4833 572.809 92.561 572.504 94.2618C572.323 95.3023 572.376 96.3696 572.66 97.3871C572.66 97.3871 573.667 94.3091 575.786 93.7119C577.906 93.1147 578.461 92.6008 578.461 92.6008Z" fill="#1B2E59"/>
<path d="M826.325 70.1162C826.325 70.1162 818.673 85.5164 817.696 87.9811C817.321 88.9291 803.721 84.7288 803.721 84.7288C803.721 84.7288 802.564 83.7211 802.459 82.5939C802.432 82.3077 802.091 81.9967 801.592 81.6993L797.519 82.8688C797.924 83.8878 798.432 84.8856 798.717 85.1419C799.308 85.6781 802.844 87.2309 802.844 87.2309C805.027 89.3733 818.61 94.885 819.823 94.2293C821.098 93.54 826.99 82.8713 829.271 80.0545C831.552 77.2377 830.648 68.0036 826.325 70.1162Z" fill="#FFB27D"/>
<path d="M787.439 68.7021L783.322 69.8057L791.049 84.437L800.929 82.0445L809.193 79.0722L803.556 64.1037L795.574 70.2349L787.439 68.7021Z" fill="#A03732"/>
<path d="M800.931 81.7883L795.303 68.2419C795.303 68.2419 788.457 65.7896 784.047 68.7184L791.237 83.1594C791.237 83.1594 795.1 80.2804 800.931 81.7883Z" fill="#E9F3FE"/>
<path d="M803.98 62.9975C798.218 62.6566 795.303 68.2416 795.303 68.2416L800.931 81.7881C802.693 78.7137 809.878 78.4599 809.878 78.4599L803.98 62.9975Z" fill="#C7DCF2"/>
<path d="M809.086 158.517C809.086 158.517 809.899 162.374 809.086 163.431C808.273 164.489 806.056 164.74 806.106 166.256H816.849C816.849 166.256 816.483 163.542 815.348 162.386C814.212 161.231 813.086 154.483 813.086 154.483L809.086 158.517Z" fill="#163560"/>
<path d="M824.026 158.517C824.026 158.517 824.84 162.374 824.026 163.431C823.212 164.489 820.997 164.74 821.047 166.256H831.79C831.79 166.256 831.425 163.542 830.289 162.386C829.154 161.231 828.027 154.483 828.027 154.483L824.026 158.517Z" fill="#163560"/>
<path d="M845.952 125.414C845.203 125.574 844.444 125.689 843.681 125.758C839.804 126.178 832.541 126.504 825.556 126.577C823.073 126.604 820.627 126.6 818.377 126.559H818.349C816.395 126.522 814.597 126.456 813.046 126.359C811.335 126.253 809.939 126.102 809.011 125.908C808.335 125.769 807.905 125.605 807.773 125.411C806.661 123.793 803.896 120.568 804.249 118.115C804.318 117.601 804.541 117.119 804.891 116.734C804.891 116.734 806.789 116.014 809.768 114.992C815.682 112.98 825.866 109.81 834.02 108.784C838.834 108.177 842.941 108.316 845.044 109.884C852.518 115.455 850.714 124.25 845.952 125.414Z" fill="#B23636"/>
<path d="M829.251 156.363C828.077 158.92 824.199 159.045 824.199 159.045C823.316 157.027 822.496 155.102 821.739 153.27C816.468 140.54 814.054 132.128 813.082 126.594C813.068 126.514 813.056 126.44 813.043 126.361C811.534 117.518 813.773 116.173 813.773 116.173L813.908 116.145C815.752 115.76 817.675 116.114 819.257 117.131C821.929 118.818 823.958 122.232 825.48 126.375C825.503 126.441 825.528 126.509 825.553 126.579C827.51 131.992 828.608 138.613 829.143 144.246C829.738 150.486 829.639 155.517 829.251 156.363Z" fill="#892828"/>
<path d="M842.416 67.5023C842.416 67.5023 842.775 67.5434 843.315 67.6268C844.618 67.8432 846.971 68.3446 847.825 69.2367C849.034 70.4983 855.377 87.491 855.046 89.9557C854.715 92.4204 847.612 96.2064 845.199 96.4975L842.416 67.4961V67.5023Z" fill="#0052B4"/>
<path d="M833.861 70.038C833.836 70.0592 833.881 73.6934 837.009 72.912C839.064 72.3994 843.024 68.9705 842.271 67.2685C841.912 66.4598 839.904 64.5786 838.58 59.6244L838.222 59.8023L832.219 62.802C832.219 62.802 832.908 64.7665 833.424 66.6589C833.863 68.239 834.176 69.7693 833.861 70.038Z" fill="#F4A269"/>
<path d="M829.651 64.0845C829.651 64.0845 838.678 66.1299 839.862 60.4602C841.047 54.7906 843.01 51.2372 837.295 49.6883C831.579 48.1393 830.006 50.0615 829.152 51.8618C828.298 53.6621 827.332 63.4002 829.651 64.0845Z" fill="#FFB27D"/>
<path d="M847.824 117.122C847.824 117.122 842.311 121.641 842.633 124.768C842.954 127.894 838.275 124.146 838.275 124.146L840.407 117.125L847.824 117.122Z" fill="#A03732"/>
<path d="M836.677 60.661C838.836 61.3988 842.135 57.14 843.08 54.6579C844.24 51.6184 841.58 45.5867 834.639 46.4676C833.239 46.6391 831.897 47.1236 830.713 47.8847C829.194 48.88 825.152 51.4567 831.685 54.2063C834.137 55.2389 834.795 60.0178 836.677 60.661Z" fill="#1C468A"/>
<path d="M837.488 125.415C835.873 125.812 831.11 126.161 825.483 126.375C823.208 126.461 820.788 126.527 818.377 126.562C818.367 126.563 818.357 126.563 818.348 126.562C816.571 126.588 814.795 126.602 813.084 126.594C811.941 126.594 810.833 126.579 809.762 126.557C810.19 127.741 810.576 128.982 810.925 130.258C813.938 141.286 814.127 154.908 813.463 156.35C812.287 158.906 808.409 159.031 808.409 159.031C804.767 150.695 802.23 143.945 800.489 138.488C794.418 119.479 797.988 116.161 797.988 116.161C797.988 116.161 801.114 114.226 805.734 113.043C814.322 110.844 827.323 107.211 834.03 108.793C835.048 109.03 835.913 109.391 836.588 109.894C838.673 111.445 840.032 113.253 840.81 115.064C842.819 119.769 840.923 124.575 837.488 125.415Z" fill="#A03732"/>
<path d="M850.149 115.392C849.676 116.055 848.871 116.636 847.826 117.122C840.353 120.625 822.46 112.875 823.314 107.688C823.615 105.861 825.03 105.873 826.135 102.89C826.992 100.574 827.609 98.404 827.58 96.2814C827.571 95.3702 827.43 94.4651 827.161 93.594C826.488 91.4292 825.871 87.948 825.478 84.2379C824.81 77.9188 825.313 71.5139 826.815 69.2669C827.027 68.9497 839.375 65.4747 848.961 68.6113C848.961 68.6113 849.719 79.8 847.529 91.4752C847.233 93.0317 847.373 94.639 847.932 96.1222C849.672 100.745 853.109 111.239 850.149 115.392Z" fill="#0052B4"/>
<path d="M831.243 93.7549C832.535 89.7001 832.908 84.6725 830.281 79.4769C828.385 80.7433 826.752 82.3601 825.47 84.2395C825.862 87.9496 826.48 91.4308 827.153 93.5956C827.429 94.4894 827.57 95.4189 827.572 96.3539C827.572 96.4074 827.572 96.4597 827.572 96.5132C827.572 96.6376 827.572 96.7558 827.563 96.8777C827.563 96.93 827.563 96.9822 827.563 97.0332C827.555 97.1925 827.543 97.353 827.527 97.5123C827.527 97.5645 827.516 97.6168 827.511 97.6678C827.498 97.7922 827.483 97.9054 827.467 98.0248C827.46 98.0858 827.451 98.1493 827.441 98.209C827.419 98.3545 827.396 98.4989 827.371 98.6444C827.361 98.6979 827.349 98.7514 827.339 98.8062C827.314 98.9306 827.288 99.0687 827.259 99.1993C827.246 99.2653 827.231 99.3312 827.216 99.3971C827.188 99.5216 827.161 99.6335 827.131 99.753C827.117 99.8077 827.104 99.8612 827.091 99.916C827.049 100.076 827.006 100.237 826.966 100.399C826.947 100.465 826.928 100.531 826.908 100.598C826.875 100.711 826.84 100.825 826.805 100.94L826.747 101.133C826.695 101.297 826.642 101.461 826.587 101.63L826.53 101.796C826.487 101.92 826.443 102.053 826.396 102.183L826.333 102.364C826.27 102.54 826.208 102.717 826.14 102.896C825.036 105.882 822.381 107.4 822.388 108.904C822.4 112.793 840.367 120.63 847.841 117.128C830.401 119.814 831.24 93.8644 831.243 93.7549Z" fill="#4395F2"/>
<path d="M828.15 51.4527C828.15 51.4527 829.091 58.257 834.343 60.7304C834.343 60.7304 830.914 52.8474 832.651 51.3432C834.388 49.8391 828.15 51.4527 828.15 51.4527Z" fill="#1C468A"/>
<path d="M833.328 57.2131C833.328 57.2131 834.229 55.3693 835.065 55.7201C835.902 56.071 834.744 59.052 834.19 59.0184C833.636 58.9848 833.328 57.2131 833.328 57.2131Z" fill="#FFB27D"/>
<path d="M832.276 79.9471C830.876 80.9773 828.466 86.4578 825.101 90.3135C825.096 90.3218 825.09 90.3297 825.083 90.3371C824.469 91.0498 823.794 91.7087 823.066 92.3066C817.475 96.8192 813.219 95.5974 813.219 95.5974C810.376 94.0211 809.467 90.7664 809.193 88.558C809.095 87.8095 809.058 87.0542 809.084 86.2998C809.084 86.2998 816.051 87.5776 816.769 87.4805C817.487 87.3835 824.581 70.8585 825.545 69.8731C827.631 67.7494 836.183 67.2193 836.183 67.2193C838.445 66.2589 833.943 78.7167 832.276 79.9471Z" fill="#0052B4"/>
<path d="M825.103 90.3141C825.097 90.3224 825.091 90.3303 825.085 90.3378C824.47 91.0504 823.796 91.7093 823.068 92.3073C817.476 96.8198 813.22 95.5981 813.22 95.5981C810.378 94.0217 809.469 90.767 809.195 88.5586C810.098 89.4245 816.608 95.1887 825.103 90.3141Z" fill="#4395F2"/>
<path d="M855.605 68.2081C851.771 65.3938 847.711 61.9673 848.535 59.0237C850.446 52.2007 844.847 43.922 839.031 46.3631C835.904 47.6744 833.37 64.809 837.676 69.5244C837.295 68.5738 836.875 66.893 836.701 63.907C836.73 64.2019 837.122 67.9729 838.348 70.1278C844.622 78.4313 833.324 78.5234 837.888 86.0668C837.888 86.0668 838.277 88.6795 848.619 85.8266C850.442 85.3309 852.076 84.3055 853.31 82.8817C854.173 81.8789 854.959 80.6609 855.061 79.4789C855.022 81.1987 854.49 82.8715 853.527 84.3001C856.678 83.1803 858.729 80.0077 859.154 76.3673C859.481 73.6438 858.839 70.5832 855.605 68.2081Z" fill="#1C468A"/>
<path d="M854.669 127.893H810.191C810.191 127.893 811.226 123.563 836.985 124.207C839.031 124.259 840.84 124.345 842.442 124.456C855.098 125.349 854.669 127.893 854.669 127.893Z" fill="#E5BD9E"/>
<path d="M820.793 166.793C825.967 143.651 824.636 129.455 824.63 129.277C824.618 128.92 825.361 128.597 825.756 128.586C826.151 128.574 827.947 128.481 828.153 128.786C828.423 129.185 829.466 146.678 821.756 166.793H820.793Z" fill="#A06B47"/>
<path d="M808.524 166.793C813.697 143.651 812.368 129.455 812.361 129.277C812.348 128.92 813.09 128.597 813.487 128.586C813.883 128.574 815.677 128.481 815.883 128.786C816.154 129.185 817.196 146.678 809.486 166.793H808.524Z" fill="#A06B47"/>
<path d="M855.338 128.585C855.339 128.767 855.268 128.942 855.139 129.072C855.011 129.201 854.837 129.276 854.654 129.278H809.932C809.842 129.278 809.753 129.26 809.67 129.225C809.587 129.19 809.512 129.139 809.45 129.074C809.355 128.977 809.29 128.855 809.263 128.722C809.236 128.59 809.25 128.452 809.301 128.327C809.352 128.201 809.439 128.093 809.551 128.016C809.663 127.94 809.796 127.897 809.932 127.894H854.654C854.744 127.895 854.833 127.913 854.916 127.948C854.999 127.983 855.074 128.034 855.137 128.098C855.266 128.228 855.338 128.403 855.338 128.585Z" fill="#CE9A78"/>
<path d="M843.815 127.893H810.186C810.186 127.893 811.224 123.563 837.063 124.207C839.116 124.259 840.932 124.345 842.537 124.456C842.457 124.997 842.323 126.759 843.815 127.893Z" fill="#D6A685"/>
<path d="M855.338 128.585C855.337 128.769 855.264 128.944 855.133 129.074C855.003 129.204 854.826 129.277 854.641 129.278H830.778C830.687 129.278 830.597 129.26 830.512 129.225C830.428 129.19 830.352 129.139 830.288 129.074C830.19 128.978 830.123 128.855 830.096 128.72C830.069 128.586 830.082 128.447 830.135 128.32C830.187 128.194 830.277 128.086 830.391 128.01C830.506 127.934 830.641 127.894 830.778 127.894H854.641C854.826 127.895 855.003 127.968 855.133 128.098C855.198 128.162 855.249 128.238 855.284 128.321C855.319 128.405 855.338 128.494 855.338 128.585Z" fill="#7C4F31"/>
<path d="M853.953 128.67H853.963C854.363 128.67 854.683 128.372 854.677 128.016C854.27 102.647 864.033 83.1414 864.132 82.9474C864.297 82.6226 864.265 81.8985 863.212 81.8052C862.293 81.7256 861.723 81.9296 861.558 82.2519C861.533 82.3004 859.354 86.9424 856.93 95.0107C854.699 102.45 853.007 114.63 853.222 128.035C853.234 128.388 853.558 128.67 853.953 128.67Z" fill="#7C4F31"/>
<path d="M832.184 128.67H832.194C832.594 128.67 832.913 128.372 832.908 128.016C832.502 102.647 842.264 83.1414 842.363 82.9474C842.527 82.6226 842.495 81.8985 841.444 81.8052C840.524 81.7256 839.954 81.9296 839.789 82.2519C839.764 82.3004 837.585 86.9424 835.162 95.0107C832.932 102.45 831.24 114.63 831.455 128.035C831.465 128.388 831.789 128.67 832.184 128.67Z" fill="#7C4F31"/>
<path d="M860.4 90.7388C860.563 90.7448 860.723 90.6945 860.852 90.5966C860.982 90.4986 861.074 90.359 861.113 90.2013C861.18 89.8505 860.916 89.5171 860.521 89.4548C859.896 89.359 845.088 87.1382 838.46 88.9908C838.085 89.0978 837.866 89.4598 837.986 89.7995C838.057 89.9701 838.189 90.1081 838.358 90.1863C838.526 90.2646 838.717 90.2775 838.894 90.2225C845.188 88.462 860.127 90.704 860.28 90.7264C860.319 90.7334 860.359 90.7376 860.4 90.7388Z" fill="#7C4F31"/>
<path d="M858.71 95.0108C858.873 95.0167 859.033 94.9665 859.163 94.8685C859.293 94.7706 859.385 94.6309 859.423 94.4733C859.491 94.1224 859.225 93.789 858.832 93.7268C858.206 93.631 843.398 91.4089 836.771 93.2627C836.389 93.3697 836.177 93.7318 836.297 94.0727C836.368 94.243 836.5 94.3807 836.668 94.4588C836.836 94.5368 837.028 94.5495 837.205 94.4944C843.501 92.7327 858.438 94.9759 858.59 94.9921C858.63 95.0013 858.67 95.0075 858.71 95.0108Z" fill="#7C4F31"/>
<path d="M858.438 166.793C853.266 143.651 854.595 129.455 854.603 129.277C854.615 128.92 853.872 128.597 853.477 128.586C853.082 128.574 851.287 128.481 851.081 128.786C850.81 129.185 849.768 146.678 857.478 166.793H858.438Z" fill="#7C4F31"/>
<path d="M838.274 166.793C833.102 143.372 834.431 129 834.438 128.819C834.451 128.458 833.708 128.131 833.312 128.12C832.916 128.108 831.122 128.013 830.915 128.321C830.644 128.725 829.603 146.434 837.313 166.793H838.274Z" fill="#7C4F31"/>
<path d="M791.621 82.9084L791.926 83.5417C791.926 83.5417 798.76 81.6941 800.931 81.7874C800.929 81.7874 796.083 80.1799 791.621 82.9084Z" fill="#C7DCF2"/>
<path d="M800.931 81.7879L808.76 78.9015L808.623 78.5581C808.623 78.5581 802.608 78.9015 800.931 81.7879Z" fill="#ADC7E0"/>
<path d="M802.541 82.9961C802.541 82.9961 802.401 80.9246 801.174 80.1781C800.631 79.8869 800.187 79.6655 799.887 79.5224C799.831 79.4966 799.769 79.486 799.707 79.4917C799.645 79.4974 799.586 79.5192 799.535 79.5549C799.484 79.5906 799.444 79.6389 799.418 79.695C799.392 79.7511 799.381 79.813 799.387 79.8745C799.42 80.1593 799.553 80.4234 799.762 80.621C800.387 81.2505 800.55 82.2981 800.55 82.2981L802.541 82.9961Z" fill="#FFB27D"/>
</svg>
