<svg width="126" height="16" viewBox="0 0 126 16" fill="none" xmlns="http://www.w3.org/2000/svg">
<g id="Logo">
<path id="Vector" d="M76.7911 11.1759C76.773 11.1577 76.7729 11.1577 76.7729 11.1577L76.7911 11.1759Z" fill="black"/>
<g id="Group">
<path id="Vector_2" d="M95.1085 5.46145C94.2687 8.98186 90.927 11.7239 87.3228 11.7769C85.2233 11.8123 83.1237 11.7946 81.0242 11.7946H80.5168C80.0969 13.0861 79.677 14.3598 79.2571 15.6335H75.4604C75.4954 15.4919 75.5129 15.3858 75.5479 15.2797C75.8804 14.2182 77.4725 9.831 78.1723 7.81428C78.9247 7.81428 80.7443 7.83198 80.8143 7.83198C83.4212 7.83198 86.0281 7.83198 88.6175 7.83198C89.8597 7.83198 90.8745 7.00052 91.1369 5.81526C91.3119 5.03688 90.892 4.4354 90.1222 4.34695C89.9122 4.32926 89.7197 4.32926 89.5098 4.32926C86.2205 4.32926 82.9313 4.32926 79.6595 4.32926H79.0996C80.4118 2.9671 81.6541 1.67569 82.9313 0.348907H83.3162C85.7481 0.348907 88.1976 0.331212 90.6295 0.366593C91.2419 0.366593 91.8543 0.419667 92.4491 0.578881C94.6362 1.14498 95.6859 3.09093 95.1085 5.46145Z" fill="#8B4B9F"/>
<path id="Vector_3" d="M103.804 0.313437C104.294 0.45496 104.714 0.84415 104.976 1.26872C105.291 1.79944 105.414 2.38322 105.571 2.9847C105.746 3.63925 105.886 4.31148 106.061 4.98372C106.376 6.31051 106.709 7.63729 107.041 8.96408C107.566 11.0869 108.091 13.2098 108.598 15.3327C108.616 15.4034 108.633 15.4919 108.651 15.6157H94.1464C95.3711 14.2712 96.5434 12.9798 97.7331 11.6707H102.894C102.422 9.8486 101.967 8.06187 101.477 6.18668C98.5729 9.37096 95.7036 12.5022 92.8342 15.6334H88.0928C88.2502 15.4565 88.3552 15.315 88.4777 15.1911C92.2918 10.9808 96.1235 6.78815 99.9201 2.57781C100.427 2.01172 100.97 1.48101 101.582 1.03875C102.125 0.649557 102.754 0.242676 103.454 0.242676C103.559 0.260366 103.682 0.278056 103.804 0.313437Z" fill="#8B4B9F"/>
<path id="Vector_4" d="M106.901 0.366943H111.8C112.658 2.41904 113.515 4.45344 114.407 6.55861C116.542 4.47113 118.624 2.41904 120.723 0.366943H125.5C125.535 0.402324 125.57 0.455398 125.605 0.490779C125.482 0.579231 125.325 0.649993 125.22 0.756136C121.896 3.94042 118.571 7.12471 115.264 10.309C115.09 10.4859 114.932 10.7159 114.862 10.9458C114.337 12.5026 113.847 14.0594 113.34 15.6161H109.508C109.561 15.4392 109.596 15.2977 109.648 15.1385C110.103 13.7409 110.541 12.3434 111.013 10.9458C111.118 10.6451 111.1 10.3974 110.978 10.1144C109.666 7.00087 108.371 3.88735 107.059 0.756136C107.006 0.667684 106.971 0.543848 106.901 0.366943Z" fill="#8B4B9F"/>
</g>
<g id="Group_2">
<path id="Vector_5" d="M64.7876 10.7336C64.9101 11.2289 65.6974 14.0771 66.0998 15.51C66.0648 15.5454 66.0123 15.5807 65.9773 15.6161H51.4556C52.6803 14.2716 53.835 12.9802 55.0248 11.6711H60.2036C59.7312 9.83134 59.2588 8.0446 58.7689 6.16941C55.8471 9.35369 52.9777 12.5026 50.1259 15.6161H45.4194C45.5069 15.4923 45.5594 15.4038 45.6294 15.3331C49.6885 10.8574 53.7476 6.364 57.8241 1.906C58.2091 1.48143 58.6465 1.12762 59.1189 0.844572C59.8887 0.38462 60.8685 -0.0222611 61.6908 0.579215C62.3381 1.03917 62.6181 1.83524 62.7755 2.57824C62.9855 3.55121 63.2479 4.5065 63.4754 5.47948C63.9303 7.23084 64.3677 8.98219 64.7876 10.7336Z" fill="#500B75"/>
<path id="Vector_6" d="M18.4936 15.7575C17.7412 15.5275 17.2863 14.9968 16.8664 14.3423C15.4667 12.1133 14.0146 9.90198 12.5974 7.69067C12.5099 7.56684 12.4224 7.443 12.3 7.26609C11.3902 10.0966 10.4804 12.8563 9.58807 15.6337H5.77393C5.80892 15.5099 5.82641 15.386 5.86141 15.2799C7.2436 10.9988 8.62578 6.7 10.043 2.41891C10.2004 1.92357 10.4979 1.42824 10.8478 1.05674C11.8276 -0.00468531 13.2972 0.154527 14.0846 1.37517C15.5892 3.69262 17.0764 6.01007 18.5636 8.32752C18.6335 8.45136 18.721 8.57519 18.8435 8.7521C19.7708 5.90393 20.6631 3.14421 21.5729 0.36681H25.387C25.352 0.526025 25.317 0.667548 25.2645 0.809072C23.8824 5.07248 22.5002 9.33588 21.118 13.5816C21.083 13.7054 21.0305 13.847 20.978 13.9708C20.6631 14.8022 20.1557 15.4568 19.2984 15.7575H18.4936Z" fill="#500B75"/>
<path id="Vector_7" d="M0 15.5096C0.384914 14.3774 0.769827 13.2629 1.13724 12.1308C2.37947 8.3273 3.60419 4.52385 4.82892 0.720395C4.86391 0.614252 4.8989 0.508111 4.95139 0.384277H8.78303C7.1209 5.49682 5.47627 10.574 3.83164 15.6865H0C0 15.6158 0 15.5627 0 15.5096Z" fill="#500B75"/>
<path id="Vector_8" d="M42.3228 0.348877C41.0106 1.72873 39.7859 3.02014 38.5612 4.32923C37.5639 4.32923 36.5841 4.32923 35.6043 4.32923C33.6798 4.32923 31.7552 4.32923 29.8306 4.32923C29.1483 4.32923 28.8509 4.68304 28.9033 5.42604C29.0958 5.46142 29.3232 5.53218 29.5507 5.53218C31.5278 5.53218 33.5048 5.51449 35.4819 5.54987C36.1292 5.56757 36.7941 5.62064 37.4064 5.81523C39.191 6.36364 39.9959 8.00885 39.541 10.0079C38.8061 13.2452 35.9018 15.6158 32.5425 15.6511C28.8334 15.6865 25.1242 15.6688 21.415 15.6688C21.345 15.6688 21.2926 15.6511 21.1001 15.6511C22.3773 14.3067 23.602 13.0153 24.8268 11.7238C25.4566 11.7238 26.104 11.7238 26.7338 11.7238C29.0083 11.7238 31.2828 11.7415 33.5573 11.7062C34.0647 11.7062 34.5721 11.5293 35.0445 11.3524C35.2894 11.2639 35.5169 11.0162 35.6568 10.7686C35.9543 10.2909 35.7968 9.86635 35.2894 9.67175C34.9745 9.56561 34.6246 9.51254 34.2921 9.51254C32.2451 9.49485 30.1981 9.51254 28.151 9.49485C27.6436 9.49485 27.1362 9.44178 26.6638 9.31794C24.8967 8.87568 24.0044 7.38968 24.4069 5.58525C25.0192 2.77247 27.5911 0.52578 30.4605 0.401946C32.1401 0.331184 33.8372 0.366563 35.5344 0.366563C37.5989 0.366563 39.6809 0.366563 41.7455 0.366563C41.9029 0.348873 42.0604 0.348877 42.3228 0.348877Z" fill="#500B75"/>
<path id="Vector_9" d="M44.6851 15.6338H40.836C42.0607 11.8481 43.2679 8.11538 44.4926 4.32961H39.3838C40.6785 2.94976 41.9032 1.67604 43.1279 0.366943H55.8126C54.5354 1.71142 53.2932 3.00283 52.0509 4.31192H48.3418C47.1345 8.09768 45.9098 11.8481 44.6851 15.6338Z" fill="#500B75"/>
</g>
<g id="Group_3">
<path id="Vector_10" d="M74.83 7.88487C74.725 7.95563 74.62 8.02639 74.5151 8.11485C71.8207 10.5031 68.7589 13.2451 66.047 15.651C64.8222 15.651 63.1601 15.651 62.0054 15.651L70.7359 7.8318C70.6309 7.6372 70.5435 7.49568 70.4735 7.35415C69.1438 5.00132 67.8141 2.64849 66.5019 0.295654H70.5959C70.6484 0.437178 70.7009 0.578705 70.7709 0.702538C72.0306 2.93154 73.3078 5.17823 74.5676 7.40723C74.6375 7.53106 74.7075 7.65489 74.83 7.88487Z" fill="#FD6E66"/>
<path id="Vector_11" d="M80.6221 7.77909L72.0665 15.5098L71.9265 15.6336C70.7018 15.6513 69.0922 15.6336 67.9199 15.5452C70.8068 12.9801 73.6936 10.3973 76.5805 7.81446C75.1458 5.28473 73.7286 2.77268 72.3114 0.27832H76.4055C76.458 0.384463 76.493 0.508301 76.563 0.614444C77.8577 2.91421 79.0999 5.09013 80.3771 7.38989C80.4471 7.49604 80.3771 7.40759 80.6221 7.77909Z" fill="#FB6518"/>
</g>
</g>
</svg>
