<svg width="287" height="111" viewBox="0 0 287 111" fill="none" xmlns="http://www.w3.org/2000/svg">
<path d="M29.7361 0.523087C19.9703 1.82425 11.5065 7.02888 6.18313 15.0272C3.06187 19.6769 1.28104 24.7093 0.72572 30.4115C0.457637 33.0712 0.457637 77.7315 0.72572 80.3912C1.7789 91.2023 7.79162 100.617 17.1171 106.051C20.1234 107.811 23.3404 109.017 27.3425 109.878L29.3532 110.318H55.7785H82.2038L84.2144 109.878C85.3251 109.629 87.1251 109.132 88.2165 108.768C98.6335 105.305 106.523 97.0384 109.587 86.3995C110.774 82.2856 110.716 83.5676 110.774 56.3772C110.831 34.6211 110.812 31.2342 110.544 29.206C109.855 23.9822 108.131 19.3133 105.297 15.0846C100.395 7.77513 93.291 2.97233 84.3102 0.924919L82.3953 0.503952L56.353 0.465683C42.0297 0.446548 30.0617 0.484818 29.7361 0.523087ZM71.7677 24.5945V27.0055L70.5805 26.9481L69.3741 26.8907L69.3167 24.5371L69.2592 22.2027H70.5231H71.7677V24.5945ZM61.7146 30.6219L60.8529 31.483L59.187 29.8183L57.5019 28.1344L58.3636 27.2734L59.2061 26.4123L60.8912 28.077L62.5763 29.7609L61.7146 30.6219ZM81.8783 29.7991L80.1932 31.4639L79.4272 30.7176C79.006 30.3158 78.6613 29.8757 78.6613 29.78C78.6613 29.6652 79.3698 28.8615 80.2315 28.0005L81.8208 26.4123L82.6825 27.2734L83.5442 28.1344L81.8783 29.7991ZM73.8549 29.6461C78.0677 31.1003 80.8251 34.9655 80.8443 39.4239C80.8443 43.0021 79.14 46.0636 75.9422 48.245C75.3294 48.6659 74.7549 49.1634 74.64 49.3739C74.5252 49.5844 74.3145 49.7566 74.1613 49.7566C73.9124 49.7566 73.8741 49.2782 73.8741 46.9247V44.0928L75.1954 43.9014C76.7847 43.6527 77.6081 43.1169 78.106 42.0262C79.5804 38.7924 75.9613 35.8648 73.0315 37.9505C72.323 38.448 71.7677 39.6726 71.7677 40.8016V41.72H70.5231H69.2784V40.7824C69.2784 39.6726 69.0294 38.9264 68.455 38.3141C66.6741 36.4006 63.4763 37.2043 62.7486 39.7492C62.4614 40.8016 62.7486 41.9305 63.4955 42.7342C64.204 43.4996 64.7976 43.7675 66.0805 43.9205L67.172 44.0545V46.9055C67.172 49.9097 67.0763 50.1776 66.3678 49.2782C66.1571 49.0104 65.4869 48.4555 64.8933 48.0345C59.4168 44.3224 58.67 36.745 63.3231 32.1527C64.721 30.775 66.3486 29.8183 68.0529 29.3782C69.6231 28.9955 72.2656 29.1103 73.8549 29.6461ZM57.5785 38.448C58.0189 38.5628 58.0572 38.6776 58.1338 39.9597C58.1721 40.725 58.3444 41.9497 58.5359 42.6768L58.8614 44.0162H53.1743H47.4871L47.0849 43.3465C45.7828 41.1269 42.3743 41.3374 41.302 43.7101C40.8424 44.7433 40.8424 45.6235 41.3403 46.6377C42.4318 48.8956 45.7637 49.0295 47.0849 46.8673L47.5445 46.121L49.3636 46.1784L51.1828 46.2167L51.2402 48.5511L51.2977 50.9047H46.6828H42.0871V51.9571V53.0095H47.736H53.3849V49.5653V46.121H56.7168H60.0487L60.3742 46.6185C61.0061 47.5753 62.1167 48.6851 63.4572 49.6801L64.8359 50.6942L64.8933 53.7175C64.9699 56.5686 65.0082 56.7982 65.5061 57.8314C66.138 59.1326 67.2869 60.1659 68.5507 60.6251C69.4316 60.9313 69.4699 60.9695 69.4699 61.6584V62.3855H66.0231H62.5763V63.4379V64.4903H66.0231H69.4699V65.6384V66.7865H71.8443H74.2188L74.6209 67.4562C75.923 69.6758 79.3315 69.4653 80.4038 67.0926C80.8634 66.0594 80.8634 65.1792 80.3655 64.165C79.2549 61.888 75.7315 61.7923 74.5252 64.012L74.1613 64.7008L72.9167 64.6434L71.672 64.586L71.6145 62.8256L71.5571 61.0652L72.7252 60.5486C74.1996 59.8789 75.4826 58.5203 75.8847 57.1617C76.0762 56.5112 76.172 55.3631 76.172 53.641C76.172 52.225 76.2485 50.9047 76.3634 50.7133C76.4592 50.522 76.8613 50.1776 77.2251 49.948L77.9145 49.527L78.6613 50.0436C79.0634 50.3307 79.8677 51.0578 80.4421 51.6509C85.6506 57.1043 85.574 65.4471 80.2889 70.7091C78.5464 72.4503 76.9379 73.4645 74.7358 74.2107C73.3379 74.67 72.9358 74.7274 70.3124 74.7274H67.421L66.655 75.4162C66.2337 75.7989 65.3337 76.4878 64.6635 76.9279C61.0827 79.3388 58.5934 83.2806 58.2104 87.1075L58.0763 88.5043L56.9083 88.5617L55.721 88.6191L55.6444 86.0742C55.5487 83.1658 55.2806 82.3047 54.0551 81.0992C52.9253 79.9894 51.987 79.6258 49.7083 79.4154C45.9743 79.0901 43.2935 77.5784 41.302 74.7082L40.7658 73.9237L39.2722 74.67C36.5914 75.9711 34.0255 76.2964 31.3829 75.6841C27.5915 74.7848 24.2596 71.7424 23.1107 68.1642C22.5553 66.3847 22.4213 63.6101 22.8234 62.0028C23.2447 60.3381 24.2787 58.2524 25.2553 57.1426L26.0596 56.2433L26.0787 54.1959C26.0979 52.3207 26.1553 52.0528 26.7106 50.8856C28.2808 47.6901 31.8042 45.7766 35.1935 46.3315C35.8255 46.4272 36.5531 46.5994 36.8212 46.6951C37.2425 46.8481 37.2999 46.829 37.4148 46.3506C38.085 43.3465 39.5403 41.3756 42.0297 40.151C43.2552 39.5578 43.4275 39.5196 45.4381 39.5196C47.353 39.5196 47.6594 39.577 48.7317 40.0745L49.919 40.6102L50.5317 40.1127C51.2977 39.4622 52.7913 38.6968 53.7104 38.4863C54.5721 38.2758 56.9274 38.2567 57.5785 38.448ZM88.8102 39.4239V40.572H85.9378H83.0655V39.4239V38.2758H85.9378H88.8102V39.4239ZM66.8273 39.7492C67.0571 39.9597 67.172 40.3232 67.172 40.8973V41.72H66.3295C65.3337 41.72 64.8742 41.3565 64.8742 40.572C64.8742 39.5387 66.0422 39.0412 66.8273 39.7492ZM76.0571 39.8448C76.7464 40.8207 76.1145 41.72 74.7358 41.72H73.8741V40.9929C73.8741 39.9788 74.3145 39.4239 75.1188 39.4239C75.5783 39.4239 75.8656 39.5578 76.0571 39.8448ZM71.7294 46.829L71.7869 49.7566H70.5231H69.2784V46.9247C69.2784 45.3556 69.3358 44.0162 69.4124 43.9397C69.489 43.8631 70.0252 43.8249 70.6188 43.8631L71.672 43.9205L71.7294 46.829ZM45.2658 44.4946C45.9169 45.4896 44.9977 46.5994 43.8488 46.1976C42.6233 45.7575 42.9679 44.0162 44.2892 44.0162C44.7871 44.0162 45.036 44.131 45.2658 44.4946ZM74.0656 53.1052V54.3489L70.5805 54.3107L67.0763 54.2533L67.0188 53.3157C66.9231 51.7849 66.7507 51.8614 70.6188 51.8614H74.0656V53.1052ZM73.606 56.9704C73.089 57.9654 71.6337 58.9413 70.6762 58.9413C69.7954 58.9413 68.7422 58.4629 68.0912 57.7549C66.8656 56.492 66.9231 56.4538 70.6188 56.4538H73.8932L73.606 56.9704ZM78.2783 64.873C78.7379 65.3322 78.757 65.7915 78.3549 66.3655C77.7421 67.2457 76.172 66.6908 76.172 65.6001C76.172 65.1026 76.8613 64.4903 77.4166 64.4903C77.6847 64.4903 78.0677 64.6625 78.2783 64.873Z" fill="#111111"/>
<path d="M37.4917 51.9571V53.0095H38.5449H39.5981V51.9571V50.9047H38.5449H37.4917V51.9571Z" fill="#111111"/>
<path d="M30.2915 53.5644C27.1128 54.9995 28.2234 59.8788 31.7277 59.898C32.7617 59.898 33.9872 59.2091 34.4851 58.348L34.9064 57.6018H37.3574H39.7893V59.9936V62.3855H34.6191H29.4489V63.4379V64.4903H35.6723H41.8957V61.046V57.6018H43.1403H44.385V62.1941V66.7864H41.5127H38.6404V67.9345V69.0826H41.5127H44.385V70.8047V72.5268H51.336L58.2679 72.546L58.6509 73.1583C59.2828 74.1533 60.1828 74.6317 61.4274 74.6317C63.3806 74.6317 64.6827 73.3305 64.6827 71.3788C64.6827 68.0493 60.4508 66.8056 58.6509 69.6184L58.2679 70.2115L52.3892 70.2307H46.4914V63.9162V57.6018H47.736H48.9807V61.046V64.4903H52.3318H55.6828V63.4379V62.3855H53.3849H51.0871V59.9936V57.6018H53.5381H55.97L56.3913 58.348C56.8892 59.2091 58.1147 59.898 59.1487 59.898C62.7487 59.8788 63.7253 54.7507 60.3742 53.4878C58.8232 52.8755 56.8126 53.5835 56.2573 54.9038L56.0275 55.497H45.4573H34.9064L34.4851 54.7507C33.9872 53.8897 32.7617 53.2008 31.7277 53.2008C31.3638 53.2008 30.7319 53.373 30.2915 53.5644ZM32.5128 55.6883C32.7234 55.8988 32.8957 56.2815 32.8957 56.5494C32.8957 57.1043 32.283 57.7931 31.7851 57.7931C30.6936 57.7931 30.1383 56.2241 31.0191 55.6118C31.5936 55.21 32.0532 55.2291 32.5128 55.6883ZM59.8572 55.6118C60.7381 56.2241 60.1828 57.7931 59.0913 57.7931C58.5551 57.7931 57.9806 57.0852 57.9806 56.4728C57.9806 55.8797 58.5551 55.3056 59.1296 55.3056C59.3019 55.3056 59.6274 55.4396 59.8572 55.6118ZM62.2317 70.556C62.653 70.9387 62.6721 71.7232 62.2508 72.1824C61.5998 72.9095 60.2785 72.3929 60.2785 71.417C60.2785 70.3838 61.4657 69.8671 62.2317 70.556Z" fill="#111111"/>
<path d="M24.8535 63.4379V64.4903H26.0024H27.1514V63.4379V62.3855H26.0024H24.8535V63.4379Z" fill="#111111"/>
<path d="M57.9805 63.4379V64.4903H59.1294H60.2783V63.4379V62.3855H59.1294H57.9805V63.4379Z" fill="#111111"/>
<path d="M34.0447 67.9346V69.0826H35.0979H36.151V67.9346V66.7865H35.0979H34.0447V67.9346Z" fill="#111111"/>
<path d="M228.309 26.0296C226.624 26.1062 224.613 26.221 223.847 26.3166L222.469 26.4506L222.507 45.3365L222.564 64.2033L225.341 64.4329C226.873 64.5477 229.63 64.6625 231.469 64.6625C236.524 64.6817 239.339 64.1268 242.613 62.4429C248.511 59.4196 251.766 53.2965 251.766 45.26C251.766 39.0221 249.947 34.0853 246.386 30.6985C243.379 27.8666 240.162 26.4889 235.394 26.0296C233.154 25.8191 233.058 25.8191 228.309 26.0296ZM237.501 30.8707C241.771 32.2675 244.681 35.463 246.06 40.285C246.462 41.6627 246.5 42.1984 246.481 45.547C246.481 49.0486 246.443 49.3739 245.945 51.0004C244.356 56.2242 240.986 59.2474 235.873 60.0702C234.494 60.2998 229.726 60.3572 228.328 60.1659L227.447 60.032L227.486 45.2791L227.543 30.5263L228.596 30.4115C229.171 30.3349 231.067 30.2967 232.809 30.3349C235.605 30.3732 236.141 30.4306 237.501 30.8707Z" fill="#111111"/>
<path d="M135.073 26.5845C134.939 26.795 120.425 62.5195 120.348 62.7873C120.329 62.9213 124.197 64.6817 124.522 64.6817C124.542 64.6817 125.499 62.2707 126.648 59.324L128.735 53.9663H137.639H146.544L148.631 59.3814L150.737 64.8156L152.92 63.9354C154.126 63.4571 155.141 62.9787 155.18 62.8639C155.218 62.7682 152.001 54.5403 148.018 44.5903L140.78 26.508L137.984 26.4506C136.433 26.4315 135.131 26.4889 135.073 26.5845ZM141.144 40.1702C143.02 44.9921 144.609 49.1252 144.667 49.3357L144.763 49.7566H137.563H130.363L130.803 48.6277C132.622 43.8249 137.563 31.3873 137.639 31.3873C137.697 31.3873 139.267 35.3482 141.144 40.1702Z" fill="#111111"/>
<path d="M161.001 45.3556V64.2989H163.49H165.979V45.3556V26.4122H163.49H161.001V45.3556Z" fill="#111111"/>
<path d="M192.213 45.3556V64.2989H203.607H215V62.0984V59.8979H206.096H197.192L197.23 53.239L197.288 46.5993L204.909 46.5419L212.511 46.5036V44.4945V42.4854L204.909 42.4471L197.288 42.3897V36.5536V30.7175L206.154 30.6601L215 30.6219V28.517V26.4122H203.607H192.213V45.3556Z" fill="#111111"/>
<path d="M258.889 40.1319L258.947 53.8706L259.483 55.5927C260.287 58.1376 261.034 59.4005 262.777 61.1609C264.462 62.8447 266.109 63.8206 268.426 64.4329C270.206 64.9113 275.281 64.9113 277.043 64.4329C281.562 63.17 284.97 59.7258 286.215 55.0952C286.904 52.5885 287 50.5794 287 38.3141V26.4123H284.511H282.04L281.964 39.5578C281.906 51.5361 281.868 52.8182 281.562 53.8706C280.681 56.7982 279.34 58.5394 277.081 59.6492L275.626 60.3764H272.945C270.57 60.3764 270.111 60.319 269.153 59.9363C266.989 59.0561 265.343 57.0278 264.423 54.1002L263.926 52.5311L263.868 39.4622L263.811 26.4123H261.321H258.832L258.889 40.1319Z" fill="#111111"/>
<path d="M237.309 74.4212C236.294 74.67 235.854 75.0336 235.452 75.9137C235.107 76.6791 235.069 77.1575 235.088 80.6591L235.107 84.5626L234.686 84.6392C234.437 84.6774 235.375 84.7157 236.735 84.7157C238.113 84.7157 238.822 84.6774 238.324 84.6392L237.405 84.5626V79.9894C237.405 77.4828 237.481 75.2058 237.577 74.9379C237.692 74.6891 237.96 74.4404 238.209 74.383C238.554 74.3256 238.573 74.3064 238.266 74.2873C238.056 74.2873 237.634 74.3447 237.309 74.4212Z" fill="#111111"/>
<path d="M238.879 74.8995C238.956 75.2248 238.86 75.4162 238.573 75.5693C238.075 75.8371 238.056 76.2007 238.515 76.6025C239.262 77.2914 240.277 76.7939 240.277 75.7797C240.277 75.1674 239.645 74.4403 239.128 74.4403C238.879 74.4403 238.822 74.5551 238.879 74.8995Z" fill="#111111"/>
<path d="M154.261 74.7656C154.663 74.8422 154.682 74.9187 154.682 76.8705C154.682 78.7648 154.663 78.8796 154.357 78.6308C154.108 78.4395 154.108 78.4778 154.395 78.8222C154.701 79.1858 154.797 79.6067 154.835 81.061C154.874 82.056 154.816 83.1275 154.701 83.4337C154.587 83.7781 154.587 83.9694 154.682 83.912C154.797 83.8355 154.874 84.0077 154.874 84.2756C154.874 84.7731 154.874 84.7731 156.463 84.7539C157.325 84.7348 157.842 84.6774 157.612 84.6391L157.172 84.5626V79.5876V74.6317L155.506 74.6508C154.567 74.67 154.012 74.7274 154.261 74.7656Z" fill="#111111"/>
<path d="M217.548 74.7657L218.065 74.8422V79.7024V84.5626L217.644 84.6392C217.395 84.6774 218.103 84.7157 219.214 84.7157C220.324 84.7157 221.033 84.6774 220.803 84.6392L220.363 84.5626V79.5876V74.6317L218.697 74.6509C217.758 74.67 217.241 74.7274 217.548 74.7657Z" fill="#111111"/>
<path d="M187.235 75.0718C186.641 75.378 186.469 76.526 186.948 77.0044C187.35 77.3871 188.173 77.4062 188.729 77.0044C189.207 76.6791 189.322 75.5884 188.901 75.244C188.48 74.8996 187.733 74.8039 187.235 75.0718Z" fill="#111111"/>
<path d="M142.771 79.9703L142.829 84.5626L142.293 84.6391C142.006 84.6774 143.461 84.7348 145.548 84.7539L149.32 84.7731V83.3762C149.301 81.9985 149.301 81.9985 148.995 82.5726C148.842 82.8787 148.554 83.3188 148.382 83.5102C147.961 84.0077 146.659 84.5817 145.931 84.5817H145.299V82.2856C145.299 81.0227 145.376 79.9894 145.471 79.9894C146.18 79.9894 146.908 80.4869 147.233 81.214L147.597 81.9985V80.0851C147.597 78.2481 147.578 78.1907 147.31 78.7456C146.908 79.4919 146.505 79.7981 145.835 79.7981H145.299V77.5976V75.3971H144.016H142.714L142.771 79.9703Z" fill="#111111"/>
<path d="M146.353 75.531C147.348 75.7415 147.884 76.1051 148.382 76.9087L148.938 77.7698V76.5834V75.3971L147.463 75.4162C146.64 75.4353 146.142 75.4736 146.353 75.531Z" fill="#111111"/>
<path d="M209.448 79.9703V84.5626L209.026 84.6392C208.777 84.6774 209.792 84.7157 211.267 84.7157C212.741 84.7157 213.545 84.6774 213.048 84.6392L212.128 84.5626V79.9703V75.3971H210.788H209.448V79.9703Z" fill="#111111"/>
<path d="M213.335 75.7607C213.833 76.1816 213.852 76.2582 213.852 77.9994C213.852 79.6641 213.813 79.8555 213.373 80.2765L212.913 80.7548H213.45C213.737 80.7548 214.388 80.6209 214.886 80.4487C216.016 80.066 216.533 79.3197 216.533 78.0377C216.533 76.3347 215.824 75.6459 213.89 75.4545L212.799 75.3397L213.335 75.7607Z" fill="#111111"/>
<path d="M182.314 76.3347L181.108 76.6026V79.6833C181.108 82.8596 181.28 84.1417 181.72 84.4095C182.333 84.8114 183.425 84.9836 184.171 84.7731C184.88 84.5818 185.531 83.9886 185.512 83.5293C185.493 83.4337 185.359 83.5676 185.206 83.8546C184.995 84.2565 184.784 84.3904 184.363 84.3904C184.037 84.3904 183.769 84.3713 183.75 84.333C183.731 84.3139 183.674 82.4387 183.597 80.1808L183.501 76.0668L182.314 76.3347Z" fill="#111111"/>
<path d="M230.664 76.2964L229.554 76.5835V79.9894C229.554 81.8646 229.63 83.625 229.745 83.8929C229.994 84.5435 230.588 84.8305 231.794 84.8496C232.598 84.8496 232.886 84.7731 233.288 84.3904C233.556 84.1417 233.766 83.8546 233.766 83.7398C233.766 83.625 233.632 83.7398 233.46 83.9694C233.249 84.2756 233 84.3904 232.656 84.3521L232.139 84.2947L232.081 80.1234C232.062 77.8463 231.966 75.9712 231.89 75.9903C231.813 76.0094 231.258 76.1434 230.664 76.2964Z" fill="#111111"/>
<path d="M151.618 78.6883C151.235 78.9561 150.872 79.4345 150.718 79.8937C150.355 80.927 150.489 83.0127 150.987 83.8546C151.465 84.6774 152.499 85.0601 153.552 84.7731C154.433 84.5243 154.701 84.2373 153.916 84.3521C153.093 84.4669 152.921 83.8355 152.997 81.1758C153.055 79.1475 153.093 78.9753 153.514 78.6309L153.955 78.2673H153.112C152.538 78.2673 152.04 78.4012 151.618 78.6883Z" fill="#111111"/>
<path d="M168.278 78.7074C167.167 79.2814 166.746 80.1234 166.746 81.7115C166.746 83.1658 167.148 84.0077 168.124 84.5052C168.948 84.9262 170.671 84.9262 171.475 84.5052C172.05 84.2182 172.835 83.1275 172.624 82.9362C172.586 82.8788 172.433 83.1084 172.299 83.4337C172.05 84.0651 171.246 84.5817 170.575 84.5817C170.365 84.5817 169.963 84.3713 169.714 84.1034C169.254 83.6633 169.235 83.5102 169.235 81.5776C169.235 79.1475 169.446 78.5735 170.307 78.4969C171.092 78.4204 171.322 79.0518 170.709 79.6067C170.384 79.932 170.346 80.0468 170.537 80.4678C170.767 80.9462 171.514 81.2523 172.012 81.061C172.433 80.9079 172.758 80.0851 172.605 79.511C172.299 78.3056 169.905 77.8463 168.278 78.7074Z" fill="#111111"/>
<path d="M174.596 78.6117C173.735 79.0327 173.448 79.7789 173.907 80.4486C174.271 81.0227 174.884 81.0992 175.516 80.64C176.013 80.2956 176.071 79.645 175.611 79.3006C175.324 79.0901 175.305 78.9944 175.516 78.6691C175.822 78.1525 175.535 78.1333 174.596 78.6117Z" fill="#111111"/>
<path d="M176.626 78.7839C176.837 79.1857 176.894 79.932 176.875 81.6924C176.856 83.8355 176.894 84.0842 177.258 84.4478C177.794 84.9835 179.422 85.0027 179.92 84.5052C180.226 84.1607 180.226 84.1416 179.901 84.2564C179.384 84.4478 179.192 83.6824 179.192 81.501C179.192 80.4486 179.097 79.4153 178.982 79.1857C178.733 78.7265 177.699 78.2673 176.914 78.2673C176.358 78.2673 176.339 78.2673 176.626 78.7839Z" fill="#111111"/>
<path d="M192.022 78.6883C190.873 79.2814 190.395 80.1425 190.395 81.6159C190.395 83.7781 191.505 84.8496 193.746 84.8496C196.025 84.8496 197.078 83.7972 197.078 81.5393C197.097 79.3197 196.312 78.4587 194.167 78.3247C193.095 78.2482 192.75 78.3056 192.022 78.6883ZM194.454 78.9753C194.55 79.2814 194.608 80.5443 194.608 81.8264C194.608 84.2373 194.454 84.7731 193.746 84.7731C193.037 84.7731 192.884 84.2373 192.884 81.8264C192.884 78.8796 192.999 78.4587 193.746 78.4587C194.205 78.4587 194.339 78.5543 194.454 78.9753Z" fill="#111111"/>
<path d="M201.865 78.4778C201.654 78.5926 201.329 78.8988 201.156 79.1858L200.85 79.7024L200.831 79.071V78.4587H199.643H198.437L198.495 81.5011C198.552 84.5435 198.552 84.5435 198.112 84.6392C197.863 84.6775 198.533 84.7157 199.586 84.7157C200.639 84.7349 201.348 84.6966 201.175 84.6392C200.869 84.5626 200.831 84.2948 200.831 82.4196C200.831 79.9129 201.156 78.9371 201.98 78.9371H202.458L202.516 81.7499C202.554 84.2948 202.535 84.5626 202.229 84.6392C202.037 84.6966 202.784 84.7349 203.894 84.7157C205.005 84.7157 205.714 84.6775 205.484 84.6392C205.063 84.5626 205.043 84.4861 205.043 82.2665C205.043 79.6642 204.794 78.7648 203.99 78.4587C203.358 78.2291 202.401 78.2291 201.865 78.4778Z" fill="#111111"/>
<path d="M223.235 78.4777C222.488 78.7838 222.086 79.2431 222.086 79.8171C222.086 80.4485 222.526 80.946 223.12 80.946C223.962 80.946 224.594 80.0276 224.096 79.5301C223.752 79.1857 223.732 78.5159 224.058 78.4011C224.211 78.3246 224.192 78.3055 224.001 78.2863C223.847 78.2863 223.503 78.382 223.235 78.4777Z" fill="#111111"/>
<path d="M224.92 78.5161C225.188 78.8414 225.379 82.5727 225.169 83.472C225.073 83.9121 225.073 84.1609 225.169 84.0843C225.264 84.0269 225.398 84.1226 225.456 84.2757C225.513 84.4479 225.915 84.6775 226.337 84.7732C227.218 85.0219 228.29 84.754 228.501 84.2374C228.596 83.9886 228.577 83.9695 228.386 84.1417C228.213 84.3139 228.079 84.3331 227.888 84.18C227.715 84.0269 227.639 83.3955 227.639 81.9986C227.639 79.5877 227.428 78.8988 226.567 78.5353C225.724 78.1908 224.632 78.1717 224.92 78.5161Z" fill="#111111"/>
<path d="M241.311 78.4587C239.492 79.0136 238.745 81.7116 239.894 83.5676C240.43 84.4669 241.292 84.8496 242.786 84.8496C245.045 84.8496 246.079 83.8164 246.079 81.5393C246.079 79.3006 245.294 78.4395 243.169 78.3439C242.479 78.3056 241.637 78.363 241.311 78.4587ZM243.475 78.9753C243.743 79.9512 243.667 84.1034 243.36 84.4669C242.996 84.907 242.345 84.7731 242.058 84.1991C241.752 83.6059 241.732 80.1808 242.02 79.1666C242.192 78.5543 242.288 78.4587 242.767 78.4587C243.226 78.4587 243.36 78.5543 243.475 78.9753Z" fill="#111111"/>
<path d="M250.771 78.4777C250.579 78.5734 250.33 78.8604 250.215 79.09L250.005 79.511L250.407 79.0709C250.943 78.5351 251.575 78.516 251.575 79.0326C251.575 79.2431 251.441 79.4153 251.288 79.4153C251.096 79.4153 251 79.6067 251 79.9894C251 80.6782 251.671 81.0418 252.417 80.7739C253.202 80.4677 253.375 79.3005 252.724 78.6499C252.302 78.229 251.326 78.1524 250.771 78.4777Z" fill="#111111"/>
<path d="M257.377 78.7648C257.09 79.0518 256.994 79.1666 257.166 79.0326C257.358 78.8987 257.645 78.8413 257.798 78.9178C258.028 78.9944 258.086 79.4919 258.086 81.788C258.086 83.8163 258.028 84.5817 257.856 84.6391C257.722 84.6965 258.392 84.7348 259.33 84.7348C260.288 84.7348 260.939 84.6965 260.824 84.6391C260.441 84.5052 260.479 80.1424 260.862 79.4153C261.188 78.803 261.8 78.6499 261.992 79.1474C262.049 79.3197 262.107 80.6017 262.107 81.9985C262.107 84.2755 262.068 84.5626 261.781 84.6391C261.59 84.6965 262.298 84.7348 263.351 84.7156C264.405 84.7156 265.075 84.6774 264.845 84.6391C264.424 84.5626 264.405 84.486 264.405 82.0942C264.405 79.4345 264.251 78.8222 263.505 78.4777C262.566 78.0568 261.724 78.2098 261.034 78.9561C260.671 79.3197 260.383 79.5301 260.383 79.4153C260.383 79.3005 260.173 78.9944 259.905 78.7456C259.254 78.0759 258.105 78.095 257.377 78.7648Z" fill="#111111"/>
<path d="M158.933 80.9844C159.029 83.8355 159.182 84.2947 160.178 84.6965C161.021 85.0601 161.882 84.8879 162.591 84.2373L163.108 83.7398V84.2565V84.7731L164.697 84.754C165.559 84.7348 166.076 84.6774 165.846 84.6391C165.406 84.5626 165.406 84.5243 165.406 81.5011V78.4586H164.161H162.916V81.0992C162.916 83.4337 162.878 83.7972 162.572 84.0651C162.131 84.4669 161.653 84.4861 161.499 84.0842C161.442 83.912 161.384 82.5917 161.384 81.1184V78.4586H160.121H158.838L158.933 80.9844Z" fill="#111111"/>
<path d="M186.661 81.5011C186.661 84.5244 186.661 84.5626 186.239 84.6392C185.99 84.6774 186.699 84.7157 187.809 84.7157C188.92 84.7157 189.629 84.6774 189.399 84.6392C188.958 84.5626 188.958 84.5244 188.958 81.5011V78.4587H187.809H186.661V81.5011Z" fill="#111111"/>
<path d="M247.362 81.5011C247.362 84.5244 247.362 84.5626 246.941 84.6392C246.692 84.6774 247.496 84.7157 248.703 84.7157C249.909 84.7157 250.656 84.6774 250.369 84.6392L249.832 84.5626L249.852 82.1325C249.871 80.7931 249.871 79.4154 249.871 79.071L249.852 78.4587H248.607H247.362V81.5011Z" fill="#111111"/>
<path d="M254.255 81.5011C254.255 84.5244 254.255 84.5626 253.834 84.6392C253.585 84.6775 254.255 84.7157 255.309 84.7157C256.362 84.7349 257.07 84.6966 256.898 84.6392C256.592 84.5626 256.553 84.2948 256.553 82.477C256.553 81.3289 256.63 80.1808 256.745 79.8938C256.879 79.5685 256.879 79.4346 256.745 79.5111C256.63 79.5876 256.553 79.3772 256.553 79.0519V78.4587H255.404H254.255V81.5011Z" fill="#111111"/>
<path d="M174.252 81.9985C173.218 82.4386 173.007 83.7398 173.85 84.5052C174.367 84.9835 175.995 84.9835 176.454 84.5243C176.78 84.199 176.78 84.1799 176.435 84.3138C175.975 84.486 175.746 84.1225 175.746 83.1849C175.746 82.7256 175.88 82.3429 176.129 82.0942L176.512 81.7115H175.707C175.248 81.7306 174.597 81.8454 174.252 81.9985Z" fill="#111111"/>
<path d="M222.756 81.922C222.029 82.1325 221.703 82.5726 221.703 83.3763C221.703 84.1608 222.201 84.6774 223.082 84.8496C223.809 84.9836 225.169 84.6009 224.537 84.4478C224.078 84.333 224.039 82.4578 224.499 82.0177C224.767 81.7307 224.729 81.7116 224.058 81.7307C223.656 81.7307 223.082 81.8264 222.756 81.922Z" fill="#111111"/>
</svg>
