<svg width="176" height="68" viewBox="0 0 176 68" fill="none" xmlns="http://www.w3.org/2000/svg">
<g id="Logo">
<path id="Vector" d="M17.898 0.728218C11.9144 1.52544 6.72862 4.71435 3.46697 9.61494C1.55456 12.4638 0.463436 15.5472 0.123192 19.041C-0.0410639 20.6706 -0.0410639 48.0342 0.123192 49.6638C0.768482 56.2878 4.4525 62.056 10.1663 65.3856C12.0083 66.4642 13.9793 67.2028 16.4314 67.7304L17.6634 68H33.8543H50.0452L51.2771 67.7304C51.9576 67.5779 53.0605 67.2731 53.7292 67.0504C60.1117 64.9283 64.9456 59.8636 66.8228 53.3451C67.5502 50.8245 67.515 51.61 67.5502 34.9503C67.5854 21.6202 67.5737 19.5451 67.4094 18.3024C66.987 15.1017 65.9311 12.2411 64.1947 9.65011C61.1911 5.17158 56.8384 2.22887 51.3358 0.974419L50.1625 0.716492L34.2063 0.693047C25.4303 0.68132 18.0975 0.704773 17.898 0.728218ZM43.651 15.4769V16.9541L42.9236 16.9189L42.1844 16.8838L42.1492 15.4417L42.114 14.0114H42.8884H43.651V15.4769ZM37.4914 19.1699L36.9634 19.6975L35.9427 18.6775L34.9102 17.6458L35.4382 17.1182L35.9544 16.5907L36.9869 17.6106L38.0193 18.6423L37.4914 19.1699ZM49.8458 18.6658L48.8133 19.6858L48.344 19.2285C48.0859 18.9823 47.8747 18.7127 47.8747 18.6541C47.8747 18.5837 48.3088 18.0913 48.8368 17.5637L49.8106 16.5907L50.3385 17.1182L50.8665 17.6458L49.8458 18.6658ZM44.9298 18.572C47.511 19.463 49.2005 21.8313 49.2122 24.5629C49.2122 26.7553 48.168 28.6311 46.2087 29.9676C45.8332 30.2256 45.4813 30.5304 45.4109 30.6594C45.3405 30.7883 45.2114 30.8938 45.1175 30.8938C44.965 30.8938 44.9416 30.6007 44.9416 29.1587V27.4236L45.7511 27.3063C46.7249 27.1539 47.2294 26.8256 47.5344 26.1574C48.4379 24.176 46.2204 22.3823 44.4253 23.6602C43.9912 23.965 43.651 24.7153 43.651 25.407V25.9698H42.8884H42.1257V25.3953C42.1257 24.7153 41.9732 24.2581 41.6212 23.8829C40.5301 22.7105 38.5708 23.2029 38.1249 24.7622C37.9489 25.407 38.1249 26.0988 38.5825 26.5912C39.0166 27.0601 39.3803 27.2243 40.1664 27.318L40.8352 27.4001V29.147C40.8352 30.9876 40.7765 31.1518 40.3424 30.6007C40.2133 30.4366 39.8027 30.0966 39.439 29.8387C36.0835 27.5642 35.6259 22.9216 38.4769 20.1078C39.3334 19.2637 40.3307 18.6775 41.3749 18.4079C42.3369 18.1734 43.956 18.2437 44.9298 18.572ZM34.9571 23.965C35.227 24.0353 35.2505 24.1057 35.2974 24.8912C35.3209 25.3601 35.4264 26.1105 35.5438 26.556L35.7432 27.3767H32.2587H28.7741L28.5277 26.9663C27.7299 25.6063 25.6415 25.7353 24.9845 27.1891C24.7029 27.8222 24.7029 28.3615 25.0079 28.9828C25.6767 30.3663 27.7182 30.4483 28.5277 29.1235L28.8093 28.6663L29.9239 28.7015L31.0385 28.7249L31.0737 30.1552L31.1089 31.5973H28.2813H25.4655V32.2421V32.8869H28.9266H32.3877V30.7766V28.6663H34.4292H36.4706L36.6701 28.9711C37.0573 29.5573 37.7378 30.2373 38.559 30.8469L39.4038 31.4683L39.439 33.3207C39.4859 35.0675 39.5094 35.2082 39.8144 35.8413C40.2016 36.6385 40.9056 37.2716 41.6799 37.553C42.2196 37.7406 42.2431 37.764 42.2431 38.1861V38.6316H40.1312H38.0193V39.2764V39.9212H40.1312H42.2431V40.6247V41.3281H43.6979H45.1527L45.3991 41.7384C46.1969 43.0984 48.2853 42.9695 48.9424 41.5157C49.2239 40.8826 49.2239 40.3433 48.9189 39.7219C48.2384 38.3268 46.0796 38.2682 45.3405 39.6281L45.1175 40.0502L44.3549 40.015L43.5923 39.9799L43.5571 38.9013L43.5219 37.8227L44.2376 37.5061C45.141 37.0958 45.9271 36.2634 46.1735 35.431C46.2908 35.0324 46.3495 34.3289 46.3495 33.2738C46.3495 32.4062 46.3964 31.5973 46.4668 31.48C46.5254 31.3628 46.7718 31.1518 46.9947 31.0111L47.4171 30.7531L47.8747 31.0697C48.1211 31.2455 48.6138 31.6911 48.9658 32.0545C52.1571 35.3958 52.1101 40.5074 48.872 43.7315C47.8043 44.7984 46.8188 45.4198 45.4695 45.877C44.613 46.1584 44.3667 46.1935 42.7593 46.1935H40.9877L40.5184 46.6156C40.2603 46.8501 39.7088 47.2721 39.2982 47.5418C37.1042 49.019 35.579 51.4341 35.3443 53.7789L35.2622 54.6347L34.5465 54.6699L33.8191 54.7051L33.7722 53.1458C33.7135 51.3638 33.5492 50.8362 32.7984 50.0976C32.1061 49.4176 31.5312 49.1949 30.1351 49.0659C27.8472 48.8666 26.2047 47.9404 24.9845 46.1818L24.656 45.7011L23.7408 46.1584C22.0983 46.9556 20.5261 47.1549 18.907 46.7797C16.584 46.2287 14.5425 44.3646 13.8385 42.1722C13.4983 41.0819 13.4162 39.3819 13.6626 38.3971C13.9207 37.3772 14.5542 36.0992 15.1526 35.4193L15.6454 34.8682L15.6571 33.6138C15.6688 32.4648 15.704 32.3007 16.0443 31.5855C17.0063 29.6277 19.1651 28.4553 21.2418 28.7953C21.629 28.8539 22.0748 28.9594 22.2391 29.018C22.4972 29.1118 22.5324 29.1001 22.6028 28.807C23.0134 26.9663 23.9051 25.7588 25.4303 25.0084C26.1812 24.645 26.2868 24.6215 27.5187 24.6215C28.692 24.6215 28.8797 24.6567 29.5367 24.9615L30.2641 25.2898L30.6396 24.985C31.1089 24.5864 32.024 24.1174 32.5872 23.9884C33.1151 23.8595 34.5582 23.8478 34.9571 23.965ZM54.0929 24.5629V25.2664H52.3331H50.5732V24.5629V23.8595H52.3331H54.0929V24.5629ZM40.624 24.7622C40.7648 24.8912 40.8352 25.1139 40.8352 25.4657V25.9698H40.3189C39.7088 25.9698 39.4272 25.747 39.4272 25.2664C39.4272 24.6333 40.1429 24.3284 40.624 24.7622ZM46.2791 24.8208C46.7014 25.4188 46.3143 25.9698 45.4695 25.9698H44.9416V25.5243C44.9416 24.9029 45.2114 24.5629 45.7042 24.5629C45.9857 24.5629 46.1617 24.645 46.2791 24.8208ZM43.6275 29.1001L43.6627 30.8938H42.8884H42.1257V29.1587C42.1257 28.1973 42.1609 27.3767 42.2079 27.3298C42.2548 27.2829 42.5833 27.2594 42.947 27.2829L43.5923 27.318L43.6275 29.1001ZM27.4131 27.6698C27.812 28.2794 27.2489 28.9594 26.5449 28.7132C25.794 28.4435 26.0052 27.3767 26.8148 27.3767C27.1198 27.3767 27.2723 27.447 27.4131 27.6698ZM45.0589 32.9455V33.7076L42.9236 33.6841L40.7765 33.6489L40.7413 33.0745C40.6826 32.1366 40.577 32.1835 42.947 32.1835H45.0589V32.9455ZM44.7773 35.3137C44.4605 35.9234 43.5688 36.5213 42.9822 36.5213C42.4425 36.5213 41.7972 36.2282 41.3983 35.7944C40.6474 35.0206 40.6826 34.9972 42.947 34.9972H44.9533L44.7773 35.3137ZM47.64 40.1557C47.9216 40.4371 47.9334 40.7185 47.687 41.0702C47.3115 41.6095 46.3495 41.2695 46.3495 40.6012C46.3495 40.2964 46.7718 39.9212 47.1121 39.9212C47.2763 39.9212 47.511 40.0268 47.64 40.1557Z" fill="#6161A8"/>
<path id="Vector_2" d="M22.6494 32.2421V32.8869H23.2947H23.94V32.2421V31.5973H23.2947H22.6494V32.2421Z" fill="#6161A8"/>
<path id="Vector_3" d="M18.2382 33.2268C16.2906 34.1061 16.9711 37.0957 19.1181 37.1074C19.7517 37.1074 20.5026 36.6854 20.8076 36.1578L21.0657 35.7006H22.5675H24.0575V37.1661V38.6316H20.8898H17.722V39.2764V39.9212H21.535H25.3481V37.8109V35.7006H26.1107H26.8734V38.5143V41.3281H25.1135H23.3536V42.0315V42.7349H25.1135H26.8734V43.7901V44.8452H31.1323L35.3795 44.857L35.6141 45.2321C36.0013 45.8418 36.5527 46.1349 37.3153 46.1349C38.5121 46.1349 39.3099 45.3376 39.3099 44.1418C39.3099 42.1018 36.717 41.3398 35.6141 43.0632L35.3795 43.4266L31.7776 43.4384H28.1639V39.5695V35.7006H28.9266H29.6892V37.8109V39.9212H31.7424H33.7956V39.2764V38.6316H32.3877H30.9798V37.1661V35.7006H32.4815H33.9716L34.2297 36.1578C34.5347 36.6854 35.2856 37.1074 35.9192 37.1074C38.1249 37.0957 38.7232 33.9537 36.67 33.1799C35.7197 32.8048 34.4878 33.2386 34.1475 34.0475L34.0068 34.4109H27.5304H21.0657L20.8076 33.9537C20.5026 33.4261 19.7517 33.0041 19.1181 33.0041C18.8952 33.0041 18.5081 33.1096 18.2382 33.2268ZM19.5992 34.5282C19.7282 34.6572 19.8338 34.8916 19.8338 35.0558C19.8338 35.3958 19.4584 35.8178 19.1533 35.8178C18.4846 35.8178 18.1443 34.8565 18.684 34.4813C19.036 34.2351 19.3176 34.2468 19.5992 34.5282ZM36.3533 34.4813C36.893 34.8565 36.5527 35.8178 35.884 35.8178C35.5555 35.8178 35.2035 35.384 35.2035 35.0089C35.2035 34.6454 35.5555 34.2937 35.9074 34.2937C36.013 34.2937 36.2125 34.3758 36.3533 34.4813ZM37.8081 43.6377C38.0662 43.8721 38.078 44.3528 37.8198 44.6342C37.4209 45.0797 36.6114 44.7632 36.6114 44.1652C36.6114 43.5321 37.3388 43.2156 37.8081 43.6377Z" fill="#6161A8"/>
<path id="Vector_4" d="M14.9062 39.2764V39.9212H15.6102H16.3142V39.2764V38.6316H15.6102H14.9062V39.2764Z" fill="#6161A8"/>
<path id="Vector_5" d="M35.2031 39.2764V39.9212H35.9071H36.611V39.2764V38.6316H35.9071H35.2031V39.2764Z" fill="#6161A8"/>
<path id="Vector_6" d="M20.5381 42.0316V42.735H21.1834H21.8287V42.0316V41.3281H21.1834H20.5381V42.0316Z" fill="#6161A8"/>
<path id="Vector_7" d="M139.565 16.3562C138.532 16.4031 137.3 16.4734 136.831 16.532L135.986 16.6141L136.01 28.1856L136.045 39.7454L137.746 39.8861C138.685 39.9564 140.374 40.0268 141.501 40.0268C144.598 40.0385 146.323 39.6985 148.329 38.6668C151.943 36.8144 153.937 33.0628 153.937 28.1387C153.937 24.3167 152.823 21.292 150.64 19.2168C148.798 17.4817 146.827 16.6376 143.906 16.3562C142.533 16.2272 142.474 16.2272 139.565 16.3562ZM145.196 19.3223C147.813 20.1782 149.596 22.1361 150.441 25.0905C150.687 25.9346 150.711 26.2629 150.699 28.3146C150.699 30.4601 150.675 30.6594 150.37 31.6559C149.397 34.8565 147.332 36.7089 144.199 37.213C143.354 37.3537 140.433 37.3889 139.576 37.2716L139.037 37.1896L139.06 28.1504L139.095 19.1113L139.741 19.041C140.093 18.9941 141.254 18.9706 142.322 18.9941C144.035 19.0175 144.363 19.0527 145.196 19.3223Z" fill="#6161A8"/>
<path id="Vector_8" d="M82.4384 16.6962C82.3563 16.8251 73.463 38.7137 73.4161 38.8778C73.4043 38.9599 75.7743 40.0385 75.9738 40.0385C75.9855 40.0385 76.5721 38.5613 77.2761 36.7558L78.5549 33.4731H84.0106H89.4662L90.745 36.791L92.0356 40.1205L93.3731 39.5812C94.1123 39.2881 94.7341 38.995 94.7576 38.9247C94.781 38.8661 92.81 33.8248 90.3696 27.7284L85.9347 16.6493L84.2217 16.6141C83.2714 16.6024 82.4736 16.6376 82.4384 16.6962ZM86.1576 25.0202C87.3074 27.9746 88.2812 30.5069 88.3164 30.6359L88.3751 30.8938H83.9636H79.5522L79.822 30.2021C80.9366 27.2594 83.9636 19.6389 84.0106 19.6389C84.0458 19.6389 85.0078 22.0657 86.1576 25.0202Z" fill="#6161A8"/>
<path id="Vector_9" d="M98.3242 28.1973V39.804H99.8495H101.375V28.1973V16.5906H99.8495H98.3242V28.1973Z" fill="#6161A8"/>
<path id="Vector_10" d="M117.448 28.1973V39.804H124.429H131.41V38.4557V37.1075H125.954H120.499L120.522 33.0275L120.557 28.9593L125.227 28.9242L129.885 28.9007V27.6697V26.4387L125.227 26.4153L120.557 26.3801V22.8043V19.2285L125.99 19.1933L131.41 19.1699V17.8802V16.5906H124.429H117.448V28.1973Z" fill="#6161A8"/>
<path id="Vector_11" d="M158.302 24.9967L158.337 33.4145L158.666 34.4696C159.158 36.0289 159.616 36.8027 160.684 37.8813C161.716 38.913 162.725 39.5109 164.145 39.8861C165.236 40.1792 168.345 40.1792 169.424 39.8861C172.193 39.1123 174.282 37.002 175.044 34.1648C175.467 32.629 175.525 31.398 175.525 23.8829V16.5907H174H172.486L172.44 24.645C172.404 31.9842 172.381 32.7697 172.193 33.4145C171.653 35.2082 170.832 36.2751 169.448 36.9551L168.556 37.4006H166.913C165.459 37.4006 165.177 37.3654 164.59 37.131C163.265 36.5917 162.256 35.3489 161.693 33.5552L161.387 32.5938L161.352 24.5864L161.317 16.5907H159.792H158.267L158.302 24.9967Z" fill="#6161A8"/>
<path id="Vector_12" d="M145.079 46.006C144.457 46.1584 144.188 46.3811 143.941 46.9204C143.73 47.3894 143.706 47.6825 143.718 49.8279L143.73 52.2196L143.472 52.2665C143.319 52.29 143.894 52.3134 144.727 52.3134C145.572 52.3134 146.006 52.29 145.701 52.2665L145.138 52.2196V49.4176C145.138 47.8818 145.185 46.4866 145.243 46.3225C145.314 46.1701 145.478 46.0177 145.631 45.9825C145.842 45.9473 145.854 45.9356 145.666 45.9239C145.537 45.9239 145.279 45.9591 145.079 46.006Z" fill="#6161A8"/>
<path id="Vector_13" d="M146.041 46.299C146.088 46.4983 146.029 46.6156 145.853 46.7094C145.548 46.8735 145.536 47.0963 145.818 47.3425C146.276 47.7645 146.897 47.4597 146.897 46.8383C146.897 46.4632 146.51 46.0177 146.193 46.0177C146.041 46.0177 146.006 46.088 146.041 46.299Z" fill="#6161A8"/>
<path id="Vector_14" d="M94.1946 46.217C94.4409 46.2639 94.4527 46.3108 94.4527 47.5066C94.4527 48.6673 94.4409 48.7376 94.2532 48.5852C94.1007 48.468 94.1007 48.4914 94.2767 48.7025C94.4644 48.9252 94.5231 49.1831 94.5465 50.0741C94.57 50.6838 94.5348 51.3403 94.4644 51.5279C94.394 51.7389 94.394 51.8562 94.4527 51.821C94.5231 51.7741 94.57 51.8796 94.57 52.0438C94.57 52.3486 94.57 52.3486 95.5438 52.3369C96.0718 52.3251 96.3885 52.29 96.2478 52.2665L95.9779 52.2196V49.1714V46.1349L94.9572 46.1466C94.3823 46.1584 94.042 46.1935 94.1946 46.217Z" fill="#6161A8"/>
<path id="Vector_15" d="M132.971 46.217L133.288 46.2639V49.2418V52.2196L133.03 52.2665C132.877 52.29 133.311 52.3134 133.992 52.3134C134.672 52.3134 135.106 52.29 134.966 52.2665L134.696 52.2196V49.1714V46.1349L133.675 46.1466C133.1 46.1584 132.783 46.1935 132.971 46.217Z" fill="#6161A8"/>
<path id="Vector_16" d="M114.398 46.4046C114.035 46.5921 113.929 47.2956 114.222 47.5887C114.469 47.8231 114.973 47.8349 115.313 47.5887C115.607 47.3894 115.677 46.7211 115.419 46.5101C115.161 46.299 114.703 46.2404 114.398 46.4046Z" fill="#6161A8"/>
<path id="Vector_17" d="M87.1553 49.4059L87.1905 52.2196L86.862 52.2665C86.686 52.29 87.5777 52.3251 88.8565 52.3368L91.1678 52.3486V51.4927C91.1561 50.6486 91.1561 50.6486 90.9684 51.0003C90.8745 51.1879 90.6985 51.4576 90.593 51.5748C90.3348 51.8796 89.537 52.2313 89.0912 52.2313H88.704V50.8245C88.704 50.0507 88.7509 49.4176 88.8096 49.4176C89.2437 49.4176 89.6895 49.7224 89.889 50.1679L90.1119 50.6486V49.4762C90.1119 48.3507 90.1002 48.3155 89.9359 48.6555C89.6895 49.1128 89.4432 49.3004 89.0325 49.3004H88.704V47.9521V46.6039H87.9179H87.1201L87.1553 49.4059Z" fill="#6161A8"/>
<path id="Vector_18" d="M89.3499 46.6859C89.96 46.8149 90.2885 47.0376 90.5936 47.53L90.9338 48.0576V47.3307V46.6039L90.0304 46.6156C89.5259 46.6273 89.2209 46.6507 89.3499 46.6859Z" fill="#6161A8"/>
<path id="Vector_19" d="M128.009 49.4059V52.2196L127.751 52.2665C127.598 52.29 128.22 52.3134 129.123 52.3134C130.027 52.3134 130.519 52.29 130.214 52.2665L129.651 52.2196V49.4059V46.6039H128.83H128.009V49.4059Z" fill="#6161A8"/>
<path id="Vector_20" d="M130.39 46.8266C130.695 47.0846 130.707 47.1314 130.707 48.1983C130.707 49.2183 130.683 49.3355 130.414 49.5935L130.132 49.8866H130.46C130.636 49.8866 131.035 49.8045 131.34 49.699C132.033 49.4645 132.349 49.0073 132.349 48.2218C132.349 47.1783 131.915 46.7563 130.73 46.639L130.062 46.5687L130.39 46.8266Z" fill="#6161A8"/>
<path id="Vector_21" d="M111.384 47.1784L110.645 47.3425V49.23C110.645 51.1762 110.75 51.9617 111.02 52.1258C111.395 52.372 112.064 52.4776 112.522 52.3486C112.956 52.2314 113.355 51.8679 113.343 51.5865C113.331 51.5279 113.249 51.61 113.155 51.7859C113.026 52.0321 112.897 52.1141 112.639 52.1141C112.44 52.1141 112.275 52.1024 112.264 52.079C112.252 52.0672 112.217 50.9183 112.17 49.5349L112.111 47.0142L111.384 47.1784Z" fill="#6161A8"/>
<path id="Vector_22" d="M141.008 47.1549L140.327 47.3308V49.4176C140.327 50.5666 140.374 51.6452 140.444 51.8093C140.597 52.2079 140.961 52.3838 141.7 52.3955C142.193 52.3955 142.369 52.3486 142.615 52.1141C142.779 51.9617 142.908 51.7859 142.908 51.7155C142.908 51.6452 142.826 51.7155 142.721 51.8562C142.592 52.0438 142.439 52.1141 142.228 52.0907L141.911 52.0555L141.876 49.4997C141.864 48.1046 141.805 46.9556 141.759 46.9673C141.712 46.9791 141.371 47.0611 141.008 47.1549Z" fill="#6161A8"/>
<path id="Vector_23" d="M92.5754 48.6204C92.3408 48.7845 92.1178 49.0776 92.024 49.359C91.8011 49.9921 91.8832 51.27 92.1882 51.7858C92.4815 52.29 93.1151 52.5245 93.7604 52.3486C94.3001 52.1962 94.4643 52.0203 93.9833 52.0907C93.4788 52.161 93.3732 51.7741 93.4201 50.1445C93.4553 48.9018 93.4788 48.7962 93.7369 48.5852L94.0068 48.3625H93.4905C93.1386 48.3625 92.8335 48.4445 92.5754 48.6204Z" fill="#6161A8"/>
<path id="Vector_24" d="M102.782 48.6321C102.102 48.9838 101.844 49.4997 101.844 50.4728C101.844 51.3638 102.09 51.8796 102.688 52.1845C103.193 52.4424 104.249 52.4424 104.742 52.1845C105.094 52.0086 105.575 51.3403 105.446 51.2231C105.422 51.1879 105.328 51.3286 105.246 51.5279C105.094 51.9148 104.601 52.2314 104.19 52.2314C104.061 52.2314 103.815 52.1024 103.662 51.9383C103.381 51.6686 103.369 51.5748 103.369 50.3907C103.369 48.9018 103.498 48.55 104.026 48.5031C104.507 48.4563 104.648 48.8431 104.272 49.1831C104.073 49.3824 104.049 49.4528 104.167 49.7107C104.308 50.0038 104.765 50.1914 105.07 50.0742C105.328 49.9804 105.528 49.4762 105.434 49.1245C105.246 48.3859 103.78 48.1045 102.782 48.6321Z" fill="#6161A8"/>
<path id="Vector_25" d="M106.654 48.5735C106.126 48.8314 105.95 49.2886 106.232 49.699C106.455 50.0507 106.83 50.0976 107.217 49.8162C107.522 49.6052 107.558 49.2066 107.276 48.9955C107.1 48.8666 107.088 48.808 107.217 48.6087C107.405 48.2921 107.229 48.2804 106.654 48.5735Z" fill="#6161A8"/>
<path id="Vector_26" d="M107.898 48.679C108.027 48.9252 108.062 49.3824 108.051 50.461C108.039 51.7741 108.062 51.9265 108.285 52.1493C108.614 52.4775 109.611 52.4892 109.916 52.1844C110.104 51.9734 110.104 51.9617 109.905 52.032C109.588 52.1493 109.47 51.6803 109.47 50.3438C109.47 49.699 109.412 49.0659 109.341 48.9252C109.189 48.6438 108.555 48.3624 108.074 48.3624C107.734 48.3624 107.722 48.3624 107.898 48.679Z" fill="#6161A8"/>
<path id="Vector_27" d="M117.331 48.6204C116.627 48.9839 116.334 49.5114 116.334 50.4142C116.334 51.739 117.014 52.3955 118.387 52.3955C119.783 52.3955 120.429 51.7507 120.429 50.3673C120.44 49.0073 119.959 48.4797 118.645 48.3977C117.988 48.3508 117.777 48.3859 117.331 48.6204ZM118.821 48.7963C118.88 48.9839 118.915 49.7576 118.915 50.5431C118.915 52.0203 118.821 52.3486 118.387 52.3486C117.953 52.3486 117.859 52.0203 117.859 50.5431C117.859 48.7376 117.93 48.4797 118.387 48.4797C118.669 48.4797 118.751 48.5383 118.821 48.7963Z" fill="#6161A8"/>
<path id="Vector_28" d="M123.362 48.4915C123.233 48.5618 123.033 48.7494 122.928 48.9252L122.74 49.2418L122.728 48.8549V48.4797H122.001H121.262L121.297 50.3438C121.332 52.2079 121.332 52.2079 121.062 52.2666C120.91 52.29 121.32 52.3134 121.966 52.3134C122.611 52.3252 123.045 52.3017 122.939 52.2666C122.752 52.2197 122.728 52.0555 122.728 50.9066C122.728 49.3707 122.928 48.7728 123.432 48.7728H123.725L123.761 50.4962C123.784 52.0555 123.772 52.2197 123.585 52.2666C123.467 52.3017 123.925 52.3252 124.605 52.3134C125.286 52.3134 125.72 52.29 125.579 52.2666C125.321 52.2197 125.309 52.1728 125.309 50.8128C125.309 49.2183 125.157 48.6673 124.664 48.4797C124.277 48.339 123.69 48.339 123.362 48.4915Z" fill="#6161A8"/>
<path id="Vector_29" d="M136.456 48.4914C135.998 48.679 135.752 48.9603 135.752 49.312C135.752 49.6989 136.022 50.0038 136.386 50.0038C136.902 50.0038 137.289 49.441 136.984 49.1362C136.773 48.9252 136.761 48.5148 136.96 48.4445C137.054 48.3976 137.043 48.3859 136.925 48.3741C136.831 48.3741 136.62 48.4328 136.456 48.4914Z" fill="#6161A8"/>
<path id="Vector_30" d="M137.488 48.5149C137.652 48.7142 137.769 51.0004 137.64 51.5514C137.582 51.8211 137.582 51.9735 137.64 51.9266C137.699 51.8914 137.781 51.95 137.816 52.0438C137.851 52.1493 138.098 52.29 138.356 52.3486C138.896 52.5011 139.553 52.3369 139.682 52.0204C139.74 51.868 139.729 51.8562 139.611 51.9618C139.506 52.0673 139.424 52.079 139.306 51.9852C139.201 51.8914 139.154 51.5045 139.154 50.6487C139.154 49.1715 139.025 48.7494 138.497 48.5267C137.98 48.3156 137.312 48.3039 137.488 48.5149Z" fill="#6161A8"/>
<path id="Vector_31" d="M147.531 48.4797C146.416 48.8197 145.959 50.4728 146.663 51.61C146.991 52.161 147.519 52.3955 148.434 52.3955C149.819 52.3955 150.452 51.7624 150.452 50.3673C150.452 48.9956 149.971 48.468 148.669 48.4094C148.247 48.3859 147.73 48.4211 147.531 48.4797ZM148.857 48.7963C149.021 49.3942 148.974 51.9383 148.786 52.161C148.563 52.4307 148.165 52.3486 147.989 51.9969C147.801 51.6335 147.789 49.5349 147.965 48.9135C148.071 48.5383 148.129 48.4797 148.423 48.4797C148.704 48.4797 148.786 48.5383 148.857 48.7963Z" fill="#6161A8"/>
<path id="Vector_32" d="M153.327 48.4914C153.209 48.55 153.057 48.7259 152.986 48.8665L152.857 49.1245L153.104 48.8548C153.432 48.5266 153.819 48.5148 153.819 48.8314C153.819 48.9603 153.737 49.0659 153.644 49.0659C153.526 49.0659 153.468 49.1831 153.468 49.4176C153.468 49.8396 153.878 50.0624 154.336 49.8983C154.817 49.7107 154.922 48.9955 154.523 48.5969C154.265 48.339 153.667 48.2921 153.327 48.4914Z" fill="#6161A8"/>
<path id="Vector_33" d="M157.375 48.6672C157.199 48.8431 157.14 48.9134 157.246 48.8314C157.363 48.7493 157.539 48.7141 157.633 48.761C157.774 48.8079 157.809 49.1128 157.809 50.5196C157.809 51.7624 157.774 52.2313 157.668 52.2665C157.586 52.3017 157.997 52.3251 158.572 52.3251C159.158 52.3251 159.557 52.3017 159.487 52.2665C159.252 52.1844 159.276 49.5114 159.51 49.0659C159.71 48.6907 160.085 48.5969 160.203 48.9017C160.238 49.0072 160.273 49.7927 160.273 50.6486C160.273 52.0437 160.249 52.2196 160.073 52.2665C159.956 52.3017 160.39 52.3251 161.036 52.3134C161.681 52.3134 162.091 52.2899 161.951 52.2665C161.693 52.2196 161.681 52.1727 161.681 50.7072C161.681 49.0776 161.587 48.7024 161.129 48.4914C160.555 48.2335 160.038 48.3273 159.616 48.7845C159.393 49.0072 159.217 49.1362 159.217 49.0659C159.217 48.9955 159.088 48.8079 158.924 48.6555C158.525 48.2452 157.821 48.2569 157.375 48.6672Z" fill="#6161A8"/>
<path id="Vector_34" d="M97.0577 50.0273C97.1163 51.7741 97.2102 52.0555 97.8203 52.3017C98.3365 52.5244 98.8645 52.4189 99.2986 52.0203L99.6154 51.7155V52.032V52.3486L100.589 52.3369C101.117 52.3251 101.434 52.29 101.293 52.2665C101.023 52.2196 101.023 52.1962 101.023 50.3438V48.4797H100.261H99.4981V50.0976C99.4981 51.5279 99.4746 51.7507 99.2869 51.9148C99.017 52.161 98.7237 52.1727 98.6298 51.9265C98.5947 51.821 98.5595 51.0121 98.5595 50.1093V48.4797H97.7851H96.999L97.0577 50.0273Z" fill="#6161A8"/>
<path id="Vector_35" d="M114.046 50.3438C114.046 52.1962 114.046 52.2196 113.788 52.2665C113.636 52.29 114.07 52.3134 114.75 52.3134C115.431 52.3134 115.865 52.29 115.724 52.2665C115.454 52.2196 115.454 52.1962 115.454 50.3438V48.4797H114.75H114.046V50.3438Z" fill="#6161A8"/>
<path id="Vector_36" d="M151.239 50.3438C151.239 52.1962 151.239 52.2196 150.981 52.2665C150.828 52.29 151.321 52.3134 152.06 52.3134C152.799 52.3134 153.257 52.29 153.081 52.2665L152.752 52.2196L152.764 50.7307C152.776 49.91 152.776 49.0659 152.776 48.8549L152.764 48.4797H152.002H151.239V50.3438Z" fill="#6161A8"/>
<path id="Vector_37" d="M155.462 50.3438C155.462 52.1962 155.462 52.2197 155.204 52.2666C155.051 52.29 155.462 52.3134 156.107 52.3134C156.752 52.3252 157.187 52.3017 157.081 52.2666C156.893 52.2197 156.87 52.0555 156.87 50.9418C156.87 50.2383 156.917 49.5349 156.987 49.359C157.069 49.1597 157.069 49.0776 156.987 49.1245C156.917 49.1714 156.87 49.0425 156.87 48.8432V48.4797H156.166H155.462V50.3438Z" fill="#6161A8"/>
<path id="Vector_38" d="M106.444 50.6486C105.81 50.9182 105.681 51.7155 106.197 52.1844C106.514 52.4775 107.511 52.4775 107.793 52.1961C107.992 51.9968 107.992 51.9851 107.781 52.0672C107.5 52.1727 107.359 51.9499 107.359 51.3755C107.359 51.0941 107.441 50.8596 107.594 50.7072L107.828 50.4727H107.335C107.054 50.4845 106.655 50.5548 106.444 50.6486Z" fill="#6161A8"/>
<path id="Vector_39" d="M136.162 50.6017C135.716 50.7307 135.517 51.0004 135.517 51.4928C135.517 51.9734 135.822 52.29 136.361 52.3955C136.807 52.4776 137.64 52.2431 137.253 52.1493C136.971 52.079 136.948 50.93 137.23 50.6604C137.394 50.4845 137.37 50.4728 136.96 50.4845C136.713 50.4845 136.361 50.5431 136.162 50.6017Z" fill="#6161A8"/>
</g>
</svg>
