<svg width="68" height="68" viewBox="0 0 68 68" fill="none" xmlns="http://www.w3.org/2000/svg">
<path d="M17.8762 0.810295C11.8999 1.60654 6.72041 4.79156 3.46274 9.68618C1.55267 12.5316 0.462871 15.6112 0.123042 19.1007C-0.0410138 20.7283 -0.0410138 48.0585 0.123042 49.6862C0.767545 56.3021 4.44707 62.0632 10.1539 65.3888C11.9936 66.466 13.9623 67.2037 16.4114 67.7307L17.6418 68H33.813H49.9842L51.2146 67.7307C51.8942 67.5785 52.9957 67.274 53.6637 67.0515C60.0384 64.9321 64.8663 59.8735 66.7412 53.363C67.4678 50.8454 67.4326 51.63 67.4678 34.9906C67.5029 21.6768 67.4912 19.6042 67.3271 18.363C66.9053 15.1663 65.8507 12.3091 64.1164 9.7213C61.1165 5.24823 56.769 2.30913 51.2732 1.0562L50.1013 0.798584L34.1645 0.775169C25.3993 0.763458 18.0754 0.786873 17.8762 0.810295ZM43.5977 15.541V17.0164L42.8712 16.9813L42.1329 16.9461L42.0978 15.5058L42.0626 14.0773H42.836H43.5977V15.541ZM37.4456 19.2295L36.9183 19.7564L35.8988 18.7377L34.8676 17.7073L35.3949 17.1803L35.9105 16.6534L36.9418 17.6721L37.973 18.7026L37.4456 19.2295ZM49.7849 18.726L48.7537 19.7447L48.285 19.288C48.0272 19.0421 47.8163 18.7728 47.8163 18.7143C47.8163 18.644 48.2499 18.1522 48.7772 17.6253L49.7498 16.6534L50.2771 17.1803L50.8044 17.7073L49.7849 18.726ZM44.875 18.6323C47.453 19.5222 49.1404 21.8876 49.1522 24.6159C49.1522 26.8056 48.1092 28.6791 46.1523 30.014C45.7773 30.2717 45.4258 30.5761 45.3554 30.7049C45.2851 30.8337 45.1562 30.9391 45.0625 30.9391C44.9102 30.9391 44.8867 30.6464 44.8867 29.2061V27.4731L45.6953 27.356C46.6679 27.2037 47.1718 26.8759 47.4765 26.2084C48.3788 24.2295 46.164 22.4379 44.3711 23.7143C43.9375 24.0187 43.5977 24.7681 43.5977 25.459V26.0211H42.836H42.0743V25.4473C42.0743 24.7681 41.922 24.3115 41.5705 23.9368C40.4807 22.7658 38.5237 23.2576 38.0784 24.815C37.9026 25.459 38.0784 26.1499 38.5354 26.6417C38.969 27.1101 39.3323 27.274 40.1174 27.3677L40.7853 27.4496V29.1944C40.7853 31.0328 40.7267 31.1967 40.2932 30.6464C40.1643 30.4824 39.7541 30.1429 39.3909 29.8852C36.0394 27.6136 35.5824 22.9766 38.43 20.1663C39.2854 19.3232 40.2815 18.7377 41.3244 18.4684C42.2853 18.2342 43.9024 18.3044 44.875 18.6323ZM34.9145 24.0187C35.184 24.089 35.2075 24.1592 35.2543 24.9438C35.2778 25.4122 35.3832 26.1616 35.5004 26.6066L35.6996 27.4262H32.2193H28.739L28.4929 27.0164C27.6961 25.6581 25.6102 25.7869 24.954 27.2389C24.6728 27.8712 24.6728 28.4098 24.9774 29.0304C25.6454 30.4122 27.6843 30.4941 28.4929 29.171L28.7741 28.7143L29.8874 28.7494L31.0006 28.7728L31.0358 30.2014L31.0709 31.6417H28.2468H25.4344V32.2857V32.9297H28.8913H32.3482V30.822V28.7143H34.3872H36.4262L36.6254 29.0187C37.0121 29.6042 37.6917 30.2834 38.512 30.8923L39.3557 31.5129L39.3909 33.363C39.4377 35.1077 39.4612 35.2482 39.7659 35.8806C40.1525 36.6768 40.8556 37.3091 41.6291 37.5902C42.1681 37.7775 42.1915 37.8009 42.1915 38.2225V38.6674H40.0822H37.973V39.3115V39.9555H40.0822H42.1915V40.6581V41.3607H43.6446H45.0976L45.3437 41.7705C46.1406 43.1288 48.2264 43 48.8826 41.548C49.1639 40.9157 49.1639 40.377 48.8592 39.7564C48.1795 38.363 46.0234 38.3044 45.2851 39.6628L45.0625 40.0843L44.3008 40.0492L43.5391 40.014L43.504 38.9368L43.4688 37.8595L44.1836 37.5433C45.0859 37.1335 45.8711 36.3021 46.1171 35.4707C46.2343 35.0726 46.2929 34.37 46.2929 33.3162C46.2929 32.4496 46.3398 31.6417 46.4101 31.5246C46.4687 31.4075 46.7148 31.1967 46.9374 31.0562L47.3593 30.7986L47.8163 31.1147C48.0624 31.2904 48.5545 31.7354 48.9061 32.0984C52.0934 35.4356 52.0466 40.541 48.8123 43.7611C47.746 44.8267 46.7616 45.4473 45.414 45.904C44.5586 46.185 44.3125 46.2201 42.7071 46.2201H40.9377L40.4689 46.6417C40.2111 46.8759 39.6604 47.2974 39.2502 47.5667C37.0589 49.0422 35.5356 51.4543 35.3012 53.7963L35.2192 54.6511L34.5044 54.6862L33.7778 54.7213L33.731 53.1639C33.6724 51.3841 33.5083 50.8571 32.7583 50.1194C32.067 49.4403 31.4928 49.2178 30.0983 49.089C27.8132 48.8899 26.1727 47.9649 24.954 46.2084L24.6259 45.7283L23.7119 46.185C22.0713 46.9813 20.5011 47.1803 18.8839 46.8056C16.5637 46.2553 14.5248 44.3934 13.8217 42.2037C13.4818 41.1147 13.3998 39.4169 13.6459 38.4333C13.9037 37.4145 14.5365 36.1382 15.1341 35.459L15.6263 34.9087L15.638 33.6557C15.6497 32.5082 15.6849 32.3443 16.0247 31.63C16.9856 29.6745 19.1417 28.5035 21.2159 28.8431C21.6026 28.9016 22.0479 29.007 22.2119 29.0656C22.4697 29.1592 22.5049 29.1475 22.5752 28.8548C22.9853 27.0164 23.8759 25.8103 25.3993 25.0609C26.1493 24.6979 26.2547 24.6745 27.4851 24.6745C28.657 24.6745 28.8444 24.7096 29.5007 25.014L30.2272 25.3419L30.6022 25.0375C31.0709 24.6393 31.9849 24.171 32.5474 24.0421C33.0747 23.9133 34.5161 23.9016 34.9145 24.0187ZM54.0269 24.6159V25.3185H52.2692H50.5115V24.6159V23.9133H52.2692H54.0269V24.6159ZM40.5744 24.815C40.715 24.9438 40.7853 25.1663 40.7853 25.5176V26.0211H40.2697C39.6604 26.0211 39.3791 25.7986 39.3791 25.3185C39.3791 24.6862 40.094 24.3817 40.5744 24.815ZM46.2226 24.8735C46.6445 25.4707 46.2578 26.0211 45.414 26.0211H44.8867V25.5761C44.8867 24.9555 45.1562 24.6159 45.6484 24.6159C45.9296 24.6159 46.1054 24.6979 46.2226 24.8735ZM43.5743 29.1475L43.6094 30.9391H42.836H42.0743V29.2061C42.0743 28.2459 42.1095 27.4262 42.1564 27.3794C42.2032 27.3325 42.5314 27.3091 42.8946 27.3325L43.5391 27.3677L43.5743 29.1475ZM27.3797 27.719C27.7781 28.3279 27.2156 29.007 26.5125 28.7611C25.7626 28.4918 25.9735 27.4262 26.782 27.4262C27.0867 27.4262 27.239 27.4965 27.3797 27.719ZM45.0039 32.9883V33.7494L42.8712 33.726L40.7267 33.6909L40.6916 33.1171C40.633 32.1803 40.5275 32.2272 42.8946 32.2272H45.0039V32.9883ZM44.7227 35.3536C44.4063 35.9625 43.5157 36.5597 42.9298 36.5597C42.3907 36.5597 41.7462 36.267 41.3478 35.8337C40.5978 35.0609 40.633 35.0375 42.8946 35.0375H44.8984L44.7227 35.3536ZM47.5819 40.1897C47.8632 40.4707 47.8749 40.7518 47.6288 41.103C47.2538 41.6417 46.2929 41.3021 46.2929 40.6347C46.2929 40.3302 46.7148 39.9555 47.0546 39.9555C47.2187 39.9555 47.453 40.0609 47.5819 40.1897Z" fill="black"/>
</svg>
