<svg width="53" height="55" viewBox="0 0 53 55" fill="none" xmlns="http://www.w3.org/2000/svg">
<g id="surface1">
<path id="Vector" d="M32.4493 1.21421C29.5954 1.8453 27.4483 4.40422 27.4483 7.46399C27.4483 7.53259 27.462 7.6079 27.4687 7.6765C31.9828 8.6439 34.2536 11.7034 34.2536 15.7509C34.2536 20.2926 30.5697 23.9696 26.0623 23.9696C21.5552 23.9696 17.3498 20.1828 17.3498 14.5643C17.3498 7.7041 23.181 1.27584 31.4959 1.07004C31.6467 1.07004 31.8799 1.07004 32.127 1.08397C30.302 0.384012 28.3126 0 26.2271 0C17.3088 0 10.0713 7.05238 10.0713 15.7442C10.0713 24.4361 17.3019 31.4885 26.2271 31.4885C35.1455 31.4885 42.376 24.4361 42.376 15.7442C42.3693 9.20638 38.2736 3.59466 32.4493 1.21421Z" fill="#F10020"/>
<path id="Vector_2" d="M8.73337 51.4721C8.66476 48.8035 11.8205 48.8035 11.7519 51.4721C11.8205 54.1409 8.66476 54.1409 8.73337 51.4721ZM8.02671 48.9134C7.51219 49.414 7.10754 50.2099 7.07324 51.4721C7.10754 52.7345 7.51219 53.5301 8.02671 54.0312C9.19295 55.1766 11.2923 55.1766 12.4585 54.0312C12.973 53.5301 13.3777 52.7345 13.412 51.4721C13.3777 50.2099 12.973 49.414 12.4585 48.9134C11.2923 47.7678 9.19295 47.7678 8.02671 48.9134Z" fill="#F10020"/>
<path id="Vector_3" d="M33.7314 51.4721C33.6628 48.8035 36.8185 48.8035 36.7499 51.4721C36.8185 54.1409 33.6628 54.1409 33.7314 51.4721ZM33.0248 48.9134C32.5102 49.414 32.1056 50.2099 32.0713 51.4721C32.1056 52.7345 32.5102 53.5301 33.0248 54.0312C34.191 55.1766 36.2903 55.1766 37.4566 54.0312C37.9711 53.5301 38.3757 52.7345 38.41 51.4721C38.3757 50.2099 37.9711 49.414 37.4566 48.9134C36.2903 47.7678 34.191 47.7678 33.0248 48.9134Z" fill="#F10020"/>
<path id="Vector_4" d="M18.5564 52.9406V49.7163C18.3026 49.5241 17.8224 49.3183 17.0402 49.5447C15.7849 49.9084 15.4419 52.9063 17.0059 53.4964C17.6645 53.7432 18.1791 53.4138 18.5564 52.9406ZM18.5564 45.696H20.2441V54.8888H18.7142V54.3606C18.3849 54.6693 17.7811 55.0193 16.8 54.937C15.0783 54.7998 14.1728 53.0365 14.31 51.1089C14.4472 49.1744 15.8739 48.0971 17.0608 48.0285C17.6645 47.9942 18.1927 48.1454 18.5564 48.3029" fill="#F10020"/>
<path id="Vector_5" d="M31.9956 47.1847L32.2427 45.7921C32.2427 45.7921 31.5497 45.4078 30.2945 45.5313C29.039 45.6549 28.5655 46.526 28.5655 47.658V48.2687H27.6807V49.5722H28.5655V54.8888H30.2533V49.5722H31.6253V48.2687H30.2533V47.7472C30.2602 47.0132 31.248 46.7525 31.9956 47.1847Z" fill="#F10020"/>
<g id="Clip path group">
<mask id="mask0_368_341" style="mask-type:luminance" maskUnits="userSpaceOnUse" x="21" y="48" width="6" height="7">
<g id="clip1">
<path id="Vector_6" d="M21.2666 48.0222H26.8234V54.9998H21.2666V48.0222Z" fill="white"/>
</g>
</mask>
<g mask="url(#mask0_368_341)">
<g id="Group">
<path id="Vector_7" d="M25.0602 53.1396C25.0602 53.1396 24.2919 53.7297 23.496 53.5582C22.6934 53.3867 22.3983 51.6783 25.0602 51.7332V53.1396ZM24.4015 48.0357C22.8716 47.9397 21.7809 48.8452 21.7809 48.8452L22.364 50.0182C22.364 50.0182 22.7756 49.6272 23.6262 49.4284C24.477 49.2293 25.0738 49.7438 25.0738 50.0595V50.567C21.9867 50.6289 21.2321 51.9048 21.3213 53.0504C21.4106 54.1893 22.2062 55.0331 23.5439 54.9988C24.875 54.9645 25.211 54.2166 25.211 54.2166V54.841H26.7615V50.6083C26.7615 48.9069 25.9383 48.1319 24.4015 48.0357Z" fill="#F10020"/>
</g>
</g>
</g>
<path id="Vector_8" d="M39.4668 48.1934V54.8891H41.1543V50.073C41.367 49.8812 41.7031 49.6341 42.1217 49.5312C42.8556 49.3597 43.7065 49.5105 43.7065 51.0954V54.8822H45.346V50.3817C45.346 49.339 44.7902 48.1042 43.2056 48.015C42.108 47.9533 41.3807 48.4542 41.0447 48.7696V48.1934" fill="#F10020"/>
<g id="Clip path group_2">
<mask id="mask1_368_341" style="mask-type:luminance" maskUnits="userSpaceOnUse" x="46" y="47" width="7" height="8">
<g id="clip2">
<path id="Vector_9" d="M46.3755 47.9534H52.4522V54.9996H46.3755V47.9534Z" fill="white"/>
</g>
</mask>
<g mask="url(#mask1_368_341)">
<g id="Group_2">
<path id="Vector_10" d="M48.138 51.939H52.412C52.412 51.939 52.7963 49.6545 51.1702 48.5226C49.5376 47.3909 47.0267 48.2072 46.5534 50.4231C46.0799 52.6387 46.9238 54.5665 48.8377 54.9096C50.7519 55.2526 52.1512 54.3401 52.1512 54.3401L51.719 52.9957C51.726 52.9957 48.4194 54.8273 48.138 51.939ZM50.7519 50.7661H48.1037C48.1037 50.7661 48.2889 49.4214 49.3728 49.3801C50.4638 49.3391 50.7243 50.3202 50.7519 50.7661Z" fill="#F10020"/>
</g>
</g>
</g>
<path id="Vector_11" d="M3.49175 54.813H4.20538L6.96314 48.1929H5.25505C4.98734 48.8652 3.51239 52.5491 3.49872 52.5765C3.48505 52.5491 1.96883 48.824 1.70809 48.1929H0L2.79206 54.813" fill="#F10020"/>
<path id="Vector_12" d="M7.95703 36.9432H9.28888V35.7073H7.95703V36.9432Z" fill="#F10020"/>
<path id="Vector_13" d="M21.8501 36.9359H23.1819V35.7H21.8501V36.9359Z" fill="#F10020"/>
<path id="Vector_14" d="M43.9531 36.9359H45.2852V35.7H43.9531V36.9359Z" fill="#F10020"/>
<path id="Vector_15" d="M31.9027 37.9301C31.5205 37.7958 30.8712 37.7307 29.9178 37.7307H29.9102V38.9873H29.9178C30.8648 38.9873 31.5347 39.1547 31.9651 39.5002C32.3907 39.841 32.5981 40.3687 32.5994 41.1126H28.751V42.5476H34.103V41.1064C34.103 40.3124 33.9149 39.6403 33.5443 39.1084C33.1764 38.5807 32.6241 38.1841 31.9027 37.9301Z" fill="#F10020"/>
<path id="Vector_16" d="M10.4884 40.558C10.4884 41.9871 9.76702 42.9106 8.65063 42.9106C7.52137 42.9106 6.79193 41.9871 6.79193 40.558V37.7241H5.28911L5.28857 40.6952C5.28857 42.719 6.76219 44.3043 8.64366 44.3043C9.56229 44.3043 10.4134 43.9259 11.0407 43.2394C11.6587 42.563 11.9987 41.6596 11.9987 40.6952V37.7241H10.4884" fill="#F10020"/>
<path id="Vector_17" d="M26.123 42.5476H27.6197V35.7H26.123V42.5476Z" fill="#F10020"/>
<path id="Vector_18" d="M43.9667 40.9583C43.8104 40.7342 43.7346 40.4574 43.7346 40.1117C43.7346 39.8148 43.8099 39.5313 43.946 39.3131C44.1154 39.0559 44.3485 38.9254 44.6396 38.9254H44.7425C45.0514 38.9254 45.2865 39.0288 45.4405 39.233C45.5962 39.4386 45.6748 39.7526 45.6748 40.1667C45.6748 40.4928 45.6013 40.7583 45.4502 40.9786C45.268 41.2211 45.0297 41.3391 44.7218 41.3391C44.3984 41.3391 44.1443 41.211 43.9667 40.9583ZM37.4433 39.0695C37.9846 39.0695 38.3482 39.4801 38.3482 40.0911V41.1059H37.4982C36.9652 41.1059 36.5932 40.6745 36.5932 40.0568C36.5932 39.457 36.9269 39.0695 37.4433 39.0695ZM46.4693 38.357C46.0105 37.9323 45.4019 37.7168 44.6602 37.7168C43.9356 37.7168 43.3286 37.9427 42.9047 38.3699C42.4818 38.7962 42.2586 39.4056 42.2586 40.1324C42.2586 40.4837 42.3151 40.8133 42.4269 41.1126H40.8383V41.1196H39.8519V40.1597C39.8519 38.7482 38.859 37.7238 37.4912 37.7238C36.7924 37.7238 36.191 37.9526 35.7521 38.3854C35.3096 38.8214 35.0757 39.4233 35.0757 40.1254C35.0757 41.5291 36.0916 42.5476 37.4912 42.5476C37.9704 42.5476 38.2657 42.5289 38.3927 42.4898C38.2727 42.8917 37.9302 43.0954 37.3747 43.0954H37.2367V44.297H37.402C38.1205 44.297 38.688 44.1493 39.0897 43.8583C39.4898 43.5681 39.7366 43.1273 39.8232 42.5476H44.7288C45.4681 42.5476 46.0609 42.3231 46.4902 41.8801C46.9332 41.4371 47.158 40.8468 47.158 40.1254C47.158 39.374 46.9262 38.7791 46.4693 38.357Z" fill="#F10020"/>
<path id="Vector_19" d="M21.856 40.9583C21.6998 40.7342 21.6242 40.4574 21.6242 40.1117C21.6242 39.8148 21.6993 39.5313 21.8354 39.3131C22.0048 39.0559 22.2382 38.9254 22.5289 38.9254H22.6388C22.9478 38.9254 23.1825 39.0288 23.3369 39.233C23.4923 39.4386 23.5711 39.7526 23.5711 40.1667C23.5711 40.496 23.4953 40.7616 23.3396 40.9786C23.1576 41.2211 22.9194 41.3391 22.6115 41.3391C22.2878 41.3391 22.0337 41.211 21.856 40.9583ZM15.3396 39.0695C15.8809 39.0695 16.2446 39.4801 16.2446 40.0911V41.1059H15.3943C14.8615 41.1059 14.4896 40.6745 14.4896 40.0568C14.4896 39.457 14.8232 39.0695 15.3396 39.0695ZM24.3657 38.357C23.9069 37.9323 23.298 37.7168 22.5565 37.7168C21.8317 37.7168 21.2247 37.9427 20.801 38.3699C20.3781 38.7962 20.1549 39.4056 20.1549 40.1324C20.1549 40.4837 20.2115 40.8133 20.3232 41.1126H18.7416V41.1196H17.7549V40.1597C17.7549 38.7482 16.7623 37.7238 15.3943 37.7238C14.6957 37.7238 14.0943 37.9526 13.6551 38.3854C13.2129 38.8214 12.979 39.4233 12.979 40.1254C12.979 41.5291 13.9949 42.5476 15.3943 42.5476C15.8734 42.5476 16.1687 42.5289 16.2958 42.4898C16.1757 42.8917 15.8332 43.0954 15.2777 43.0954H15.14V44.297H15.3053C16.0235 44.297 16.5913 44.1493 16.9928 43.8583C17.3931 43.5681 17.6399 43.1273 17.7265 42.5476H22.6251C23.3645 42.5476 23.9573 42.3231 24.3866 41.8801C24.8295 41.4371 25.0544 40.8468 25.0544 40.1254C25.0544 39.374 24.8226 38.7791 24.3657 38.357Z" fill="#F10020"/>
</g>
</svg>
